<svg width="71" height="70" viewBox="0 0 71 70" fill="none" xmlns="http://www.w3.org/2000/svg">
<g clip-path="url(#clip0_7_1873)">
<path d="M35.9699 70C45.3187 70 54.1077 66.3592 60.7186 59.7486C67.3291 53.1379 70.97 44.3487 70.97 34.9999C70.97 25.6513 67.3291 16.8621 60.7186 10.2514C54.1079 3.64068 45.3187 0 35.9699 0C16.6708 0 0.969971 15.7008 0.969971 34.9999C0.969971 44.3487 4.61065 53.1379 11.2214 59.7486C17.8321 66.3592 26.6213 70 35.9699 70Z" fill="#434852"/>
<path d="M2.18091 34.9999C2.18091 25.9748 5.69563 17.4896 12.0776 11.1076C18.4596 4.72552 26.9446 1.21094 35.9698 1.21094C44.9951 1.21094 53.4802 4.72552 59.8621 11.1076C66.244 17.4896 69.7587 25.9747 69.7587 34.9999C69.7587 53.6313 54.6011 68.789 35.9698 68.789C26.9446 68.789 18.4596 65.2743 12.0776 58.8923C5.69563 52.5102 2.18091 44.0252 2.18091 34.9999Z" fill="white"/>
<path d="M35.9699 2.60352C18.0781 2.60352 3.57349 17.1081 3.57349 34.9999C3.57349 52.8917 18.0781 67.3965 35.9699 67.3965C53.8617 67.3965 68.3663 52.8917 68.3663 34.9999C68.3663 17.1081 53.8617 2.60352 35.9699 2.60352Z" fill="#434852"/>
<path d="M35.9699 55.6936C24.5412 55.6936 15.2761 46.4287 15.2761 34.9999C15.2761 23.5712 24.5412 14.3062 35.9699 14.3062C47.3985 14.3062 56.6636 23.5712 56.6636 34.9999C56.6636 46.4287 47.3987 55.6936 35.9699 55.6936Z" fill="white"/>
<path d="M16.6074 34.9999H35.9698V15.6375C25.2764 15.6375 16.6074 24.3066 16.6074 34.9999ZM35.9698 34.9999V54.3625C46.6633 54.3625 55.3323 45.6935 55.3323 34.9999H35.9698Z" fill="#434852"/>
<path d="M20.7625 15.2557C20.0766 14.589 19.0163 14.3881 18.0208 15.0052C18.2109 14.5125 18.1333 14.0096 18.0323 13.7322C17.6035 12.9502 17.4538 12.8523 17.1004 12.5557C15.9562 11.5957 14.7521 12.4153 13.8909 13.4416L9.72998 18.4003L16.2709 23.8889L20.6589 18.6597C21.6615 17.4648 21.8165 16.2802 20.7625 15.2557ZM37.0538 12.8995L39.3001 6.94552V12.8995H41.0074V4.37231H38.4423L36.1092 10.4777H36.1334L33.8003 4.37231H31.2354V12.8995H32.9424V6.94552L35.1889 12.8995H37.0538ZM60.0069 16.4471L56.7927 20.9977L61.7757 18.632L63.0951 20.2613L55.252 24.0632L53.7036 22.1356L56.7885 17.6249L56.7702 17.6023L51.7167 19.6819L50.1531 17.7666L55.5027 10.8854L56.8221 12.5147L53.472 16.897L58.5915 14.6991L60.0069 16.4471Z" fill="white"/>
<path d="M14.8002 14.6688C15.0898 14.3237 15.7441 14.3378 16.165 14.6909C16.6277 15.0791 16.6288 15.6296 16.318 15.9997L13.8471 18.9445L12.301 17.6471L14.8002 14.6688ZM19.1966 18.1427L16.5914 21.2474L14.9578 19.8766L17.5841 16.7466C17.8806 16.3932 18.5419 16.2902 18.9878 16.6646C19.4927 17.088 19.5426 17.7304 19.1966 18.1427Z" fill="#434852"/>
</g>
<defs>
<clipPath id="clip0_7_1873">
<rect width="70" height="70" fill="white" transform="translate(0.969971)"/>
</clipPath>
</defs>
</svg>
