<svg width="81" height="80" viewBox="0 0 81 80" fill="none" xmlns="http://www.w3.org/2000/svg">
<path fill-rule="evenodd" clip-rule="evenodd" d="M40.9608 77C20.5291 76.9913 3.97021 60.4237 3.97021 39.9957C3.97021 19.5581 20.5385 2.99091 40.9608 3C61.4114 3 77.9702 19.5676 77.9702 39.9957C77.9702 60.4328 61.402 77 40.9608 77ZM10.6215 57.7445L11.2839 57.2236C9.3703 53.6794 8.63472 51.3165 7.79734 48.6935C7.72374 48.498 7.67794 48.3673 7.59494 48.2557C7.53974 48.4041 7.56754 48.5352 7.57654 48.7022C8.11013 51.5675 9.3981 55.1774 10.6215 57.7445ZM41.476 6.67439L46.5081 36.2655L41.2462 39.3817L41.0716 6.6839C41.0716 6.29318 40.814 6.29318 40.7588 6.6839L37.7871 37.6981L35.5795 36.4052L40.3078 6.68431C21.9826 6.79553 7.51194 21.67 7.51194 40.0515C7.51194 45.856 9.3151 51.9586 11.909 56.7117L34.9997 37.2979L37.2163 38.5812L11.2929 57.4187C10.6673 57.8652 10.8513 58.0794 11.541 57.6982L40.4914 40.7862V46.8702L12.5342 57.6606C18.3849 67.326 28.7619 73.484 40.8684 73.484C52.9475 73.484 63.4991 67.3169 69.3498 57.6701L41.4388 46.8888V40.8048L69.2856 57.0466C69.9198 57.4001 70.1042 57.205 69.506 56.777L44.7143 38.5911L46.9313 37.3074L70.0036 56.7398C72.6531 51.9586 74.4007 45.8469 74.4007 39.9957C74.4007 21.8466 59.4794 7.16764 41.476 6.67439ZM76.1948 33.2977C76.2586 33.4746 76.3138 33.6235 76.3968 33.7256C76.452 33.5768 76.4062 33.4465 76.3968 33.2791C73.3519 16.4605 58.9274 3.89307 41.0344 3.89307C21.0074 3.89307 4.80719 20.3118 4.80719 40.5534C4.80719 45.3346 6.01257 49.8934 7.65014 54.0697C8.40452 55.9948 10.8145 60.3861 11.4033 61.251C11.532 61.4367 11.5872 61.5297 11.7344 61.6418C11.7254 61.4648 11.7165 61.3809 11.624 61.1671C11.5226 60.9901 9.47129 57.0367 8.28472 54.097C7.27274 51.5671 6.01257 46.5258 6.01257 40.6832C6.01257 21.0461 21.7712 5.11111 41.1906 5.11111C51.3472 5.12021 60.8962 10.1342 66.7464 16.6275C71.1902 21.5584 73.4901 24.8702 76.1948 33.2977ZM11.7618 57.9488L10.9617 58.2469C16.1593 68.2934 27.0605 75.5959 40.9608 75.5959C60.6844 75.6054 76.452 59.4653 76.452 39.9957C76.452 35.2326 75.0905 32.312 74.3271 30.2005C73.7665 28.619 72.5607 26.1908 72.0271 25.1956C71.9167 25 71.8435 24.9165 71.6964 24.7958C71.7049 24.9723 71.7148 25.0748 71.8247 25.2704C72.2393 26.0982 73.1585 28.182 73.8115 30.2749C74.6947 33.0562 75.2467 36.1724 75.2467 39.9961C75.2467 46.0702 73.3613 52.2844 70.583 57.2327C70.7396 57.642 70.5916 57.847 70.123 57.9773C64.0601 67.8382 53.2509 74.2935 40.9514 74.2844C29.3969 74.2844 20.1607 68.0234 17.2445 64.7774C14.8714 62.135 13.1144 60.1727 11.7618 57.9488ZM39.1302 38.4886L40.6574 39.3908L40.8508 15.3814C40.8508 14.8976 40.704 14.879 40.6668 15.3628L39.1302 38.4886ZM41.7978 40.3024L62.3399 52.4605C62.7079 52.6747 62.7815 52.5445 62.4328 52.3121L43.3622 39.3908L41.7978 40.3024ZM38.6703 39.4652L33.5094 43.7354C33.2244 43.9768 33.3532 44.0885 33.6934 43.8937L40.1328 40.2843L38.6703 39.4652Z" fill="#434852"/>
</svg>
