<svg width="30" height="30" viewBox="0 0 30 30" fill="none" xmlns="http://www.w3.org/2000/svg">
<path fill-rule="evenodd" clip-rule="evenodd" d="M12.4987 2.03247H11.25C7.71375 2.03247 5.9475 2.03247 4.84875 3.13122C3.75 4.22997 3.75 5.99622 3.75 9.53247V26.0962H19.9987V21.72V19.845V9.53247C19.9987 5.99622 19.9987 4.22997 18.9 3.13122C17.8012 2.03247 16.035 2.03247 12.4987 2.03247Z" fill="#3A475C"/>
<path d="M3.75021 26.0925H2.50146C1.98396 26.0925 1.56396 26.5125 1.56396 27.03C1.56396 27.5475 1.98396 27.9675 2.50146 27.9675H21.4052C21.9227 27.9675 22.3427 27.5475 22.3427 27.03C22.3427 26.5125 21.9227 26.0925 21.4052 26.0925H20.0027H3.75021Z" fill="#8E93A6"/>
<path d="M10.3128 7.03125H14.0628C15.2403 7.03125 15.829 7.03125 16.1965 7.39875C16.564 7.76625 16.564 8.355 16.564 9.5325C16.564 10.71 16.564 11.2987 16.1965 11.6662C15.829 12.0338 15.2403 12.0337 14.0628 12.0337H10.3128C9.13527 12.0337 8.54652 12.0338 8.17902 11.6662C7.81152 11.2987 7.81152 10.71 7.81152 9.5325C7.81152 8.355 7.81152 7.76625 8.17902 7.39875C8.54652 7.03125 9.13527 7.03125 10.3128 7.03125Z" fill="#8E93A6"/>
<path d="M9.06396 19.845C8.54646 19.845 8.12646 20.265 8.12646 20.7825C8.12646 21.3 8.54646 21.72 9.06396 21.72H15.3152C15.8327 21.72 16.2527 21.3 16.2527 20.7825C16.2527 20.265 15.8327 19.845 15.3152 19.845H9.06396Z" fill="#8E93A6"/>
<path d="M19.999 21.72H21.964C22.4328 21.72 22.8115 22.0987 22.8115 22.5675V22.6575C22.8115 24.21 24.0715 25.47 25.624 25.47C27.1765 25.47 28.4365 24.21 28.4365 22.6575V9.03374C28.4365 8.83874 28.4365 8.70374 28.429 8.57249C28.3578 7.33499 27.8028 6.17249 26.8765 5.34374C26.779 5.25749 26.674 5.17124 26.5203 5.04749L24.9603 3.79874C24.5553 3.47624 23.9665 3.53999 23.644 3.94499C23.3215 4.34999 23.3853 4.93874 23.7903 5.26124L25.3315 6.49499C25.5115 6.64124 25.5753 6.68999 25.6278 6.73874C26.1828 7.23749 26.5165 7.93124 26.5578 8.67374C26.5615 8.74499 26.5615 8.82749 26.5615 9.05624V9.52874H25.624C24.589 9.52874 23.749 10.3687 23.749 11.4037V14.4262C23.749 15.2325 24.2665 15.9487 25.0315 16.2037L26.5615 16.7137V22.65C26.5615 23.1675 26.1415 23.5875 25.624 23.5875C25.1065 23.5875 24.6865 23.1675 24.6865 22.65V22.56C24.6865 21.0562 23.4678 19.8375 21.964 19.8375H19.999V21.72Z" fill="#8E93A6"/>
</svg>
