<svg width="48" height="47" viewBox="0 0 48 47" fill="none" xmlns="http://www.w3.org/2000/svg">
<path d="M42.375 23.35C42.375 23.325 42.4 23.275 42.375 23.225L41.55 20.7L38.775 22.3C38.375 22.525 37.925 22.65 37.5 22.65C37.075 22.65 36.65 22.55 36.25 22.325L34.825 21.5H8.475L11.225 13.225C11.575 12.2 12.525 11.5 13.6 11.5H27.5V7.175C27.5 6.95 27.525 6.7 27.575 6.5H13.6C10.4 6.5 7.525 8.55 6.475 11.625L2.625 23.2C2.6 23.25 2.625 23.3 2.6 23.35C1.025 24.725 0 26.75 0 29V34C0 37.275 2.125 40.05 5.075 41.05C5.025 41.2 5 41.35 5 41.5V44C5 45.375 6.675 46.5 8.75 46.5C8.975 46.5 9.2 46.475 9.4 46.45C11.175 46.25 12.5 45.225 12.5 44V41.5H32.5V44C32.5 45.375 34.175 46.5 36.25 46.5C38.325 46.5 40 45.375 40 44V41.5C40 41.35 39.975 41.2 39.925 41.05C42.875 40.05 45 37.275 45 34V29C45 26.75 43.975 24.725 42.375 23.35Z" fill="#0453C8"/>
<path d="M10 36.5C11.3807 36.5 12.5 35.3807 12.5 34C12.5 32.6193 11.3807 31.5 10 31.5C8.61929 31.5 7.5 32.6193 7.5 34C7.5 35.3807 8.61929 36.5 10 36.5Z" fill="#D1E7FD"/>
<path d="M35 36.5C36.3807 36.5 37.5 35.3807 37.5 34C37.5 32.6193 36.3807 31.5 35 31.5C33.6193 31.5 32.5 32.6193 32.5 34C32.5 35.3807 33.6193 36.5 35 36.5Z" fill="#D1E7FD"/>
<path d="M47.5 7.1752V15.8252C47.5 16.7252 47.025 17.5502 46.25 18.0002L41.55 20.7002L38.775 22.3002C38.375 22.5252 37.925 22.6502 37.5 22.6502C37.075 22.6502 36.65 22.5502 36.25 22.3252L34.825 21.5002L28.75 18.0002C27.975 17.5502 27.5 16.7252 27.5 15.8252V7.1752C27.5 6.9502 27.525 6.7002 27.575 6.5002C27.775 5.8752 28.175 5.3252 28.75 5.0002L36.025 0.800195L36.25 0.675195C37.025 0.250195 37.975 0.250195 38.75 0.675195L46.25 5.0002C47.025 5.4502 47.5 6.2752 47.5 7.1752Z" fill="#8DAEE1"/>
<path d="M41.2655 9.65828C41.6051 9.27804 41.5719 8.69476 41.1916 8.35513C40.8114 8.0155 40.2281 8.04873 39.8885 8.42896L36.1821 12.5784L35.1115 11.3823C34.7719 11.002 34.1886 10.9688 33.8084 11.3084C33.4281 11.6481 33.3949 12.2314 33.7345 12.6116L35.4917 14.5792C35.6653 14.7749 35.9163 14.8856 36.1821 14.8856C36.4442 14.8856 36.6952 14.7749 36.8687 14.5792L41.2655 9.65828Z" fill="#0453C8"/>
</svg>
