<svg width="45" height="50" viewBox="0 0 45 50" fill="none" xmlns="http://www.w3.org/2000/svg">
<path d="M45 34.9974V19.9974C45 12.9249 45 9.39238 42.8025 7.19488C40.8825 5.27488 37.935 5.03488 32.4975 5.00488H12.5025C7.065 5.03488 4.1175 5.27488 2.1975 7.19488C2.86102e-07 9.39238 0 12.9249 0 19.9974V34.9974C0 42.0699 2.86102e-07 45.6024 2.1975 47.7999C4.395 49.9974 7.9275 49.9974 15 49.9974H30C37.0725 49.9974 40.605 49.9974 42.8025 47.7999C45 45.6024 45 42.0699 45 34.9974Z" fill="#0453C8" fill-opacity="0.4"/>
<path d="M12.5024 3.75244C12.5024 1.68244 14.1824 0.00244141 16.2524 0.00244141H28.7549C30.8249 0.00244141 32.5049 1.68244 32.5049 3.75244V6.24994C32.5049 8.31994 30.8249 9.99994 28.7549 9.99994H16.2524C14.1824 9.99994 12.5024 8.31994 12.5024 6.24994V3.75244Z" fill="#0453C8"/>
<path fill-rule="evenodd" clip-rule="evenodd" d="M31.3725 21.2199C32.0775 21.9774 32.04 23.1624 31.2825 23.8674L20.565 33.8724C19.845 34.5474 18.7275 34.5474 18.0075 33.8724L13.7175 29.8749C12.96 29.1699 12.9225 27.9849 13.6275 27.2274C14.3325 26.4699 15.5175 26.4324 16.275 27.1374L19.2825 29.9424L28.7175 21.1374C29.475 20.4249 30.6675 20.4624 31.3725 21.2199Z" fill="#0453C8"/>
</svg>
