<svg width="51" height="50" viewBox="0 0 51 50" fill="none" xmlns="http://www.w3.org/2000/svg">
<path d="M25.5 32.5C29.64 32.5 33 29.14 33 25C33 20.86 29.64 17.5 25.5 17.5C21.36 17.5 18 20.86 18 25C18 29.14 21.36 32.5 25.5 32.5Z" fill="#0453C8"/>
<path fill-rule="evenodd" clip-rule="evenodd" d="M50.4974 24.9999C50.4974 38.8074 39.3074 49.9974 25.4999 49.9974C11.6924 49.9974 0.502441 38.8074 0.502441 24.9999C0.502441 11.1924 11.6924 0.00244141 25.4999 0.00244141C39.3074 0.00244141 50.4974 11.1924 50.4974 24.9999ZM25.4999 39.9999C33.7874 39.9999 40.4999 33.2874 40.4999 24.9999C40.4999 16.7124 33.7874 9.99994 25.4999 9.99994C17.2124 9.99994 10.4999 16.7124 10.4999 24.9999C10.4999 33.2874 17.2124 39.9999 25.4999 39.9999ZM32.9999 24.9999C32.9999 29.1399 29.6399 32.4999 25.4999 32.4999C21.3599 32.4999 17.9999 29.1399 17.9999 24.9999C17.9999 20.8599 21.3599 17.4999 25.4999 17.4999C29.6399 17.4999 32.9999 20.8599 32.9999 24.9999Z" fill="#0453C8" fill-opacity="0.4"/>
<path d="M19.6801 38.83L23.4901 32.23C22.2451 31.885 21.1351 31.2325 20.2426 30.355L16.4326 36.955C17.4301 37.705 18.5176 38.3425 19.6801 38.83Z" fill="#0453C8"/>
<path d="M10.6125 26.875H18.2325C18.075 26.275 18 25.645 18 25C18 24.355 18.0825 23.725 18.24 23.125H10.6125C10.5375 23.74 10.5 24.3625 10.5 25C10.5 25.6375 10.5375 26.26 10.6125 26.875Z" fill="#0453C8"/>
<path d="M16.4326 13.0449L20.2426 19.6449C21.1351 18.7674 22.2451 18.1149 23.4901 17.7699L19.6801 11.1699C18.5176 11.6574 17.4301 12.2949 16.4326 13.0449Z" fill="#0453C8"/>
<path d="M27.51 17.7699L31.32 11.1699C32.4825 11.6574 33.5775 12.2949 34.5675 13.0449L30.7575 19.6449C29.8575 18.7749 28.7475 18.1149 27.51 17.7699Z" fill="#0453C8"/>
<path d="M32.7675 26.875C32.925 26.275 33 25.645 33 25C33 24.355 32.9175 23.725 32.76 23.125H40.38C40.455 23.74 40.4925 24.3625 40.4925 25C40.4925 25.6375 40.455 26.26 40.38 26.875H32.7675Z" fill="#0453C8"/>
<path d="M27.51 32.23C28.755 31.885 29.865 31.2325 30.7575 30.355L34.5675 36.955C33.5775 37.7125 32.4825 38.3425 31.32 38.83L27.51 32.23Z" fill="#0453C8"/>
</svg>
