<svg width="61" height="60" viewBox="0 0 61 60" fill="none" xmlns="http://www.w3.org/2000/svg">
<path d="M10.4976 39.9976V53.1226H50.4951V39.9976C50.4951 28.9501 41.5401 19.9951 30.4926 19.9951C19.4526 20.0026 10.4976 28.9576 10.4976 39.9976Z" fill="#0453C8" fill-opacity="0.4"/>
<path d="M32.375 5.00244C32.375 3.96744 31.535 3.12744 30.5 3.12744C29.465 3.12744 28.625 3.96744 28.625 5.00244V12.5024C28.625 13.5374 29.465 14.3774 30.5 14.3774C31.535 14.3774 32.375 13.5374 32.375 12.5024V5.00244Z" fill="#0453C8"/>
<path d="M54.3273 13.6726C55.0623 14.4076 55.0623 15.5926 54.3273 16.3276L50.5773 20.0776C49.8423 20.8126 48.6573 20.8126 47.9223 20.0776C47.1873 19.3426 47.1873 18.1576 47.9223 17.4226L51.6723 13.6726C52.4073 12.9451 53.5923 12.9451 54.3273 13.6726Z" fill="#0453C8"/>
<path d="M9.32734 13.6723C8.59234 12.9373 7.40734 12.9373 6.67234 13.6723C5.93734 14.4073 5.93734 15.5923 6.67234 16.3273L10.4223 20.0773C11.1573 20.8123 12.3423 20.8123 13.0773 20.0773C13.8123 19.3423 13.8123 18.1573 13.0773 17.4223L9.32734 13.6723Z" fill="#0453C8"/>
<path d="M36.9275 27.015C35.9675 26.625 34.8725 27.09 34.4825 28.05C34.0925 29.01 34.5575 30.105 35.5175 30.495C37.5575 31.32 39.185 32.9475 40.01 34.9875C40.4 35.9475 41.495 36.4125 42.455 36.0225C43.415 35.6325 43.88 34.5375 43.49 33.5775C42.2825 30.5925 39.905 28.215 36.9275 27.015Z" fill="#0453C8"/>
<path d="M32.375 46.9951C33.4925 46.3501 34.25 45.1351 34.25 43.7476C34.25 41.6776 32.57 39.9976 30.5 39.9976C28.43 39.9976 26.75 41.6776 26.75 43.7476C26.75 45.1351 27.5075 46.3501 28.625 46.9951V53.1226H32.375V46.9951Z" fill="#0453C8"/>
<path d="M10.4974 53.1226H5.50244C4.46744 53.1226 3.62744 53.9626 3.62744 54.9976C3.62744 56.0326 4.46744 56.8726 5.50244 56.8726H55.5049C56.5399 56.8726 57.3799 56.0326 57.3799 54.9976C57.3799 53.9626 56.5399 53.1226 55.5049 53.1226H50.5024H32.3749H28.6249H10.4974Z" fill="#0453C8"/>
</svg>
