<svg width="51" height="50" viewBox="0 0 51 50" fill="none" xmlns="http://www.w3.org/2000/svg">
<path d="M0.502617 19.9976C0.502617 10.5701 0.502618 5.85262 3.43512 2.92762C6.36762 -0.00488281 11.0776 -0.00488281 20.5051 -0.00488281H25.5001C34.9276 -0.00488281 39.6451 -0.00488281 42.5701 2.92762C45.5026 5.86012 45.5026 10.5701 45.5026 19.9976V29.9951C45.5026 39.4226 45.5026 44.1401 42.5701 47.0651C39.6451 49.9976 34.9276 49.9976 25.5001 49.9976H20.4976C11.0701 49.9976 6.35262 49.9976 3.42762 47.0651C0.495117 44.1401 0.495117 39.4226 0.495117 29.9951V19.9976H0.502617Z" fill="#0453C8" fill-opacity="0.4"/>
<path d="M34.2974 36.2501C34.7324 35.9051 35.1299 35.5151 35.9249 34.7201L45.8174 24.8276C46.0574 24.5876 45.9449 24.1751 45.6299 24.0626C44.4599 23.6576 42.9449 22.9001 41.5199 21.4751C40.1024 20.0576 39.3374 18.5351 38.9324 17.3651C38.8199 17.0426 38.4074 16.9376 38.1674 17.1776L28.2749 27.0776C27.4799 27.8726 27.0824 28.2701 26.7449 28.7051C26.3399 29.2226 25.9949 29.7776 25.7174 30.3701C25.4774 30.8726 25.3049 31.4051 24.9449 32.4701L24.4874 33.8426L23.7599 36.0326L23.0774 38.0801C22.9049 38.6051 23.0399 39.1826 23.4299 39.5726C23.8199 39.9626 24.3974 40.0976 24.9224 39.9251L26.9699 39.2426L29.1599 38.5151L30.5324 38.0576C31.5974 37.7051 32.1299 37.5251 32.6324 37.2851C33.2249 37.0001 33.7799 36.6551 34.2974 36.2501Z" fill="#0453C8"/>
<path d="M48.9151 21.7299C51.0301 19.6149 51.0301 16.1949 48.9151 14.0799C46.8001 11.9649 43.3801 11.9649 41.2651 14.0799L40.9501 14.3949C40.6426 14.7024 40.5076 15.1299 40.5826 15.5574C40.6276 15.8274 40.7176 16.2174 40.8826 16.6899C41.2051 17.6274 41.8201 18.8574 42.9826 20.0124C44.1376 21.1674 45.3676 21.7824 46.3051 22.1124C46.7776 22.2774 47.1676 22.3674 47.4376 22.4124C47.8651 22.4874 48.2926 22.3524 48.6001 22.0449L48.9151 21.7299Z" fill="#0453C8"/>
<path fill-rule="evenodd" clip-rule="evenodd" d="M11.1226 17.5C11.1226 16.465 11.9626 15.625 12.9976 15.625H29.2501C30.2851 15.625 31.1251 16.465 31.1251 17.5C31.1251 18.535 30.2851 19.375 29.2501 19.375H12.9976C11.9626 19.375 11.1226 18.535 11.1226 17.5ZM11.1226 27.4975C11.1226 26.4625 11.9626 25.6225 12.9976 25.6225H20.4976C21.5326 25.6225 22.3726 26.4625 22.3726 27.4975C22.3726 28.5325 21.5326 29.3725 20.4976 29.3725H12.9976C11.9626 29.3725 11.1226 28.5325 11.1226 27.4975ZM11.1226 37.5025C11.1226 36.4675 11.9626 35.6275 12.9976 35.6275H16.7476C17.7826 35.6275 18.6226 36.4675 18.6226 37.5025C18.6226 38.5375 17.7826 39.3775 16.7476 39.3775H12.9976C11.9626 39.3775 11.1226 38.5375 11.1226 37.5025Z" fill="#0453C8"/>
</svg>
