<svg width="20" height="18" viewBox="0 0 20 18" fill="none" xmlns="http://www.w3.org/2000/svg">
<path d="M19.3319 0.670198C19.2299 0.579531 19.1109 0.525698 18.9749 0.508698C18.8389 0.491699 18.7085 0.511532 18.5839 0.568199L0.699861 8.3542C0.473194 8.4562 0.297527 8.61203 0.172861 8.8217C0.0481941 9.03137 -0.00563922 9.25803 0.0113608 9.5017C0.0283608 9.74537 0.110527 9.96353 0.257861 10.1562C0.405194 10.3489 0.597861 10.4792 0.835861 10.5472L5.23886 11.8732C5.36353 11.9412 5.49953 11.9667 5.64686 11.9497C5.79419 11.9327 5.92453 11.8789 6.03786 11.7882C6.15119 11.6975 6.22769 11.5814 6.26736 11.4397C6.30703 11.298 6.30703 11.1564 6.26736 11.0147C6.22769 10.873 6.15403 10.7569 6.04636 10.6662C5.93869 10.5755 5.81119 10.5189 5.66386 10.4962L1.95786 9.3742L15.9319 3.2882L7.63586 11.5842L7.60186 11.6352C7.60186 11.6465 7.59903 11.6522 7.59336 11.6522C7.58769 11.6522 7.58486 11.6579 7.58486 11.6692L7.55086 11.7202C7.55086 11.7315 7.54519 11.7429 7.53386 11.7542L7.51686 11.7712C7.51686 11.7939 7.51119 11.8109 7.49986 11.8222C7.48853 11.8335 7.48853 11.8392 7.49986 11.8392L7.48286 11.9072V12.0602L7.70386 16.1742C7.72653 16.4009 7.80303 16.602 7.93336 16.7777C8.06369 16.9534 8.23369 17.078 8.44336 17.1517C8.65303 17.2254 8.86836 17.2339 9.08936 17.1772C9.31036 17.1205 9.49453 17.0129 9.64186 16.8542L11.2909 15.0352L14.5549 17.2792C14.7135 17.3925 14.8892 17.4605 15.0819 17.4832C15.2745 17.5059 15.4615 17.4832 15.6429 17.4152C15.8242 17.3472 15.98 17.2367 16.1104 17.0837C16.2407 16.9307 16.3229 16.7579 16.3569 16.5652L19.5699 1.3672C19.5925 1.24253 19.584 1.11786 19.5444 0.993198C19.5047 0.868532 19.4339 0.760864 19.3319 0.670198ZM9.11486 15.3072L9.01286 13.4542L10.1009 14.2192L9.11486 15.3072ZM15.0309 15.8682L9.33586 11.9242L17.6149 3.6452L15.0309 15.8682Z" fill="white"/>
</svg>
