<svg width="80" height="80" viewBox="0 0 80 80" fill="none" xmlns="http://www.w3.org/2000/svg">
<rect width="80" height="80" rx="10" fill="#F5F8FD"/>
<path d="M35 25C35 24.3096 34.4404 23.75 33.75 23.75H32.0779C29.9257 23.75 28.015 25.1272 27.3344 27.1689L25.471 32.759L24.5006 32.1987C23.9028 31.8536 23.1383 32.0584 22.7931 32.6562C22.4479 33.2541 22.6528 34.0186 23.2506 34.3638L24.6641 35.1799L24.4618 35.7869C22.5459 36.8546 21.25 38.901 21.25 41.25V48.75C21.25 51.5114 23.4886 53.75 26.25 53.75C28.7998 53.75 30.9038 51.8414 31.2113 49.375H41.8955C41.9529 48.5038 42.1292 47.6651 42.4084 46.875H30C29.3096 46.875 28.75 47.4346 28.75 48.125V48.75C28.75 50.1307 27.6307 51.25 26.25 51.25C24.8693 51.25 23.75 50.1307 23.75 48.75V41.25C23.75 39.1789 25.4289 37.5 27.5 37.5H45C45.6904 37.5 46.25 36.9404 46.25 36.25C46.25 35.5596 45.6904 35 45 35H27.3593L29.7061 27.9594C30.0464 26.9386 31.0017 26.25 32.0779 26.25H33.75C34.4404 26.25 35 25.6904 35 25Z" fill="#0453C8"/>
<path d="M38.75 25C38.75 25.6904 39.3096 26.25 40 26.25H47.9221C48.9983 26.25 49.9536 26.9386 50.2939 27.9594L52.6407 35H51.25C50.5596 35 50 35.5596 50 36.25C50 36.9404 50.5596 37.5 51.25 37.5H52.5C54.5711 37.5 56.25 39.1789 56.25 41.25V42.0682C57.2171 42.6791 58.0648 43.4621 58.75 44.3741V41.25C58.75 38.901 57.4541 36.8546 55.5382 35.7869L55.3156 35.1191L56.6238 34.3638C57.2217 34.0186 57.4265 33.2541 57.0813 32.6562C56.7361 32.0584 55.9717 31.8536 55.3738 32.1987L54.5087 32.6982L52.6656 27.1689C51.985 25.1272 50.0743 23.75 47.9221 23.75H40C39.3096 23.75 38.75 24.3096 38.75 25Z" fill="#0453C8"/>
<path d="M31.875 43.75C32.5654 43.75 33.125 43.1904 33.125 42.5C33.125 41.8096 32.5654 41.25 31.875 41.25H29.375C28.6846 41.25 28.125 41.8096 28.125 42.5C28.125 43.1904 28.6846 43.75 29.375 43.75H31.875Z" fill="#0453C8"/>
<path fill-rule="evenodd" clip-rule="evenodd" d="M52.4223 43.3162C52.2408 42.8257 51.7731 42.5 51.25 42.5C50.7269 42.5 50.2592 42.8257 50.0777 43.3162L48.7579 46.8829L45.1912 48.2027C44.7007 48.3842 44.375 48.8519 44.375 49.375C44.375 49.8981 44.7007 50.3658 45.1912 50.5473L48.7579 51.8671L50.0777 55.4338C50.2592 55.9243 50.7269 56.25 51.25 56.25C51.7731 56.25 52.2408 55.9243 52.4223 55.4338L53.7421 51.8671L57.3088 50.5473C57.7993 50.3658 58.125 49.8981 58.125 49.375C58.125 48.8519 57.7993 48.3842 57.3088 48.2027L53.7421 46.8829L52.4223 43.3162ZM50.9031 48.2896L51.25 47.3519L51.5969 48.2896C51.7236 48.6317 51.9933 48.9014 52.3354 49.0281L53.2731 49.375L52.3354 49.7219C51.9933 49.8486 51.7236 50.1183 51.5969 50.4604L51.25 51.3981L50.9031 50.4604C50.7764 50.1183 50.5067 49.8486 50.1646 49.7219L49.2269 49.375L50.1646 49.0281C50.5067 48.9014 50.7764 48.6317 50.9031 48.2896Z" fill="#8DAEE1"/>
</svg>
