<svg width="80" height="80" viewBox="0 0 80 80" fill="none" xmlns="http://www.w3.org/2000/svg">
<rect width="80" height="80" rx="40" fill="#D1F7EA"/>
<path d="M16 40.0006C16 53.2554 26.7452 64.0006 40 64.0006C53.2548 64.0006 64 53.2554 64 40.0006C64 26.7458 53.2548 16.0006 40 16.0006C26.7452 16.0006 16 26.7458 16 40.0006Z" fill="#D1F7EA"/>
<path d="M48 34.6673L37.3333 45.3339L32 40.0006M40 64.0006C26.7452 64.0006 16 53.2554 16 40.0006C16 26.7458 26.7452 16.0006 40 16.0006C53.2548 16.0006 64 26.7458 64 40.0006C64 53.2554 53.2548 64.0006 40 64.0006Z" stroke="#1AD598" stroke-width="4" stroke-linecap="round" stroke-linejoin="round"/>
</svg>
