<svg width="44" height="44" viewBox="0 0 44 44" fill="none" xmlns="http://www.w3.org/2000/svg">
<rect width="44" height="44" rx="6" fill="#0847A4"/>
<g clip-path="url(#clip0_285_1559)">
<path d="M21.9993 24.3333C23.288 24.3333 24.3327 23.2886 24.3327 22C24.3327 20.7113 23.288 19.6666 21.9993 19.6666C20.7107 19.6666 19.666 20.7113 19.666 22C19.666 23.2886 20.7107 24.3333 21.9993 24.3333Z" stroke="white" stroke-width="1.5" stroke-linecap="round" stroke-linejoin="round"/>
<path d="M24.3327 19.6666V22.5833C24.3327 23.0474 24.5171 23.4925 24.8453 23.8207C25.1734 24.1489 25.6186 24.3333 26.0827 24.3333C26.5468 24.3333 26.9919 24.1489 27.3201 23.8207C27.6483 23.4925 27.8327 23.0474 27.8327 22.5833V22C27.8326 20.6834 27.3872 19.4056 26.5688 18.3743C25.7504 17.343 24.6072 16.6188 23.3251 16.3196C22.0429 16.0204 20.6973 16.1637 19.507 16.7263C18.3166 17.2888 17.3516 18.2374 16.7688 19.418C16.1859 20.5985 16.0196 21.9415 16.2968 23.2285C16.574 24.5156 17.2784 25.671 18.2956 26.507C19.3127 27.3429 20.5827 27.8102 21.8991 27.8328C23.2154 27.8554 24.5008 27.4321 25.546 26.6316" stroke="white" stroke-width="1.5" stroke-linecap="round" stroke-linejoin="round"/>
</g>
<defs>
<clipPath id="clip0_285_1559">
<rect width="14" height="14" fill="white" transform="translate(15 15)"/>
</clipPath>
</defs>
</svg>
