<svg width="40" height="40" viewBox="0 0 40 40" fill="none" xmlns="http://www.w3.org/2000/svg">
<path d="M38.75 16.875C38.0596 16.875 37.5 17.4347 37.5 18.125V23.125H35.625C35.625 22.7936 35.4933 22.4756 35.2588 22.2412C30.0148 16.9972 30.167 17.0545 29.7258 16.9259C29.4853 16.8556 29.6295 16.8751 26.25 16.8751V13.7501C26.25 13.0597 25.6904 12.5001 25 12.5001H23.75V10.6251H25C25.6904 10.6251 26.25 10.0655 26.25 9.37512C26.25 5.92887 23.4463 3.12512 20 3.12512C16.5537 3.12512 13.75 5.92887 13.75 9.37512C13.75 10.0655 14.3096 10.6251 15 10.6251H16.25V12.5001H15C14.3096 12.5001 13.75 13.0597 13.75 13.7501V16.8751H13.125C11.0572 16.8751 9.375 18.5573 9.375 20.6251H8.125C6.61586 20.6251 5.3532 21.7005 5.06289 23.1251H2.5V19.3751C2.5 18.6847 1.94039 18.1251 1.25 18.1251C0.559609 18.1251 0 18.6847 0 19.3751V34.3751C0 35.0655 0.559609 35.6251 1.25 35.6251C1.94039 35.6251 2.5 35.0655 2.5 34.3751V30.6251H5.06289C5.35328 32.0497 6.61586 33.1251 8.125 33.1251H9.375C9.375 35.1929 11.0572 36.8751 13.125 36.8751H29.375C30.068 36.8751 29.9108 36.8571 35.2588 31.5089C35.4933 31.2746 35.625 30.9566 35.625 30.6251H37.5V35.6251C37.5 36.3155 38.0596 36.8751 38.75 36.8751C39.4404 36.8751 40 36.3155 40 35.6251C40 33.5668 40 20.1947 40 18.1251C40 17.4347 39.4404 16.875 38.75 16.875ZM20 5.62504C21.6297 5.62504 23.0198 6.66997 23.5358 8.12504C21.2057 8.12504 18.5552 8.12504 16.4642 8.12504C16.9802 6.66997 18.3703 5.62504 20 5.62504ZM18.75 10.625H21.25V12.5H18.75V10.625ZM16.25 15H23.75V16.875H16.25V15ZM2.5 25.625H5V28.125H2.5V25.625ZM8.125 30.625C7.78039 30.625 7.5 30.3447 7.5 30C7.5 28.7467 7.5 25.0157 7.5 23.75C7.5 23.4054 7.78039 23.125 8.125 23.125H9.375V30.625H8.125ZM11.875 33.125C11.875 31.3414 11.875 22.4129 11.875 20.625C11.875 19.9358 12.4358 19.375 13.125 19.375H28.125V34.375H13.125C12.4358 34.375 11.875 33.8143 11.875 33.125ZM33.125 30.1072L30.625 32.6072V21.1429L33.125 23.6429V30.1072ZM35.625 28.125V25.625H37.5V28.125H35.625Z" fill="#0847A4"/>
<path d="M24.375 25.625H15.625C14.9346 25.625 14.375 26.1846 14.375 26.875C14.375 27.5654 14.9346 28.125 15.625 28.125H24.375C25.0654 28.125 25.625 27.5654 25.625 26.875C25.625 26.1846 25.0654 25.625 24.375 25.625Z" fill="#0847A4"/>
<path d="M24.375 21.25H15.625C14.9346 21.25 14.375 21.8096 14.375 22.5C14.375 23.1904 14.9346 23.75 15.625 23.75H24.375C25.0654 23.75 25.625 23.1904 25.625 22.5C25.625 21.8096 25.0654 21.25 24.375 21.25Z" fill="#0847A4"/>
<path d="M24.375 30H15.625C14.9346 30 14.375 30.5596 14.375 31.25C14.375 31.9404 14.9346 32.5 15.625 32.5H24.375C25.0654 32.5 25.625 31.9404 25.625 31.25C25.625 30.5596 25.0654 30 24.375 30Z" fill="#0847A4"/>
</svg>
