<svg width="40" height="40" viewBox="0 0 40 40" fill="none" xmlns="http://www.w3.org/2000/svg">
<g clip-path="url(#clip0_187_5323)">
<path d="M34.139 5.86097C26.3247 -1.95331 13.6759 -1.95401 5.86097 5.86097C-1.95338 13.6753 -1.95393 26.3241 5.86097 34.139C13.6753 41.9534 26.3241 41.954 34.139 34.139C41.9534 26.3247 41.954 13.6759 34.139 5.86097ZM20 37.4961C10.3529 37.4961 2.5039 29.6471 2.5039 20C2.5039 10.3529 10.3529 2.5039 20 2.5039C29.6471 2.5039 37.4961 10.3529 37.4961 20C37.4961 29.6471 29.6471 37.4961 20 37.4961Z" fill="#0847A4"/>
<path d="M7.8973 19.3752H12.094C12.6735 19.3752 13.177 18.9768 13.3102 18.4129C13.6188 17.1073 14.3009 15.9279 15.2828 15.0021C15.7043 14.6047 15.7974 13.9696 15.5076 13.4678L13.4095 9.83434C12.5921 8.41606 10.6569 8.15596 9.48522 9.30727C7.53613 11.2242 6.14901 13.6288 5.47377 16.2611C5.06925 17.8376 6.26453 19.3752 7.8973 19.3752ZM11.2379 11.0894C11.2509 11.0847 11.1648 10.9453 12.8761 13.9088C12.1241 14.7858 11.5436 15.7895 11.1603 16.8757H7.8973C7.88948 16.8693 8.537 13.7457 11.2379 11.0894Z" fill="#0847A4"/>
<path d="M23.411 27.1584C23.1213 26.6568 22.5247 26.4201 21.9699 26.5863C20.7104 26.9639 19.3243 26.9746 18.0293 26.5863C17.4744 26.42 16.878 26.6567 16.5883 27.1584L14.4886 30.7937C13.6701 32.2113 14.4123 34.0184 15.9959 34.4556C18.6137 35.18 21.4063 35.1743 24.0032 34.4556C25.5874 34.0182 26.329 32.2112 25.5105 30.7935L23.411 27.1584ZM23.3374 32.0465C21.1873 32.6416 18.8552 32.6535 16.6619 32.0465C16.6483 32.042 16.5276 32.261 18.2862 29.2162C19.4118 29.4246 20.5882 29.4246 21.7138 29.2161C23.4686 32.2496 23.3519 32.0349 23.3374 32.0465Z" fill="#0847A4"/>
<path d="M24.7176 15.002C25.6996 15.9279 26.3817 17.1073 26.6902 18.4128C26.8236 18.9768 27.327 19.3751 27.9065 19.3751H32.1032C33.7366 19.3751 34.9311 17.837 34.5267 16.2613C33.8515 13.6289 32.4643 11.2242 30.5148 9.3068C29.3429 8.15526 27.4074 8.41755 26.5915 9.83333L24.4928 13.4677C24.203 13.9695 24.2961 14.6046 24.7176 15.002ZM28.7544 11.0863C28.8409 11.1171 31.2013 13.367 32.1039 16.8756C31.8228 16.8756 29.2244 16.8757 28.8401 16.8757C28.4569 15.7894 27.8765 14.7857 27.1244 13.9087L28.7544 11.0863Z" fill="#0847A4"/>
<path d="M32.1032 20.6249H27.9065C27.327 20.6249 26.8235 21.0232 26.6902 21.5872C26.3817 22.8927 25.6996 24.0721 24.7176 24.998C24.2961 25.3954 24.203 26.0305 24.4928 26.5322L26.591 30.1656C27.4074 31.5824 29.3425 31.8452 30.5152 30.6927C32.4644 28.7757 33.8515 26.371 34.5267 23.7389C34.9312 22.1627 33.7362 20.6249 32.1032 20.6249ZM28.7626 28.9108C28.7496 28.9154 28.8341 29.052 27.1244 26.0913C27.8762 25.2145 28.4566 24.2111 28.8399 23.1251L32.1031 23.1278C31.5399 25.3156 30.385 27.3151 28.7626 28.9108Z" fill="#0847A4"/>
<path d="M15.2826 24.998C14.3006 24.0722 13.6185 22.8927 13.31 21.5872C13.1767 21.0232 12.6733 20.6249 12.0938 20.6249H7.89711C7.11783 20.6249 6.39682 20.9782 5.91896 21.5942C5.07298 22.6847 5.50718 23.907 5.47351 23.7387C6.14883 26.3712 7.53594 28.7759 9.48543 30.6932C10.6563 31.8437 12.592 31.5838 13.4087 30.1666L15.5075 26.5322C15.7972 26.0305 15.7041 25.3955 15.2826 24.998ZM11.2459 28.9137C11.1544 28.8812 8.79637 26.6247 7.89633 23.1245C7.90414 23.1222 8.26555 23.1244 11.1601 23.1244C11.5434 24.2106 12.124 25.2144 12.8759 26.0913L11.2459 28.9137Z" fill="#0847A4"/>
<path d="M16.5882 12.8417C16.8778 13.3432 17.4744 13.5802 18.0293 13.4138C19.2888 13.0362 20.6749 13.0255 21.9698 13.4138C22.527 13.5807 23.1224 13.3412 23.4109 12.8417L25.5106 9.20641C26.3306 7.78618 25.5838 5.98095 24.004 5.54472C21.3965 4.82317 18.6037 4.82285 15.9959 5.54457C14.4118 5.98197 13.6702 7.78922 14.4887 9.20656C14.4965 9.21422 14.3715 9.00364 16.5882 12.8417ZM16.6618 7.95356C18.8119 7.35854 21.144 7.34659 23.3373 7.95356C23.351 7.95809 23.4719 7.73869 21.7131 10.7839C20.6135 10.5802 19.4441 10.5695 18.2862 10.7839C16.5252 7.73502 16.6511 7.962 16.6618 7.95356Z" fill="#0847A4"/>
<path d="M17.9573 17.5012C18.3024 16.9035 18.0977 16.1392 17.4999 15.7941C16.9022 15.449 16.1379 15.6538 15.7928 16.2515C15.4477 16.8492 15.6525 17.6135 16.2502 17.9586C16.8479 18.3037 17.6122 18.0989 17.9573 17.5012Z" fill="#0847A4"/>
<path d="M24.2064 23.7499C24.5515 23.1521 24.3467 22.3878 23.749 22.0427C23.1513 21.6976 22.387 21.9024 22.0419 22.5001C21.6968 23.0979 21.9015 23.8622 22.4993 24.2073C23.097 24.5524 23.8613 24.3476 24.2064 23.7499Z" fill="#0847A4"/>
<path d="M23.749 17.9573C24.3467 17.6122 24.5515 16.8479 24.2064 16.2501C23.8613 15.6524 23.097 15.4476 22.4993 15.7927C21.9015 16.1378 21.6968 16.9021 22.0419 17.4999C22.387 18.0976 23.1513 18.3024 23.749 17.9573Z" fill="#0847A4"/>
<path d="M17.4999 24.2062C18.0977 23.8611 18.3024 23.0968 17.9573 22.499C17.6122 21.9013 16.8479 21.6965 16.2502 22.0416C15.6525 22.3867 15.4477 23.151 15.7928 23.7488C16.1379 24.3465 16.9022 24.5513 17.4999 24.2062Z" fill="#0847A4"/>
<path d="M21.8742 19.9999C21.8742 21.0333 21.0329 21.8745 19.9996 21.8745C18.9662 21.8745 18.125 21.0333 18.125 19.9999C18.125 18.9666 18.9662 18.1254 19.9996 18.1254C21.0329 18.1254 21.8742 18.9666 21.8742 19.9999Z" fill="#0847A4"/>
</g>
<defs>
<clipPath id="clip0_187_5323">
<rect width="40" height="40" fill="white"/>
</clipPath>
</defs>
</svg>
