<svg width="40" height="40" viewBox="0 0 40 40" fill="none" xmlns="http://www.w3.org/2000/svg">
<path d="M27.5 18.75H23.6395C23.4745 18.6213 23.3025 18.5024 23.125 18.3922V16.3873L24.132 11.8557C26.0209 11.6636 27.5 10.0638 27.5 8.125V3.75C27.5 1.68227 25.8177 0 23.75 0H16.25C14.5597 0 13.1276 1.12437 12.6609 2.6643L9.79453 3.14203C9.1918 3.24242 8.75 3.76398 8.75 4.375V7.5C8.75 8.11102 9.1918 8.63258 9.79453 8.73297L12.661 9.2107C13.0922 10.633 14.3469 11.701 15.868 11.8556L16.875 16.3873V18.3922C16.6974 18.5025 16.5254 18.6213 16.3605 18.75H12.5C9.05375 18.75 6.25 21.5537 6.25 25V33.75C6.25 37.1963 9.05375 40 12.5 40H27.5C30.9463 40 33.75 37.1963 33.75 33.75V25C33.75 21.5537 30.9463 18.75 27.5 18.75ZM20.625 21.875C20.625 22.2196 20.3446 22.5 20 22.5C19.6554 22.5 19.375 22.2196 19.375 21.875C19.375 20.9889 19.375 24.0413 19.375 17.5H20.625V21.875ZM15.0374 29.9696C16.7828 22.1157 16.6721 22.4745 16.8786 22.0162C16.9527 23.674 18.3242 25 20 25C21.6758 25 23.0473 23.674 23.1214 22.0162C23.3238 22.4655 23.2093 22.0802 24.9627 29.97C25.1809 30.9507 24.4312 31.875 23.4344 31.875H16.5656C15.5693 31.875 14.8192 30.9491 15.0374 29.9696ZM11.25 5.43391L12.5 5.22555V6.64945L11.25 6.44109V5.43391ZM15 8.125V3.75C15 3.06078 15.5608 2.5 16.25 2.5H23.75C24.4392 2.5 25 3.06078 25 3.75V8.125C25 8.81422 24.4392 9.375 23.75 9.375C22.7916 9.375 21.977 10.0284 21.7692 10.964L20.8723 15H19.1277L18.2309 10.9641C18.023 10.0284 17.2084 9.375 16.25 9.375C15.5608 9.375 15 8.81422 15 8.125ZM31.25 33.75C31.25 35.8177 29.5677 37.5 27.5 37.5H12.5C10.4323 37.5 8.75 35.8177 8.75 33.75V25C8.75 22.9323 10.4323 21.25 12.5 21.25H14.4888C14.2456 21.8681 14.3255 21.6492 12.5971 29.4269C12.0314 31.9678 13.9753 34.375 16.5656 34.375H23.4344C26.0249 34.375 27.9698 31.9745 27.403 29.4273C25.6235 21.4198 25.7442 21.8423 25.5112 21.25H27.5C29.5677 21.25 31.25 22.9323 31.25 25V33.75Z" fill="#0847A4"/>
</svg>
