<svg width="40" height="40" viewBox="0 0 40 40" fill="none" xmlns="http://www.w3.org/2000/svg">
<g clip-path="url(#clip0_187_5306)">
<path d="M37.2647 9.57935H32.9678V3.04689C32.9678 1.3668 31.601 0 29.921 0H25.8584C24.1783 0 22.8115 1.3668 22.8115 3.04689V9.57935H18.5146C17.2112 9.57935 16.1186 10.4963 15.8462 11.7188H11.6407C9.9606 11.7188 8.5938 13.0856 8.5938 14.7657V17.3919H2.73439C1.22665 17.3919 0 18.6185 0 20.1263V34.9222C0 36.2972 1.02047 37.438 2.34376 37.6282V38.8281C2.34376 39.4753 2.86845 40 3.51565 40C4.16284 40 4.68753 39.4753 4.68753 38.8281V37.6565H18.124V38.8281C18.124 39.4753 18.6487 40 19.2959 40C19.9431 40 20.4678 39.4753 20.4678 38.8281V37.6565H26.5627V38.8281C26.5627 39.4753 27.0874 40 27.7346 40C28.3818 40 28.9065 39.4753 28.9065 38.8281V37.6565H35.3116V38.8281C35.3116 39.4753 35.8363 40 36.4835 40C37.1307 40 37.6554 39.4753 37.6554 38.8281V37.6281C38.9787 37.438 39.9991 36.2972 39.9991 34.9221V12.3137C39.9991 10.806 38.7725 9.57935 37.2647 9.57935ZM22.8115 35.3127V11.9231H32.9678V35.3127H22.8115ZM25.1553 3.04689C25.1553 2.65916 25.4707 2.34376 25.8584 2.34376H29.921C30.3087 2.34376 30.6241 2.65916 30.6241 3.04689V9.57935H25.1553V3.04689ZM18.124 12.3137C18.124 12.0984 18.2992 11.9231 18.5146 11.9231H20.4678V35.3127H18.5146C18.2992 35.3127 18.124 35.1375 18.124 34.9221V12.3137ZM15.7802 19.7357V34.9221C15.7802 35.0547 15.7902 35.1851 15.8086 35.3128H7.03137V19.7357H15.7802ZM10.9376 14.7657C10.9376 14.378 11.2531 14.0626 11.6408 14.0626H15.7803V17.3919H10.9376V14.7657ZM2.34384 20.1263C2.34384 19.9109 2.51908 19.7357 2.73447 19.7357H4.68761V35.3128H2.73447C2.51908 35.3128 2.34384 35.1376 2.34384 34.9222V20.1263ZM37.6554 34.9221C37.6554 35.1375 37.4801 35.3127 37.2647 35.3127H35.3116V11.9231H37.2647C37.4801 11.9231 37.6554 12.0984 37.6554 12.3137V34.9221Z" fill="#0847A4"/>
</g>
<defs>
<clipPath id="clip0_187_5306">
<rect width="40" height="40" fill="white"/>
</clipPath>
</defs>
</svg>
