<svg width="40" height="40" viewBox="0 0 40 40" fill="none" xmlns="http://www.w3.org/2000/svg">
<path d="M20.0937 10.625C13.2873 10.625 7.75 16.1623 7.75 22.9688H10.0938C10.0938 17.4547 14.5797 12.9688 20.0937 12.9688C25.6077 12.9688 30.0938 17.4547 30.0938 22.9688H32.4375C32.4375 16.1623 26.9001 10.625 20.0937 10.625Z" fill="#0847A4"/>
<path d="M23.2124 16.5043L20.5207 22.5228C19.9181 22.4548 19.3038 22.5307 18.721 22.7533C17.761 23.12 17.0011 23.8386 16.5815 24.7768C16.1619 25.715 16.1328 26.7604 16.4995 27.7205C16.8662 28.6806 17.5849 29.4404 18.523 29.8601C19.0318 30.0876 19.5639 30.1952 20.0882 30.1952C21.5598 30.1952 22.9676 29.3465 23.6063 27.9185C24.0258 26.9803 24.0549 25.9348 23.6882 24.9747C23.4656 24.3919 23.1126 23.8836 22.6603 23.4797L25.352 17.4611L23.2124 16.5043ZM21.4667 26.9617C21.1282 27.7187 20.2369 28.0592 19.4799 27.7206C19.1132 27.5566 18.8323 27.2596 18.689 26.8843C18.5457 26.5091 18.557 26.1004 18.721 25.7337C18.885 25.367 19.182 25.0861 19.5573 24.9428C19.7317 24.8761 19.9132 24.843 20.0945 24.843C20.3032 24.843 20.5115 24.8871 20.7078 24.9749C21.0745 25.139 21.3555 25.4359 21.4988 25.8112C21.6421 26.1864 21.6308 26.595 21.4667 26.9617Z" fill="#0847A4"/>
<path d="M34.1422 8.82656C30.3646 5.04914 25.3422 2.96875 20 2.96875C14.6578 2.96875 9.63539 5.04914 5.85781 8.82656C2.08031 12.6041 0 17.6266 0 22.9688C0 25.6567 0.526016 28.2675 1.56336 30.7286L1.86547 31.4453H8.24164L12.2563 37.0312H27.932L31.9466 31.4453H38.1345L38.4366 30.7286C39.4741 28.2675 40 25.6566 40 22.9688C40 17.6266 37.9196 12.6041 34.1422 8.82656ZM30.7448 29.1016L26.7302 34.6875H13.4581L9.44344 29.1016H3.43914C2.84695 27.5062 2.49297 25.8443 2.38188 24.1406H5.39062V21.7969H2.38359C2.53922 19.4339 3.16148 17.1967 4.15938 15.1763L6.76195 16.6789L7.93383 14.6492L5.33398 13.1482C6.61867 11.2359 8.26703 9.5875 10.1794 8.30281L11.6804 10.9026L13.7101 9.7307L12.2075 7.1282C14.2279 6.13031 16.4652 5.50797 18.8281 5.35234V8.35938H21.1719V5.35234C23.5348 5.50797 25.7721 6.13023 27.7924 7.12812L26.2898 9.7307L28.3195 10.9026L29.8205 8.30273C31.7329 9.58742 33.3812 11.2358 34.6659 13.1481L32.0661 14.6491L33.238 16.6788L35.8405 15.1762C36.8384 17.1966 37.4608 19.4338 37.6163 21.7968H34.6094V24.1405H37.6181C37.507 25.8442 37.153 27.506 36.5609 29.1015H30.7448V29.1016Z" fill="#0847A4"/>
</svg>
