<svg width="40" height="40" viewBox="0 0 40 40" fill="none" xmlns="http://www.w3.org/2000/svg">
<g clip-path="url(#clip0_187_5294)">
<path d="M36.25 0H25.1773C21.5048 0 18.052 1.43016 15.4552 4.02711L2.92898 16.5533C1.04016 18.442 0 20.9533 0 23.6244V27.5C0 28.1903 0.559687 28.75 1.25 28.75C6.76406 28.75 11.25 33.2359 11.25 38.75C11.25 39.4403 11.8097 40 12.5 40H36.25C38.3178 40 40 38.3177 40 36.25V3.75C40 1.68227 38.3178 0 36.25 0ZM36.25 37.5H13.688C13.0997 31.6037 8.39633 26.9003 2.5 26.312V23.6244C2.5 21.621 3.28016 19.7377 4.69672 18.3211L17.223 5.79484C19.3476 3.67016 22.1726 2.5 25.1773 2.5H36.25C36.9392 2.5 37.5 3.06078 37.5 3.75V31.875H18.125C17.4347 31.875 16.875 32.4347 16.875 33.125C16.875 33.8153 17.4347 34.375 18.125 34.375H37.5V36.25C37.5 36.9392 36.9392 37.5 36.25 37.5Z" fill="#0847A4"/>
<path d="M35 20C35.6904 20 36.25 19.4403 36.25 18.75V5C36.25 4.30969 35.6904 3.75 35 3.75H25.1773C22.5064 3.75 19.9953 4.79008 18.1068 6.67867C10.0102 14.7753 11.0109 13.773 10.8741 13.9148C9.61836 14.3351 8.75 15.5105 8.75 16.875V20.625C8.75 22.3481 10.1519 23.75 11.875 23.75C13.5981 23.75 15 22.3481 15 20.625V20H35ZM19.8745 8.44641C21.2909 7.03 23.1741 6.25 25.1773 6.25H33.75V17.5H15C15 16.2431 14.924 15.3385 13.8598 14.4612L19.8745 8.44641ZM12.5 20.625C12.5 20.9696 12.2196 21.25 11.875 21.25C11.5304 21.25 11.25 20.9696 11.25 20.625V16.875C11.25 16.5734 11.4732 16.3088 11.7692 16.2596C12.1628 16.1935 12.5 16.4978 12.5 16.875V20.625Z" fill="#0847A4"/>
<path d="M35.0004 21.875H31.2471C30.5567 21.875 29.9971 22.4347 29.9971 23.125C29.9971 23.8153 30.5567 24.375 31.2471 24.375H35.0004C35.6907 24.375 36.2504 23.8153 36.2504 23.125C36.2504 22.4347 35.6907 21.875 35.0004 21.875Z" fill="#0847A4"/>
</g>
<defs>
<clipPath id="clip0_187_5294">
<rect width="40" height="40" fill="white"/>
</clipPath>
</defs>
</svg>
