<svg width="40" height="36" viewBox="0 0 40 36" fill="none" xmlns="http://www.w3.org/2000/svg">
<path d="M27.145 13.7165C27.1395 13.7064 27.1352 13.696 27.1294 13.686C27.1215 13.6723 27.1123 13.6599 27.104 13.6467C25.6729 11.2097 23.0245 9.56982 20 9.56982C16.9755 9.56982 14.327 11.2097 12.896 13.6467C12.8877 13.66 12.8784 13.6724 12.8705 13.6861C12.8648 13.6961 12.8604 13.7065 12.8549 13.7165C12.1634 14.9212 11.7676 16.3164 11.7676 17.8022C11.7676 19.2881 12.1634 20.6833 12.8549 21.8879C12.8604 21.898 12.8648 21.9084 12.8705 21.9184C12.8841 21.9419 12.8983 21.9646 12.9131 21.9867C14.3481 24.4077 16.9874 26.0347 20 26.0347C23.0127 26.0347 25.652 24.4076 27.087 21.9865C27.1018 21.9645 27.116 21.9418 27.1295 21.9185C27.1352 21.9085 27.1396 21.8981 27.1451 21.888C27.8366 20.6833 28.2324 19.2882 28.2324 17.8023C28.2324 16.3165 27.8366 14.9212 27.145 13.7165ZM21.1718 23.5734V21.9819C21.1718 21.3347 20.6471 20.81 19.9999 20.81C19.3527 20.81 18.828 21.3347 18.828 21.9819V23.5734C17.5514 23.3146 16.4243 22.6409 15.5916 21.7004L16.9662 20.9069C17.5267 20.5833 17.7188 19.8666 17.3951 19.3061C17.0714 18.7455 16.3548 18.5535 15.7943 18.8772L14.4174 19.6722C14.2199 19.0842 14.1112 18.4558 14.1112 17.8022C14.1112 17.1487 14.2199 16.5203 14.4174 15.9323L15.7943 16.7273C15.9788 16.8339 16.1803 16.8846 16.3791 16.8846C16.7841 16.8846 17.178 16.6744 17.3951 16.2984C17.7188 15.7379 17.5267 15.0212 16.9662 14.6976L15.5916 13.904C16.4242 12.9637 17.5514 12.2899 18.828 12.0311V13.6226C18.828 14.2698 19.3527 14.7945 19.9999 14.7945C20.6471 14.7945 21.1718 14.2698 21.1718 13.6226V12.0311C22.4484 12.2899 23.5755 12.9636 24.4082 13.904L23.0337 14.6976C22.4731 15.0212 22.2811 15.7379 22.6048 16.2984C22.8218 16.6744 23.2157 16.8846 23.6207 16.8846C23.8195 16.8846 24.021 16.834 24.2055 16.7273L25.5825 15.9323C25.78 16.5203 25.8886 17.1487 25.8886 17.8022C25.8886 18.4558 25.7799 19.0842 25.5825 19.6722L24.2055 18.8772C23.6449 18.5534 22.9284 18.7456 22.6048 19.3061C22.2811 19.8666 22.4731 20.5833 23.0337 20.9069L24.4082 21.7004C23.5755 22.6409 22.4484 23.3146 21.1718 23.5734Z" fill="#0847A4"/>
<path d="M38.8281 0.155762C38.1809 0.155762 37.6562 0.680449 37.6562 1.32764V2.50928H20C11.5674 2.50928 4.70703 9.36967 4.70703 17.8022C4.70703 19.0187 4.85063 20.2022 5.12031 21.3374H2.34375V19.7602C2.34375 19.113 1.81906 18.5883 1.17188 18.5883C0.524687 18.5883 0 19.113 0 19.7602V34.6723C0 35.3195 0.524687 35.8442 1.17188 35.8442C1.81906 35.8442 2.34375 35.3195 2.34375 34.6723V33.0951H20C28.4326 33.0951 35.293 26.2347 35.293 17.8022C35.293 16.6039 35.1549 15.4205 34.8814 14.267H37.6562V15.4487C37.6562 16.0958 38.1809 16.6205 38.8281 16.6205C39.4753 16.6205 40 16.0958 40 15.4487V1.32764C40 0.680449 39.4753 0.155762 38.8281 0.155762ZM2.34375 30.7515V23.6812H5.88289C7.10672 26.6089 9.21562 29.0775 11.8735 30.7515H2.34375ZM33.3165 11.9233C32.9361 11.9233 32.5793 12.108 32.3597 12.4187C32.14 12.7293 32.0848 13.1271 32.2116 13.4858C32.701 14.8704 32.9491 16.3226 32.9491 17.8022C32.9491 24.9425 27.1402 30.7515 19.9999 30.7515C12.8597 30.7515 7.05078 24.9424 7.05078 17.8022C7.05078 10.6621 12.8598 4.85303 20 4.85303H37.6562V11.9233H33.3165Z" fill="#0847A4"/>
<path d="M20 16.6304C19.387 16.6304 18.7998 17.1694 18.8281 17.8022C18.8566 18.4372 19.3431 18.9741 20 18.9741C20.613 18.9741 21.2002 18.4351 21.1719 17.8022C21.1434 17.1673 20.657 16.6304 20 16.6304Z" fill="#0847A4"/>
</svg>
