<svg width="40" height="40" viewBox="0 0 40 40" fill="none" xmlns="http://www.w3.org/2000/svg">
<path d="M37.7799 27.2015C38.229 26.2362 38.1284 25.7609 38.1284 22.8173C38.1284 18.6944 37.2634 14.7009 35.5573 10.9477C35.3294 10.4463 34.9982 10.0116 34.5958 9.66417C35.0888 8.79771 35.0032 8.15821 35.0032 6.87422C35.0032 5.15099 33.6012 3.74902 31.878 3.74902H26.8777C25.1544 3.74902 23.7525 5.15099 23.7525 6.87422C23.7525 8.10329 23.6635 8.79154 24.1598 9.66417C23.7574 10.0117 23.4262 10.4464 23.1984 10.9477C20.4252 17.0487 20.6273 21.6858 20.6273 25.6254C20.6273 26.1882 20.7527 26.7221 20.9758 27.2016C20.6184 27.3616 20.2902 27.5754 20.0022 27.8335C19.7143 27.5754 19.3861 27.3616 19.0287 27.2016C19.2517 26.7221 19.3772 26.1883 19.3772 25.6254C19.3772 21.6935 19.5881 17.0679 16.8061 10.9478C16.5782 10.4464 16.247 10.0117 15.8446 9.66425C16.3375 8.79779 16.252 8.15829 16.252 6.8743C16.252 5.15107 14.85 3.7491 13.1268 3.7491H8.12647C6.40324 3.7491 5.00127 5.15107 5.00127 6.8743C5.00127 8.10337 4.91228 8.79161 5.40864 9.66425C5.00619 10.0118 4.675 10.4465 4.44717 10.9478C2.74113 14.7011 1.87607 18.6945 1.87607 22.8174C1.87607 25.6742 1.77052 26.2256 2.22461 27.2016C-2.04582 29.1131 0.238466 36.2511 5.62631 36.2511H15.627C17.3927 36.2511 18.9701 35.4327 20.0022 34.1561C21.0343 35.4327 22.6118 36.2511 24.3775 36.2511H34.3782C39.8127 36.251 42.0137 29.0966 37.7799 27.2015ZM31.8779 26.8754H26.8776V21.25C26.8776 20.5607 27.4384 19.9999 28.1277 19.9999H30.6278C31.3171 19.9999 31.8779 20.5607 31.8779 21.25V26.8754ZM26.2526 6.87407C26.2526 6.52944 26.533 6.24903 26.8776 6.24903H31.8779C32.2226 6.24903 32.503 6.52944 32.503 6.87407V8.12415C32.503 8.46878 32.2226 8.74919 31.8779 8.74919H26.8776C26.533 8.74919 26.2526 8.46878 26.2526 8.12415V6.87407ZM25.4744 11.9821C25.6767 11.537 26.1234 11.2494 26.6124 11.2494H32.1432C32.6322 11.2494 33.0789 11.537 33.2812 11.9821C35.8225 17.5727 35.6282 21.767 35.6282 25.6253C35.6282 26.3145 35.0674 26.8754 34.3782 26.8754V21.25C34.3782 19.1821 32.6958 17.4998 30.6279 17.4998H28.1278C26.0599 17.4998 24.3775 19.1821 24.3775 21.25V26.8754C23.6883 26.8754 23.1274 26.3145 23.1274 25.6253C23.1274 21.8642 22.9133 17.6166 25.4744 11.9821ZM13.1267 26.8754H8.1264V21.25C8.1264 20.5607 8.68721 19.9999 9.37648 19.9999H11.8766C12.5659 19.9999 13.1267 20.5607 13.1267 21.25V26.8754ZM7.50136 6.87407C7.50136 6.52944 7.78176 6.24903 8.1264 6.24903H13.1267C13.4713 6.24903 13.7518 6.52944 13.7518 6.87407V8.12415C13.7518 8.46878 13.4713 8.74919 13.1267 8.74919H8.1264C7.78176 8.74919 7.50136 8.46878 7.50136 8.12415V6.87407ZM6.72318 11.9821C6.92554 11.537 7.37221 11.2494 7.86122 11.2494H13.392C13.881 11.2494 14.3277 11.537 14.53 11.9821C17.0712 17.5727 16.877 21.767 16.877 25.6253C16.877 26.3145 16.3162 26.8754 15.627 26.8754V21.25C15.627 19.1821 13.9446 17.4998 11.8767 17.4998H9.37655C7.30869 17.4998 5.62631 19.1821 5.62631 21.25V26.8754C4.93705 26.8754 4.37623 26.3145 4.37623 25.6253C4.37615 21.8642 4.16208 17.6166 6.72318 11.9821ZM15.6269 33.7508H5.62623C3.903 33.7508 2.50103 32.3488 2.50103 30.6256C2.50103 29.9363 3.06185 29.3755 3.75111 29.3755H17.502C18.1913 29.3755 18.7521 29.9363 18.7521 30.6256C18.7521 32.3489 17.3502 33.7508 15.6269 33.7508ZM34.3781 33.7508H24.3774C22.6542 33.7508 21.2522 32.3488 21.2522 30.6256C21.2522 29.9363 21.8131 29.3755 22.5023 29.3755H36.2532C36.9425 29.3755 37.5033 29.9363 37.5033 30.6256C37.5033 32.3489 36.1014 33.7508 34.3781 33.7508Z" fill="#0847A4"/>
</svg>
