<svg width="71" height="52" viewBox="0 0 71 52" fill="none" xmlns="http://www.w3.org/2000/svg">
<g clip-path="url(#clip0_7_1889)">
<path d="M19.3145 0H26.9179V52H19.3145V0ZM51.9093 0V6.27423H57.8041V52H65.171V6.27423H70.9702V0H51.9093ZM0.970215 52H8.33728V28.4091H14.6116V22.2208H8.33728V6.27423H16.5223V0H0.970215V52ZM52.8859 48.5937C52.8875 49.7332 52.8881 50.8687 52.8879 52H45.997C45.991 50.0328 45.9864 48.0559 45.9834 46.0692C45.9777 44.0856 45.9681 42.0986 45.9463 40.1184C45.9028 36.1618 45.8102 32.2207 45.5995 28.4091H37.4948V52H30.878V0H46.425C47.3664 1.78888 48.1649 3.64674 48.8132 5.55684C49.484 7.53087 50.0391 9.54093 50.4759 11.5772C50.9275 13.6473 51.2867 15.7818 51.5753 17.9537C51.864 20.125 52.0835 22.3465 52.2532 24.5878C52.4228 26.8279 52.5436 29.107 52.6314 31.3882C52.7192 33.6671 52.7752 35.9784 52.8119 38.2723C52.8486 40.5606 52.867 42.8855 52.8767 45.1651C52.8816 46.3109 52.8847 47.4537 52.8859 48.5937ZM45.1301 22.2208C44.5379 16.2752 43.5222 10.7722 41.7635 6.27423H37.4948V22.2208H45.1301Z" fill="#434852"/>
</g>
<defs>
<clipPath id="clip0_7_1889">
<rect width="70" height="52" fill="white" transform="translate(0.970215)"/>
</clipPath>
</defs>
</svg>
