<svg width="32" height="32" viewBox="0 0 32 32" fill="none" xmlns="http://www.w3.org/2000/svg">
<path d="M22.999 21.991C22.491 21.991 22.057 21.606 22.005 21.091C21.95 20.541 22.352 20.051 22.901 19.996C23.552 19.931 24.205 19.852 24.86 19.76C25.405 19.678 25.913 20.063 25.991 20.61C26.068 21.157 25.688 21.664 25.141 21.741C24.458 21.838 23.779 21.92 23.1 21.987C23.065 21.989 23.032 21.991 22.999 21.991Z" fill="black"/>
<path d="M13.0009 21.9909C12.9679 21.9909 12.9349 21.9889 12.8999 21.9859C12.2209 21.9189 11.5419 21.8369 10.8589 21.7399C10.3119 21.6629 9.93193 21.1559 10.0089 20.6089C10.0869 20.0619 10.5929 19.6809 11.1399 19.7589C11.7949 19.8519 12.4479 19.9299 13.0989 19.9949C13.6479 20.0499 14.0489 20.5399 13.9949 21.0899C13.9429 21.6059 13.5089 21.9909 13.0009 21.9909Z" fill="black"/>
<path d="M29.328 15.515C28.816 15.604 28.303 15.672 27.79 15.749C27.508 14.356 27.088 13.025 26.525 11.784C26.032 10.7 24.954 10 23.775 10H12.225C11.046 10 9.96802 10.7 9.47702 11.783C8.91202 13.024 8.49302 14.356 8.21102 15.749C7.69802 15.672 7.18502 15.604 6.67302 15.515C6.11902 15.421 5.61102 15.785 5.51602 16.329C5.42102 16.873 5.78602 17.391 6.32902 17.486C6.79002 17.566 7.25302 17.626 7.71502 17.697L7.20602 19.22C7.06902 19.628 7.00002 20.055 7.00002 20.487V28C7.00002 29.103 7.89702 30 9.00002 30H11C12.103 30 13 29.103 13 28V26H23V28C23 29.103 23.897 30 25 30H27C28.103 30 29 29.103 29 28V20.487C29 20.054 28.931 19.628 28.794 19.221L28.286 17.695C28.748 17.624 29.211 17.564 29.672 17.484C30.216 17.389 30.58 16.871 30.485 16.327C30.39 15.783 29.879 15.42 29.328 15.515ZM11.298 12.61C11.466 12.239 11.829 12 12.225 12H23.776C24.172 12 24.535 12.239 24.704 12.611C25.188 13.677 25.558 14.82 25.81 16.019C20.617 16.639 15.385 16.639 10.191 16.019C10.443 14.82 10.813 13.677 11.298 12.61ZM11 28H9.00002V26H11V28ZM27 28H25V26H27V28ZM26.897 19.856C26.966 20.059 27 20.271 27 20.487V24H9.00002V20.487C9.00002 20.27 9.03402 20.058 9.10302 19.854L9.72702 17.98C12.485 18.32 15.255 18.5 18 18.5C20.745 18.5 23.515 18.32 26.273 17.981L26.897 19.856Z" fill="black"/>
<path d="M19 22H17C16.447 22 16 21.553 16 21C16 20.447 16.447 20 17 20H19C19.553 20 20 20.447 20 21C20 21.553 19.553 22 19 22Z" fill="black"/>
<path d="M14 8.5C13.447 8.5 13 8.052 13 7.5V7C13 6.448 13.447 6 14 6C14.553 6 15 6.448 15 7V7.5C15 8.052 14.553 8.5 14 8.5Z" fill="black"/>
<path d="M17 8.5C16.447 8.5 16 8.052 16 7.5V7C16 6.448 16.447 6 17 6C17.553 6 18 6.448 18 7V7.5C18 8.052 17.553 8.5 17 8.5Z" fill="black"/>
<path d="M6.5 10C4.019 10 2 7.981 2 5.5C2 3.019 4.019 1 6.5 1C8.023 1 9.401 1.752 10.23 3H21C21.334 3 21.646 3.167 21.832 3.445L22.832 4.945C23.056 5.281 23.056 5.718 22.832 6.054L21.832 7.554C21.646 7.833 21.334 8 21 8H20C19.447 8 19 7.552 19 7C19 6.448 19.447 6 20 6H20.465L20.798 5.5L20.465 5H9.65C9.266 5 8.914 4.779 8.748 4.431C8.326 3.548 7.465 3 6.5 3C5.121 3 4 4.122 4 5.5C4 6.878 5.121 8 6.5 8C7.465 8 8.326 7.452 8.748 6.569C8.914 6.221 9.266 6 9.65 6H11C11.553 6 12 6.448 12 7C12 7.552 11.553 8 11 8H10.23C9.401 9.248 8.023 10 6.5 10Z" fill="black"/>
</svg>
