<svg width="32" height="32" viewBox="0 0 32 32" fill="none" xmlns="http://www.w3.org/2000/svg">
<path d="M29.71 8.29002L23.71 2.29002C23.6166 2.19734 23.5057 2.12401 23.3839 2.07425C23.2621 2.02448 23.1316 1.99926 23 2.00002H11C10.2044 2.00002 9.44129 2.31609 8.87868 2.8787C8.31607 3.44131 8 4.20437 8 5.00002V11C8 11.2652 8.10536 11.5196 8.29289 11.7071C8.48043 11.8947 8.73478 12 9 12C9.26522 12 9.51957 11.8947 9.70711 11.7071C9.89464 11.5196 10 11.2652 10 11V5.00002C10 4.7348 10.1054 4.48045 10.2929 4.29291C10.4804 4.10537 10.7348 4.00002 11 4.00002H22V7.00002C22 7.79567 22.3161 8.55873 22.8787 9.12134C23.4413 9.68395 24.2044 10 25 10H28V27C28 27.2652 27.8946 27.5196 27.7071 27.7071C27.5196 27.8947 27.2652 28 27 28H19C18.7348 28 18.4804 28.1054 18.2929 28.2929C18.1054 28.4804 18 28.7348 18 29C18 29.2652 18.1054 29.5196 18.2929 29.7071C18.4804 29.8947 18.7348 30 19 30H27C27.7956 30 28.5587 29.6839 29.1213 29.1213C29.6839 28.5587 30 27.7957 30 27V9.00002C30.0008 8.86841 29.9755 8.73795 29.9258 8.61611C29.876 8.49427 29.8027 8.38346 29.71 8.29002ZM24 7.00002V5.41002L26.59 8.00002H25C24.7348 8.00002 24.4804 7.89466 24.2929 7.70712C24.1054 7.51959 24 7.26523 24 7.00002Z" fill="black"/>
<path d="M10 14C8.41775 14 6.87103 14.4692 5.55544 15.3482C4.23985 16.2273 3.21447 17.4767 2.60897 18.9385C2.00347 20.4003 1.84504 22.0089 2.15372 23.5607C2.4624 25.1126 3.22433 26.538 4.34315 27.6569C5.46197 28.7757 6.88743 29.5376 8.43928 29.8463C9.99113 30.155 11.5997 29.9965 13.0615 29.391C14.5233 28.7855 15.7727 27.7602 16.6518 26.4446C17.5308 25.129 18 23.5823 18 22C18 19.8783 17.1571 17.8434 15.6569 16.3431C14.1566 14.8429 12.1217 14 10 14ZM10 28C8.81332 28 7.65328 27.6481 6.66658 26.9888C5.67989 26.3295 4.91085 25.3925 4.45673 24.2961C4.0026 23.1997 3.88378 21.9933 4.11529 20.8295C4.3468 19.6656 4.91825 18.5965 5.75736 17.7574C6.59648 16.9182 7.66558 16.3468 8.82946 16.1153C9.99335 15.8838 11.1997 16.0026 12.2961 16.4567C13.3925 16.9108 14.3295 17.6799 14.9888 18.6666C15.6481 19.6533 16 20.8133 16 22C16 23.5913 15.3679 25.1174 14.2426 26.2426C13.1174 27.3679 11.5913 28 10 28Z" fill="black"/>
<path d="M11.2899 19.2899L7.28994 23.2899C7.19621 23.3829 7.12182 23.4935 7.07105 23.6154C7.02028 23.7372 6.99414 23.8679 6.99414 23.9999C6.99414 24.132 7.02028 24.2627 7.07105 24.3845C7.12182 24.5064 7.19621 24.617 7.28994 24.7099C7.3829 24.8037 7.4935 24.8781 7.61536 24.9288C7.73722 24.9796 7.86793 25.0057 7.99994 25.0057C8.13195 25.0057 8.26266 24.9796 8.38452 24.9288C8.50638 24.8781 8.61698 24.8037 8.70994 24.7099L12.7099 20.7099C12.8032 20.6167 12.8771 20.506 12.9276 20.3842C12.9781 20.2624 13.004 20.1318 13.004 19.9999C13.004 19.8681 12.9781 19.7375 12.9276 19.6157C12.8771 19.4939 12.8032 19.3832 12.7099 19.2899C12.6167 19.1967 12.506 19.1227 12.3842 19.0723C12.2624 19.0218 12.1318 18.9958 11.9999 18.9958C11.8681 18.9958 11.7375 19.0218 11.6157 19.0723C11.4939 19.1227 11.3832 19.1967 11.2899 19.2899Z" fill="black"/>
<path d="M8 21C8.55228 21 9 20.5523 9 20C9 19.4477 8.55228 19 8 19C7.44772 19 7 19.4477 7 20C7 20.5523 7.44772 21 8 21Z" fill="black"/>
<path d="M12 25C12.5523 25 13 24.5523 13 24C13 23.4477 12.5523 23 12 23C11.4477 23 11 23.4477 11 24C11 24.5523 11.4477 25 12 25Z" fill="black"/>
<path d="M19 8H13C12.7348 8 12.4804 8.10536 12.2929 8.29289C12.1054 8.48043 12 8.73478 12 9C12 9.26522 12.1054 9.51957 12.2929 9.70711C12.4804 9.89464 12.7348 10 13 10H19C19.2652 10 19.5196 9.89464 19.7071 9.70711C19.8946 9.51957 20 9.26522 20 9C20 8.73478 19.8946 8.48043 19.7071 8.29289C19.5196 8.10536 19.2652 8 19 8Z" fill="black"/>
<path d="M25 13H19C18.7348 13 18.4804 13.1054 18.2929 13.2929C18.1054 13.4804 18 13.7348 18 14C18 14.2652 18.1054 14.5196 18.2929 14.7071C18.4804 14.8946 18.7348 15 19 15H25C25.2652 15 25.5196 14.8946 25.7071 14.7071C25.8946 14.5196 26 14.2652 26 14C26 13.7348 25.8946 13.4804 25.7071 13.2929C25.5196 13.1054 25.2652 13 25 13Z" fill="black"/>
<path d="M25 18H21C20.7348 18 20.4804 18.1054 20.2929 18.2929C20.1054 18.4804 20 18.7348 20 19C20 19.2652 20.1054 19.5196 20.2929 19.7071C20.4804 19.8946 20.7348 20 21 20H25C25.2652 20 25.5196 19.8946 25.7071 19.7071C25.8946 19.5196 26 19.2652 26 19C26 18.7348 25.8946 18.4804 25.7071 18.2929C25.5196 18.1054 25.2652 18 25 18Z" fill="black"/>
<path d="M25 23H21C20.7348 23 20.4804 23.1054 20.2929 23.2929C20.1054 23.4804 20 23.7348 20 24C20 24.2652 20.1054 24.5196 20.2929 24.7071C20.4804 24.8946 20.7348 25 21 25H25C25.2652 25 25.5196 24.8946 25.7071 24.7071C25.8946 24.5196 26 24.2652 26 24C26 23.7348 25.8946 23.4804 25.7071 23.2929C25.5196 23.1054 25.2652 23 25 23Z" fill="black"/>
</svg>
