<svg width="32" height="32" viewBox="0 0 32 32" fill="none" xmlns="http://www.w3.org/2000/svg">
<path d="M19 8.30005C18.4487 8.30005 18 8.74872 18 9.30005C18 9.85138 18.4487 10.3 19 10.3C19.5513 10.3 20 9.85138 20 9.30005C20 8.74872 19.5513 8.30005 19 8.30005ZM19 9.63338C18.816 9.63338 18.6667 9.48405 18.6667 9.30005C18.6667 9.11605 18.816 8.96672 19 8.96672C19.184 8.96672 19.3333 9.11605 19.3333 9.30005C19.3333 9.48405 19.184 9.63338 19 9.63338Z" fill="black"/>
<path d="M19 5.30005C16.7945 5.30005 15 7.09459 15 9.30005C15 11.5055 16.7945 13.3 19 13.3C21.2055 13.3 23 11.5055 23 9.30005C23 7.09459 21.2055 5.30005 19 5.30005ZM21.6811 11.1713L20.0833 10.787C19.7713 10.7095 19.4513 10.8408 19.2876 11.1142L18.428 12.5193C18.3218 12.5004 18.2171 12.4764 18.1145 12.4477L17.9836 10.7957C17.9567 10.4851 17.7353 10.2248 17.4295 10.1477L15.7618 9.74769C15.7495 9.65678 15.7411 9.56441 15.7364 9.47132L17.3229 8.81387C17.6175 8.69241 17.7967 8.39823 17.7698 8.08514L17.6309 6.33169C17.7091 6.29532 17.7891 6.26259 17.8705 6.23278L19.0105 7.5695C19.1513 7.73641 19.3538 7.82659 19.5625 7.82659C19.6567 7.82659 19.752 7.80841 19.8429 7.77059L21.4287 7.11387C21.4909 7.18296 21.5502 7.25459 21.6065 7.32878L20.7084 8.79314C20.5484 9.06078 20.576 9.4015 20.7789 9.64187L21.8527 10.9004C21.7996 10.9935 21.7425 11.0837 21.6811 11.1713ZM21.1236 11.7855C20.6124 12.223 19.9658 12.5044 19.2556 12.5597L19.9091 11.4931L21.1236 11.7855ZM21.3298 9.16914L22.0207 8.04259C22.1825 8.42987 22.2727 8.85459 22.2727 9.30005C22.2727 9.59096 22.2309 9.87132 22.1593 10.14L21.3298 9.16914ZM20.8164 6.57969L19.5644 7.09859L18.6651 6.04441C18.7753 6.03314 18.8869 6.02732 19 6.02732C19.6716 6.02732 20.2964 6.23132 20.8164 6.57969ZM16.9349 6.76405L17.0444 8.14223L15.7909 8.6615C15.9418 7.9015 16.356 7.23605 16.9349 6.76405ZM15.9756 10.5477L17.2589 10.8564L17.3596 12.1277C16.7418 11.7677 16.2516 11.2139 15.9756 10.5477Z" fill="black" stroke="black" stroke-width="0.5"/>
<path d="M24.6102 13.4173C25.7256 11.9233 26.2012 10.0471 25.9216 8.18169C25.46 5.11164 22.8847 2.63525 19.7979 2.29408C17.7742 2.07053 15.835 2.68846 14.3326 4.03353C12.8499 5.3604 12 7.26226 12 9.25046C12 10.7533 12.4905 12.2118 13.3913 13.4178C13.15 13.5806 12.9334 13.8177 12.9334 14.151C12.9334 15.7056 17.9875 15.7845 19.0007 15.7845C20.014 15.7845 25.068 15.7056 25.068 14.151C25.068 13.8177 24.8515 13.5806 24.6102 13.4173ZM19.0007 14.851C16.1916 14.851 14.4764 14.4371 13.9747 14.1552C14.0428 14.1169 14.1418 14.0688 14.286 14.0161C14.4306 13.9624 14.5394 13.8411 14.5767 13.6913C14.6145 13.5419 14.5753 13.3832 14.4727 13.2679C13.4804 12.1525 12.9334 10.7257 12.9334 9.25046C12.9334 7.52735 13.6704 5.87892 14.9552 4.72893C16.2574 3.56261 17.9427 3.02963 19.6947 3.22191C22.3685 3.51781 24.5985 5.6619 24.9975 8.3203C25.2706 10.1391 24.7488 11.8963 23.5283 13.2679C23.4256 13.3832 23.3864 13.5419 23.4242 13.6913C23.4616 13.8411 23.5703 13.9624 23.715 14.0161C23.8592 14.0688 23.9582 14.1169 24.0263 14.1552C23.5251 14.4371 21.8099 14.851 19.0007 14.851Z" fill="black" stroke="black" stroke-width="0.6"/>
<path d="M29.8331 18.624C29.4131 17.455 28.1461 16.797 26.9501 17.126L22.1311 18.449C21.7241 17.596 20.8611 17.001 19.8551 17.001H13.6731C12.4741 17.001 11.2721 17.285 10.1991 17.821L8.08506 18.878L8.04806 18.739C7.97406 18.463 7.78506 18.231 7.52806 18.103C7.27206 17.975 6.97306 17.962 6.70806 18.071L2.62606 19.717C2.11406 19.924 1.86606 20.506 2.07306 21.018C2.28006 21.531 2.86406 21.781 3.37406 21.571L6.40806 20.347L8.12306 26.737L5.53306 28.103C5.04506 28.36 4.85806 28.965 5.11606 29.454C5.29506 29.793 5.64206 29.987 6.00106 29.987C6.15806 29.987 6.31806 29.95 6.46706 29.871L9.76306 28.132C10.1761 27.914 10.3831 27.44 10.2621 26.988L10.1381 26.525L12.5751 25.337L16.6281 26.475C17.8861 26.829 19.2111 26.681 20.3591 26.058L28.6121 21.588C29.7251 21.059 30.2501 19.783 29.8331 18.624ZM27.7061 19.808L19.4081 24.301C18.7181 24.675 17.9241 24.764 17.1691 24.551L12.7491 23.311C12.5131 23.245 12.2611 23.268 12.0411 23.375L9.61006 24.56L8.61406 20.85L11.0931 19.61C11.8901 19.212 12.7821 19.001 13.6731 19.001H19.8551C20.1471 19.001 20.3831 19.238 20.3831 19.529C20.3831 19.802 20.1701 20.033 19.8981 20.056L16.2231 20.362C15.6731 20.408 15.2641 20.891 15.3091 21.442C15.3521 21.964 15.7901 22.359 16.3051 22.359C16.3331 22.359 16.3611 22.358 16.3891 22.356L20.0641 22.05C21.0191 21.97 21.8181 21.35 22.1771 20.51L27.4791 19.055C27.6751 19.005 27.8821 19.109 27.9511 19.3C28.0191 19.489 27.9331 19.698 27.7061 19.808Z" fill="black"/>
</svg>
