<svg width="30" height="30" viewBox="0 0 30 30" fill="none" xmlns="http://www.w3.org/2000/svg">
<path d="M24.9375 14.6789C24.9375 14.6664 24.95 14.6414 24.9375 14.6164L24.525 13.3539L23.1375 14.1539C22.9375 14.2664 22.7125 14.3289 22.5 14.3289C22.2875 14.3289 22.075 14.2789 21.875 14.1664L21.1625 13.7539H7.9875L9.3625 9.61641C9.5375 9.10391 10.0125 8.75391 10.55 8.75391H17.5V6.59141C17.5 6.47891 17.5125 6.35391 17.5375 6.25391H10.55C8.95 6.25391 7.5125 7.27891 6.9875 8.81641L5.0625 14.6039C5.05 14.6289 5.0625 14.6539 5.05 14.6789C4.2625 15.3664 3.75 16.3789 3.75 17.5039V20.0039C3.75 21.6414 4.8125 23.0289 6.2875 23.5289C6.2625 23.6039 6.25 23.6789 6.25 23.7539V25.0039C6.25 25.6914 7.0875 26.2539 8.125 26.2539C8.2375 26.2539 8.35 26.2414 8.45 26.2289C9.3375 26.1289 10 25.6164 10 25.0039V23.7539H20V25.0039C20 25.6914 20.8375 26.2539 21.875 26.2539C22.9125 26.2539 23.75 25.6914 23.75 25.0039V23.7539C23.75 23.6789 23.7375 23.6039 23.7125 23.5289C25.1875 23.0289 26.25 21.6414 26.25 20.0039V17.5039C26.25 16.3789 25.7375 15.3664 24.9375 14.6789Z" fill="#0453C8"/>
<path d="M8.75 21.2539C9.44036 21.2539 10 20.6943 10 20.0039C10 19.3136 9.44036 18.7539 8.75 18.7539C8.05964 18.7539 7.5 19.3136 7.5 20.0039C7.5 20.6943 8.05964 21.2539 8.75 21.2539Z" fill="#D1E7FD"/>
<path d="M21.25 21.2539C21.9404 21.2539 22.5 20.6943 22.5 20.0039C22.5 19.3136 21.9404 18.7539 21.25 18.7539C20.5596 18.7539 20 19.3136 20 20.0039C20 20.6943 20.5596 21.2539 21.25 21.2539Z" fill="#D1E7FD"/>
<path d="M27.5 6.5915V10.9165C27.5 11.3665 27.2625 11.779 26.875 12.004L24.525 13.354L23.1375 14.154C22.9375 14.2665 22.7125 14.329 22.5 14.329C22.2875 14.329 22.075 14.279 21.875 14.1665L21.1625 13.754L18.125 12.004C17.7375 11.779 17.5 11.3665 17.5 10.9165V6.5915C17.5 6.479 17.5125 6.354 17.5375 6.254C17.6375 5.9415 17.8375 5.6665 18.125 5.504L21.7625 3.404L21.875 3.3415C22.2625 3.129 22.7375 3.129 23.125 3.3415L26.875 5.504C27.2625 5.729 27.5 6.1415 27.5 6.5915Z" fill="#8DAEE1"/>
<path d="M24.8534 7.08556C25.0657 6.84791 25.0449 6.48336 24.8073 6.27109C24.5696 6.05882 24.2051 6.07959 23.9928 6.31724L21.6763 8.91061L21.0072 8.16306C20.7949 7.92541 20.4304 7.90464 20.1927 8.11691C19.9551 8.32918 19.9343 8.69373 20.1466 8.93138L21.2448 10.1612C21.3533 10.2834 21.5102 10.3527 21.6763 10.3527C21.8401 10.3527 21.997 10.2834 22.1055 10.1612L24.8534 7.08556Z" fill="#0453C8"/>
</svg>
