<svg width="32" height="32" viewBox="0 0 32 32" fill="none" xmlns="http://www.w3.org/2000/svg">
<path d="M14.6667 21.0001H17.3333C17.702 21.0001 18 20.7021 18 20.3334C18 19.9647 17.702 19.6667 17.3333 19.6667H14.6667C14.298 19.6667 14 19.9647 14 20.3334C14 20.7021 14.298 21.0001 14.6667 21.0001Z" fill="black" stroke="black" stroke-width="0.5"/>
<path d="M19.9997 21.0001H20.6663C21.035 21.0001 21.333 20.7021 21.333 20.3334C21.333 19.9647 21.035 19.6667 20.6663 19.6667H19.9997C19.631 19.6667 19.333 19.9647 19.333 20.3334C19.333 20.7021 19.631 21.0001 19.9997 21.0001Z" fill="black" stroke="black" stroke-width="0.5"/>
<path d="M11.3337 21.0001H12.0003C12.369 21.0001 12.667 20.7021 12.667 20.3334C12.667 19.9647 12.369 19.6667 12.0003 19.6667H11.3337C10.965 19.6667 10.667 19.9647 10.667 20.3334C10.667 20.7021 10.965 21.0001 11.3337 21.0001Z" fill="black" stroke="black" stroke-width="0.5"/>
<path d="M8.05733 19.396L8.81067 17.7027C8.96067 17.3667 9.354 17.214 9.69067 17.3647C10.0273 17.514 10.178 17.908 10.0293 18.2447L9.33333 19.808V22.3333H22.6667V19.808L22.0113 18.3333H13.9067C13.538 18.3333 13.24 18.0347 13.24 17.6667C13.24 17.2987 13.538 17 13.9067 17H21.4187L20.4107 14.7313C20.3033 14.4893 20.064 14.3333 19.8 14.3333H16.6267C16.258 14.3333 15.96 14.0347 15.96 13.6667C15.96 13.2987 16.258 13 16.6267 13H19.8C20.59 13 21.308 13.4667 21.6293 14.1893L22.286 15.6667H23.3333C23.702 15.6667 24 15.9653 24 16.3333C24 16.7013 23.702 17 23.3333 17H22.878L23.9427 19.396C23.9807 19.4813 24 19.5733 24 19.6667V25C24 25.7353 23.402 26.3333 22.6667 26.3333H20.6667C19.9313 26.3333 19.3333 25.7353 19.3333 25V23.6667H12.6667V25C12.6667 25.7353 12.0687 26.3333 11.3333 26.3333H9.33333C8.598 26.3333 8 25.7353 8 25V19.6667C8 19.5733 8.01933 19.4813 8.05733 19.396ZM20.6653 25H22.6667V23.6667H20.666L20.6653 25ZM11.3333 25V23.6667H9.33267L9.332 25H11.3333Z" fill="black" stroke="black" stroke-width="0.5"/>
<path d="M12.0002 16C11.7372 16 11.4813 15.896 11.2933 15.707L9.29325 13.707C8.90225 13.316 8.90225 12.684 9.29325 12.293C9.68425 11.902 10.3162 11.902 10.7072 12.293L11.7262 13.312L13.1062 10.553C13.3542 10.059 13.9552 9.85804 14.4482 10.106C14.9422 10.353 15.1423 10.954 14.8953 11.448L12.8953 15.448C12.7513 15.736 12.4783 15.936 12.1613 15.988C12.1063 15.996 12.0532 16 12.0002 16Z" fill="black"/>
<path d="M26 5H21V4C21 3.448 20.553 3 20 3H18.829C18.416 1.836 17.304 1 16 1C14.696 1 13.584 1.836 13.171 3H12C11.447 3 11 3.448 11 4V5H6C4.897 5 4 5.897 4 7V29C4 30.103 4.897 31 6 31H26C27.103 31 28 30.103 28 29V7C28 5.897 27.103 5 26 5ZM13 5H14C14.553 5 15 4.552 15 4C15 3.449 15.448 3 16 3C16.552 3 17 3.449 17 4C17 4.552 17.447 5 18 5H19V6H13V5ZM26 29H6V7H11C11 7.552 11.447 8 12 8H20C20.553 8 21 7.552 21 7H26V29Z" fill="black"/>
</svg>
