<svg width="30" height="30" viewBox="0 0 30 30" fill="none" xmlns="http://www.w3.org/2000/svg">
<g clip-path="url(#clip0_176_255)">
<path d="M27.526 22.6643C28.6905 20.5896 29.3555 18.1969 29.3555 15.6484C29.3555 7.72012 22.9283 1.29297 15 1.29297C7.07168 1.29297 0.644531 7.72012 0.644531 15.6484C0.644531 18.1969 1.30945 20.5896 2.474 22.6643H27.526Z" fill="#9BBAE9"/>
<path d="M27.5917 22.5472C27.015 20.9667 25.8455 19.5087 23.5082 19.3177C23.115 19.2855 22.9058 19.1329 22.4424 18.8716C21.2879 18.2207 20.1054 17.7354 18.8137 17.4373C18.6316 17.2552 18.4918 17.0227 18.3842 16.7654L15.0001 19.8676L11.5722 16.8632C11.4767 17.0692 11.3588 17.2563 11.2125 17.41C11.2039 17.4191 11.1955 17.4285 11.1867 17.4373C9.89211 17.7361 8.71537 18.2192 7.55803 18.8717C7.09461 19.133 6.88543 19.2856 6.49221 19.3177C4.15484 19.5088 2.98543 20.9668 2.40869 22.5473C4.84871 26.9913 9.57242 30.004 15.0002 30.004C20.428 30.004 25.1517 26.9913 27.5917 22.5472Z" fill="#0453C8"/>
<path d="M18.0475 14.947C17.7397 15.3056 17.4167 15.6054 17.108 15.8451C16.5067 16.3121 15.7645 16.5657 15.0002 16.5657C14.2359 16.5657 13.4938 16.3121 12.8925 15.8451C12.5838 15.6054 12.2608 15.3055 11.953 14.947C11.9333 15.519 11.8472 16.2698 11.5723 16.8631L15.0002 19.8675L18.3843 16.7654C18.1436 16.189 18.0661 15.4879 18.0475 14.947Z" fill="white"/>
<path d="M10.0342 8.01685L10.0332 8.01785L10.0342 8.01685Z" fill="#494970"/>
<path d="M13.961 0.0690742C10.8213 0.496867 10.5229 2.27695 10.5215 2.93003C10.5212 3.06696 10.4453 3.19394 10.3222 3.25382C8.68905 4.04829 9.56954 7.87728 9.56954 7.87728C9.73354 7.88823 9.90522 7.95462 10.0332 8.01667C10.0646 7.82156 10.1158 7.62948 10.1881 7.4438C10.2431 7.3023 10.312 7.15939 10.3981 7.02433C10.5474 6.79001 10.6154 6.51363 10.5952 6.2373C10.5365 5.43849 10.5648 3.86448 11.6191 3.39005C12.5124 2.9881 13.6082 3.22083 14.3069 3.45321C14.7607 3.60415 15.2523 3.60415 15.7061 3.45321C16.4049 3.22083 17.5006 2.9881 18.3938 3.39005C19.4452 3.86314 19.4763 5.42952 19.4183 6.23044C19.3981 6.50888 19.4643 6.78814 19.6149 7.02427C19.7037 7.16366 19.7742 7.31144 19.8302 7.45739C19.8997 7.63886 19.9492 7.8263 19.9798 8.01661C20.1411 7.93845 20.3718 7.85325 20.5692 7.88114C20.5933 7.0439 20.6706 6.14132 20.6706 6.14132C21.601 1.58448 17.3415 -0.391473 13.961 0.0690742Z" fill="#0453C8"/>
<path d="M10.0342 8.0166L10.0332 8.01761L10.0342 8.0166Z" fill="#3A3A60"/>
<path d="M20.922 7.99004C20.6775 7.76591 20.1904 7.87953 19.9798 8.01676C20.0259 8.3041 20.0285 8.598 19.9887 8.88828L19.7401 10.6984C19.7401 10.8443 19.7355 10.9875 19.7271 11.1281C20.3331 11.311 20.6341 10.7669 20.6848 10.3935C20.7066 10.2328 20.7424 10.0743 20.7918 9.91976C20.9531 9.41633 21.5347 8.55154 20.922 7.99004Z" fill="#F9BD91"/>
<path d="M20.9175 7.99004C20.6687 7.76591 20.173 7.87953 19.9588 8.01676C20.0057 8.3041 20.0084 8.598 19.9679 8.88828L19.715 10.6984C19.715 10.8443 19.7103 10.9875 19.7017 11.1281C20.3183 11.311 20.6246 10.7669 20.6762 10.3935C20.6984 10.2328 20.7347 10.0743 20.7851 9.91976C20.9491 9.41633 21.5409 8.55154 20.9175 7.99004Z" fill="white"/>
<path d="M9.08291 7.99004C9.3317 7.76591 9.82735 7.87953 10.0416 8.01676C9.99469 8.3041 9.992 8.598 10.0325 8.88828L10.2854 10.6984C10.2854 10.8443 10.2901 10.9875 10.2987 11.1281C9.68209 11.311 9.37582 10.7669 9.3242 10.3935C9.302 10.2328 9.26567 10.0743 9.21534 9.91976C9.05127 9.41633 8.45954 8.55154 9.08291 7.99004Z" fill="white"/>
<path d="M19.83 7.43681C19.7739 7.29056 19.7033 7.14244 19.6142 7.00269C19.4634 6.76603 19.3971 6.48619 19.4173 6.20711C19.4754 5.40443 19.4442 3.83453 18.3905 3.36045C17.4953 2.95761 16.3973 3.19088 15.697 3.42373C15.2422 3.57496 14.7493 3.57496 14.2946 3.42373C13.5943 3.19088 12.4962 2.95767 11.6011 3.36045C10.5444 3.83593 10.5161 5.41345 10.5749 6.21402C10.5952 6.49099 10.5271 6.76797 10.3774 7.00281C10.2911 7.13816 10.2221 7.28142 10.1669 7.42316C9.98783 7.88312 9.93568 8.38193 10.0027 8.87037L10.2519 10.6849C10.2519 13.2936 11.6443 15.0667 12.8288 15.9865C13.4471 16.4666 14.21 16.7274 14.9958 16.7274C15.7816 16.7274 16.5446 16.4666 17.1629 15.9865C18.3473 15.0667 19.7398 13.2936 19.7398 10.6849L19.9889 8.87078C20.0552 8.38715 20.0049 7.8932 19.83 7.43681Z" fill="white"/>
<path d="M11.8103 16.5811C11.749 16.5191 11.6519 16.5101 11.5803 16.5599L9.98895 17.6678C9.9065 17.7252 9.89092 17.841 9.95531 17.9181L12.4525 20.9113C12.6659 21.1672 13.0405 21.2151 13.3114 21.0213L15 19.8134L11.8103 16.5811Z" fill="#9BBAE9"/>
<path d="M14.9999 19.8132L14.2258 20.8661C14.095 21.0441 14.0244 21.2591 14.0244 21.48V25.5933C14.0244 25.7436 14.1463 25.8655 14.2966 25.8655H15.6024C15.7527 25.8655 15.8746 25.7437 15.8746 25.5933V21.8386C15.8746 21.615 15.9469 21.3974 16.0808 21.2183L16.6107 20.5095L14.9999 19.8132Z" fill="#0453C8"/>
<path d="M18.4196 16.56C18.348 16.5101 18.251 16.5191 18.1897 16.5812L15 19.8134L16.6886 21.0213C16.9596 21.2152 17.3341 21.1672 17.5475 20.9114L20.0561 17.9045C20.1143 17.8347 20.1002 17.73 20.0256 17.678L18.4196 16.56Z" fill="#9BBAE9"/>
<path d="M22.3441 25.0597L21.7446 25.3155C21.1187 25.5825 20.3882 25.2889 20.1212 24.663L19.9898 24.3551C19.7228 23.7292 20.0164 22.9987 20.6423 22.7317L21.2419 22.4759C21.8678 22.2089 22.5982 22.5025 22.8653 23.1284L22.9966 23.4363C23.2636 24.0622 22.97 24.7927 22.3441 25.0597Z" fill="white"/>
<path d="M7.49193 25.0597L8.09147 25.3155C8.7173 25.5825 9.44785 25.2889 9.71486 24.663L9.84623 24.3551C10.1132 23.7292 9.81963 22.9987 9.19373 22.7317L8.5942 22.4759C7.9683 22.2089 7.23781 22.5025 6.9708 23.1284L6.83943 23.4363C6.57242 24.0622 6.86603 24.7927 7.49193 25.0597Z" fill="white"/>
<path d="M11.0766 24.8121C12.1981 24.0594 13.5476 23.62 14.9999 23.62C16.4752 23.62 17.8441 24.0737 18.976 24.8484L20.2393 22.852C18.7417 21.8465 16.9394 21.2595 14.9999 21.2595C13.0834 21.2595 11.301 21.8329 9.81396 22.8168L11.0766 24.8121Z" fill="#9BBAE9"/>
<path d="M20.1465 22.7908L18.8555 24.7674C19.3127 25.0668 19.7334 25.4174 20.1086 25.8119C20.4533 26.1742 20.5887 26.7002 20.4336 27.1757C20.3958 27.2915 20.3754 27.4151 20.3754 27.5435C20.3754 28.0395 20.6786 28.4623 21.1052 28.6414C21.1059 28.6418 21.1067 28.6421 21.1075 28.6425C22.0283 28.2089 22.8953 27.6805 23.6964 27.0696C22.9672 25.3112 21.7211 23.8213 20.1465 22.7908Z" fill="#9BBAE9"/>
<path d="M6.30371 27.0696C7.1048 27.6805 7.97188 28.209 8.89268 28.6425C8.8932 28.6423 8.89367 28.6421 8.8942 28.6418C9.32135 28.4627 9.62457 28.0393 9.62457 27.5435C9.62457 27.4151 9.60412 27.2915 9.56639 27.1757C9.41129 26.7002 9.54676 26.1742 9.89141 25.8119C10.2666 25.4175 10.6872 25.0668 11.1445 24.7674L9.85344 22.7908C8.27896 23.8213 7.03285 25.3112 6.30371 27.0696Z" fill="#9BBAE9"/>
<path d="M15 30.0038C15.9896 30.0038 16.9556 29.9032 17.8889 29.7125C17.8495 29.3149 17.7276 28.9194 17.5151 28.5514C16.7846 27.2861 15.2393 26.7789 13.9208 27.3076C13.9164 27.3094 13.9121 27.3113 13.9078 27.3131C13.8557 27.3343 13.804 27.3572 13.7527 27.3817C13.7398 27.3878 13.727 27.3938 13.7142 27.4001C13.6583 27.4278 13.6027 27.4567 13.5479 27.4884C12.7244 27.9638 12.2217 28.7844 12.1169 29.6629C12.1149 29.6794 12.1135 29.6961 12.1118 29.7126C13.0448 29.9033 14.0106 30.0038 15 30.0038Z" fill="#9BBAE9"/>
<path d="M23.0451 23.3159L21.804 23.8454C21.1321 24.132 20.8169 24.9163 21.1035 25.5882L22.1698 28.0876C23.3778 27.3899 24.4744 26.5212 25.4271 25.5147L24.7879 24.0164C24.5013 23.3445 23.717 23.0293 23.0451 23.3159Z" fill="white"/>
<path d="M8.03203 23.8454L6.79096 23.3159C6.11906 23.0293 5.33479 23.3445 5.04814 24.0164L4.46045 25.394C5.4048 26.4147 6.49541 27.2978 7.69922 28.0102L8.73246 25.5882C9.01916 24.9163 8.70398 24.132 8.03203 23.8454Z" fill="white"/>
</g>
<defs>
<clipPath id="clip0_176_255">
<rect width="30" height="30" fill="white" transform="translate(0 0.00390625)"/>
</clipPath>
</defs>
</svg>
