<svg width="30" height="30" viewBox="0 0 30 30" fill="none" xmlns="http://www.w3.org/2000/svg">
<path d="M26.25 20.0026V12.5026C26.25 8.96635 26.25 7.2001 25.1513 6.10135C24.1913 5.14135 22.7175 5.02135 19.9988 5.00635H10.0013C7.2825 5.02135 5.80875 5.14135 4.84875 6.10135C3.75 7.2001 3.75 8.96635 3.75 12.5026V20.0026C3.75 23.5389 3.75 25.3051 4.84875 26.4039C5.9475 27.5026 7.71375 27.5026 11.25 27.5026H18.75C22.2863 27.5026 24.0525 27.5026 25.1513 26.4039C26.25 25.3051 26.25 23.5389 26.25 20.0026Z" fill="#0453C8" fill-opacity="0.4"/>
<path d="M10.0015 4.38013C10.0015 3.34513 10.8415 2.50513 11.8765 2.50513H18.1277C19.1627 2.50513 20.0027 3.34513 20.0027 4.38013V5.62888C20.0027 6.66388 19.1627 7.50388 18.1277 7.50388H11.8765C10.8415 7.50388 10.0015 6.66388 10.0015 5.62888V4.38013Z" fill="#0453C8"/>
<path fill-rule="evenodd" clip-rule="evenodd" d="M19.4363 13.1138C19.7888 13.4926 19.77 14.0851 19.3913 14.4376L14.0325 19.4401C13.6725 19.7776 13.1138 19.7776 12.7538 19.4401L10.6088 17.4413C10.23 17.0888 10.2113 16.4963 10.5638 16.1176C10.9163 15.7388 11.5088 15.7201 11.8875 16.0726L13.3913 17.4751L18.1088 13.0726C18.4875 12.7163 19.0838 12.7351 19.4363 13.1138Z" fill="#0453C8"/>
</svg>
