<svg width="32" height="32" viewBox="0 0 32 32" fill="none" xmlns="http://www.w3.org/2000/svg">
<path d="M28.328 20.875L23.592 20.085L20.129 14.891C19.757 14.333 19.135 14 18.465 14H8.721C7.859 14 7.096 14.55 6.825 15.367L5.279 20H4C2.897 20 2 20.897 2 22V25C2 26.103 2.897 27 4 27H6.051C6.296 28.692 7.742 30 9.5 30C11.258 30 12.704 28.692 12.949 27H19.05C19.295 28.692 20.741 30 22.499 30C24.257 30 25.703 28.692 25.948 27H28C29.103 27 30 26.103 30 25V22.847C30 21.865 29.297 21.035 28.328 20.875ZM9.5 28C8.673 28 8 27.327 8 26.5C8 25.673 8.673 25 9.5 25C10.327 25 11 25.673 11 26.5C11 27.327 10.327 28 9.5 28ZM22.5 28C21.673 28 21 27.327 21 26.5C21 25.673 21.673 25 22.5 25C23.327 25 24 25.673 24 26.5C24 27.327 23.327 28 22.5 28ZM28 25H25.649C25.085 23.822 23.891 23 22.5 23C21.109 23 19.915 23.822 19.351 25H12.649C12.085 23.822 10.891 23 9.5 23C8.109 23 6.915 23.822 6.351 25H4V22H6C6.431 22 6.812 21.725 6.948 21.316L8.721 16H13V20H9.5C8.947 20 8.5 20.448 8.5 21C8.5 21.552 8.947 22 9.5 22H19.5C20.053 22 20.5 21.552 20.5 21C20.5 20.448 20.053 20 19.5 20H15V16H18.465L22.168 21.555C22.321 21.785 22.563 21.941 22.836 21.987L28 22.847V25Z" fill="black"/>
<path d="M27.9734 10.77C26.5254 4.652 21.6764 1 15.0004 1C8.32437 1 3.47537 4.652 2.02737 10.77C1.93737 11.146 2.07337 11.541 2.37637 11.782C2.67837 12.023 3.09137 12.069 3.43937 11.899C5.86437 10.714 8.00637 10.704 9.99637 11.864C10.2734 12.026 10.6114 12.044 10.9064 11.914C13.6604 10.69 16.3404 10.69 19.0944 11.914C19.3904 12.045 19.7284 12.026 20.0044 11.864C21.9944 10.703 24.1374 10.714 26.5614 11.899C26.7004 11.967 26.8514 12 27.0004 12C27.2234 12 27.4434 11.926 27.6244 11.781C27.9274 11.54 28.0624 11.146 27.9734 10.77ZM4.58637 9.326C5.91137 6.146 8.49137 4.079 11.9694 3.33C10.6084 4.963 9.79637 7.01 9.57137 9.472C7.99137 8.904 6.32637 8.849 4.58637 9.326ZM11.5764 9.532C11.8554 6.737 12.9794 4.648 15.0004 3.201C17.0214 4.648 18.1454 6.737 18.4244 9.533C17.2854 9.181 16.1434 9.001 15.0004 9.001C13.8574 9.001 12.7154 9.181 11.5764 9.532ZM20.4294 9.472C20.2044 7.01 19.3924 4.963 18.0314 3.33C21.5084 4.079 24.0884 6.147 25.4144 9.326C23.6754 8.849 22.0094 8.904 20.4294 9.472Z" fill="black"/>
</svg>
