<svg width="54" height="70" viewBox="0 0 54 70" fill="none" xmlns="http://www.w3.org/2000/svg">
<path d="M44.7 32.2C44.2 34.1 43.3 35.9 42.3 37.4L28.2 56.3C27.6 57.1 26.4 57.1 25.8 56.3L11.7 37.4C10.6 35.8 9.80002 34 9.30002 32.2H0.900024C1.60002 36 3.20002 39.5 5.30002 42.5L24.5 68.2C25.7 69.8 28.1 69.8 29.3 68.2L48.5 42.5C50.7 39.5 52.2 36 52.9 32.2H44.7Z" fill="#213D66"/>
<path d="M53.1 22.9C51.1 10.2 40.1 0.6 26.9 0.6C13.7 0.6 3.10002 10 0.800025 22.4C0.500024 23.9 0.400024 25.5 0.400024 27.1H8.40002C8.40002 16.9 16.7 8.6 26.9 8.6C37.1 8.6 45.4 16.9 45.4 27.1H53.4C53.4 25.7 53.3 24.3 53.1 22.9Z" fill="#213D66"/>
<path d="M33 25.9C33.8 28 33.4 30.1 32.4 31.7L31.8 32.5L29.3 35.9C28.1 37.5 25.7 37.5 24.5 35.9L21.9 32.4L21.5 31.9C20.8 30.9 20.4 29.6 20.4 28.3C20.4 24.4 23.9 21.3 27.9 21.9C31.2139 22.2374 32.1907 23.9909 33 25.9Z" fill="#213D66"/>
</svg>
