<svg width="32" height="32" viewBox="0 0 32 32" fill="none" xmlns="http://www.w3.org/2000/svg">
<path d="M22.999 22.9911C22.491 22.9911 22.057 22.6061 22.005 22.0911C21.95 21.5411 22.352 21.0511 22.901 20.9961C23.552 20.9311 24.205 20.8521 24.86 20.7601C25.406 20.6801 25.913 21.0631 25.991 21.6101C26.068 22.1571 25.688 22.6641 25.141 22.7411C24.458 22.8381 23.779 22.9201 23.1 22.9871C23.065 22.9891 23.032 22.9911 22.999 22.9911Z" fill="black"/>
<path d="M13.0009 22.991C12.9679 22.991 12.9349 22.989 12.8999 22.986C12.2209 22.919 11.5419 22.837 10.8589 22.74C10.3119 22.663 9.93193 22.156 10.0089 21.609C10.0869 21.062 10.5939 20.683 11.1399 20.759C11.7949 20.852 12.4479 20.93 13.0989 20.995C13.6479 21.05 14.0489 21.54 13.9949 22.09C13.9429 22.606 13.5089 22.991 13.0009 22.991Z" fill="black"/>
<path d="M29.328 16.515C28.816 16.604 28.303 16.672 27.79 16.749C27.508 15.356 27.088 14.024 26.525 12.784C26.032 11.7 24.954 11 23.775 11H12.225C11.046 11 9.96802 11.7 9.47702 12.783C8.91202 14.024 8.49302 15.356 8.21102 16.749C7.69802 16.672 7.18502 16.604 6.67302 16.515C6.12102 16.425 5.61102 16.785 5.51602 17.328C5.42102 17.873 5.78602 18.39 6.32902 18.485C6.79002 18.565 7.25302 18.625 7.71502 18.696L7.20602 20.22C7.06902 20.628 7.00002 21.055 7.00002 21.487V29C7.00002 30.103 7.89702 31 9.00002 31H11C12.103 31 13 30.103 13 29V27H23V29C23 30.103 23.897 31 25 31H27C28.103 31 29 30.103 29 29V21.487C29 21.054 28.931 20.628 28.794 20.221L28.286 18.695C28.748 18.624 29.211 18.564 29.672 18.484C30.216 18.389 30.58 17.872 30.485 17.327C30.391 16.785 29.881 16.424 29.328 16.515ZM11.298 13.61C11.466 13.239 11.829 13 12.225 13H23.776C24.172 13 24.535 13.239 24.704 13.611C25.188 14.677 25.558 15.82 25.81 17.02C20.617 17.64 15.385 17.64 10.191 17.02C10.443 15.82 10.813 14.677 11.298 13.61ZM9.00002 21.487C9.00002 21.27 9.03402 21.058 9.10302 20.854L9.72702 18.98C12.485 19.32 15.255 19.5 18 19.5C20.745 19.5 23.515 19.32 26.273 18.981L26.898 20.857C26.966 21.059 27 21.271 27 21.487V25H9.00002V21.487ZM11 29H9.00002V27H11V29ZM25 29V27H27V29H25Z" fill="black"/>
<path d="M19 23H17C16.447 23 16 22.553 16 22C16 21.447 16.447 21 17 21H19C19.553 21 20 21.447 20 22C20 22.553 19.553 23 19 23Z" fill="black"/>
<path d="M7.49938 10.0001C7.29038 10.0001 7.08038 9.93509 6.90038 9.80009C6.45838 9.46909 6.36838 8.84208 6.70038 8.40008L9.70038 4.40009C10.0314 3.95909 10.6584 3.86809 11.0994 4.20009C11.5414 4.53109 11.6314 5.15809 11.2994 5.60009L8.29938 9.60009C8.10438 9.86209 7.80438 10.0001 7.49938 10.0001Z" fill="black"/>
<path d="M12 9C12 9.552 11.552 10 11 10C10.448 10 10 9.552 10 9C10 8.448 10.448 8 11 8C11.552 8 12 8.448 12 9Z" fill="black"/>
<path d="M8 5C8 5.552 7.552 6 7 6C6.448 6 6 5.552 6 5C6 4.448 6.448 4 7 4C7.552 4 8 4.448 8 5Z" fill="black"/>
<path d="M26.9138 7.406L25.9138 9.656C25.6888 10.16 25.0998 10.39 24.5938 10.163C24.0888 9.939 23.8628 9.348 24.0858 8.843L24.8948 7.024L24.1058 5.446C23.9878 5.209 23.9678 4.934 24.0518 4.682L24.6118 3H15.9998V4C15.9998 4.552 15.5528 5 14.9998 5C14.4468 5 13.9998 4.552 13.9998 4V3H4.38777L4.94877 4.684C5.03177 4.936 5.01277 5.21 4.89477 5.447L4.11777 7L4.89377 8.553C5.01277 8.79 5.03177 9.064 4.94777 9.316L4.38777 11H7.99977C8.55277 11 8.99977 11.448 8.99977 12C8.99977 12.552 8.55277 13 7.99977 13H2.99977C2.67877 13 2.37677 12.846 2.18777 12.584C1.99977 12.323 1.94877 11.988 2.05077 11.683L2.91977 9.077L2.10477 7.447C1.96377 7.165 1.96377 6.834 2.10477 6.552L2.91977 4.923L2.05177 2.316C1.94877 2.011 2.00077 1.676 2.18877 1.415C2.37677 1.154 2.67877 1 2.99977 1H25.9998C26.3208 1 26.6228 1.154 26.8118 1.416C26.9998 1.677 27.0508 2.012 26.9488 2.317L26.0798 4.923L26.8938 6.552C27.0278 6.82 27.0348 7.133 26.9138 7.406Z" fill="black"/>
<path d="M15 9.5C14.447 9.5 14 9.052 14 8.5V7.5C14 6.948 14.447 6.5 15 6.5C15.553 6.5 16 6.948 16 7.5V8.5C16 9.052 15.553 9.5 15 9.5Z" fill="black"/>
<path d="M21.3026 3.83089L20.6876 6.28289H22.2636C22.4646 6.28289 22.5726 6.51989 22.4426 6.67289L19.2576 10.4069C19.0806 10.6139 18.7456 10.4499 18.7986 10.1819L19.2966 7.68089H17.7356C17.5326 7.68089 17.4246 7.43889 17.5606 7.28689L20.8516 3.58989C21.0346 3.38289 21.3706 3.56289 21.3026 3.83089Z" fill="black"/>
</svg>
