<svg width="32" height="32" viewBox="0 0 32 32" fill="none" xmlns="http://www.w3.org/2000/svg">
<path d="M28.329 20.875L25.081 20.334L27.707 17.708C28.098 17.317 28.098 16.685 27.707 16.294C27.316 15.903 26.684 15.903 26.293 16.294L23.155 19.432L20.128 14.892C19.757 14.333 19.135 14 18.465 14H8.721C7.859 14 7.096 14.549 6.824 15.367L5.279 20H4C2.897 20 2 20.897 2 22V25C2 26.103 2.897 27 4 27H6.051C6.296 28.692 7.742 30 9.5 30C11.258 30 12.704 28.692 12.949 27H19.05C19.295 28.692 20.741 30 22.499 30C24.257 30 25.703 28.692 25.948 27H28C29.103 27 30 26.103 30 25V22.847C30 21.865 29.297 21.035 28.329 20.875ZM9.5 28C8.673 28 8 27.327 8 26.5C8 25.673 8.673 25 9.5 25C10.327 25 11 25.673 11 26.5C11 27.327 10.327 28 9.5 28ZM22.5 28C21.673 28 21 27.327 21 26.5C21 25.673 21.673 25 22.5 25C23.327 25 24 25.673 24 26.5C24 27.327 23.327 28 22.5 28ZM28 25H25.649C25.085 23.822 23.891 23 22.5 23C21.109 23 19.915 23.822 19.351 25H12.649C12.085 23.822 10.891 23 9.5 23C8.109 23 6.915 23.822 6.351 25H4V22H6C6.431 22 6.812 21.725 6.949 21.316L8.721 16H13V20H9.5C8.948 20 8.5 20.448 8.5 21C8.5 21.552 8.948 22 9.5 22H19.5C20.052 22 20.5 21.552 20.5 21C20.5 20.448 20.052 20 19.5 20H15V16H18.465L22.168 21.555C22.321 21.785 22.563 21.941 22.835 21.987L28 22.847V25Z" fill="black"/>
<path d="M23.297 12C21.734 12 20.256 11.246 19.318 10H7C5.346 10 4 8.654 4 7C4 5.346 5.346 4 7 4H19.317C20.256 2.754 21.733 2 23.296 2C25.339 2 27.156 3.227 27.926 5.125C28.051 5.433 28.014 5.783 27.829 6.059C27.644 6.334 27.333 6.5 27 6.5H24.221L24.054 7L24.221 7.5H27C27.333 7.5 27.644 7.666 27.83 7.941C28.016 8.217 28.052 8.567 27.927 8.875C27.157 10.773 25.34 12 23.297 12ZM7 6C6.449 6 6 6.449 6 7C6 7.551 6.449 8 7 8H19.852C20.208 8 20.537 8.189 20.716 8.497C21.264 9.438 22.229 10 23.297 10C23.903 10 24.476 9.82 24.956 9.5H23.5C23.069 9.5 22.687 9.225 22.551 8.816L22.051 7.316C21.983 7.11 21.983 6.889 22.051 6.683L22.551 5.183C22.687 4.775 23.069 4.5 23.5 4.5H24.956C24.476 4.18 23.903 4 23.297 4C22.229 4 21.264 4.562 20.716 5.503C20.537 5.811 20.208 6 19.852 6H7Z" fill="black"/>
</svg>
