<svg width="60" height="60" viewBox="0 0 60 60" fill="none" xmlns="http://www.w3.org/2000/svg">
<path d="M50.0002 47.9998H42C41.4696 47.9998 40.9609 48.2105 40.5858 48.5856C40.2107 48.9606 40 49.4694 40 49.9998V53.9999C40 55.0608 40.4214 56.0782 41.1716 56.8283C41.9218 57.5785 42.9392 57.9999 44.0001 57.9999H48.0001C49.061 57.9999 50.0785 57.5785 50.8286 56.8283C51.5788 56.0782 52.0002 55.0608 52.0002 53.9999V49.9998C52.0002 49.4694 51.7895 48.9606 51.4144 48.5856C51.0393 48.2105 50.5306 47.9998 50.0002 47.9998Z" fill="#8DAEE1"/>
<path d="M18.0002 47.9998H10C9.46959 47.9998 8.96088 48.2105 8.5858 48.5856C8.21072 48.9606 8 49.4694 8 49.9998V53.9999C8 55.0608 8.42144 56.0782 9.17159 56.8283C9.92175 57.5785 10.9392 57.9999 12.0001 57.9999H16.0001C17.061 57.9999 18.0785 57.5785 18.8286 56.8283C19.5788 56.0782 20.0002 55.0608 20.0002 53.9999V49.9998C20.0002 49.4694 19.7895 48.9606 19.4144 48.5856C19.0393 48.2105 18.5306 47.9998 18.0002 47.9998Z" fill="#8DAEE1"/>
<path d="M52.0002 35.9996H46C45.4696 35.9996 44.9609 35.7889 44.5858 35.4138C44.2107 35.0387 44 34.53 44 33.9995C44 33.4691 44.2107 32.9604 44.5858 32.5853C44.9609 32.2102 45.4696 31.9995 46 31.9995H52.0002C52.5306 31.9995 53.0393 32.2102 53.4144 32.5853C53.7895 32.9604 54.0002 33.4691 54.0002 33.9995C54.0002 34.53 53.7895 35.0387 53.4144 35.4138C53.0393 35.7889 52.5306 35.9996 52.0002 35.9996Z" fill="#0453C8"/>
<path d="M14.0002 35.9996H8.00004C7.46959 35.9996 6.96088 35.7889 6.5858 35.4138C6.21072 35.0387 6 34.53 6 33.9995C6 33.4691 6.21072 32.9604 6.5858 32.5853C6.96088 32.2102 7.46959 31.9995 8.00004 31.9995H14.0002C14.5306 31.9995 15.0393 32.2102 15.4144 32.5853C15.7895 32.9604 16.0002 33.4691 16.0002 33.9995C16.0002 34.53 15.7895 35.0387 15.4144 35.4138C15.0393 35.7889 14.5306 35.9996 14.0002 35.9996Z" fill="#0453C8"/>
<path d="M52.8009 39.7336L47.7108 32.9455L44.8967 27.3154C44.4013 26.3161 43.6358 25.4758 42.6869 24.8896C41.7381 24.3035 40.6439 23.995 39.5286 23.9993H20.4723C19.3573 23.9954 18.2636 24.304 17.3151 24.8902C16.3667 25.4763 15.6014 26.3164 15.1062 27.3154L12.2921 32.9455L7.20002 39.7316C6.42365 40.7715 6.00286 42.0339 6 43.3317V47.9998C6 49.0606 6.42144 50.0781 7.17159 50.8282C7.92175 51.5784 8.93919 51.9998 10.0001 51.9998H50.0008C51.0617 51.9998 52.0791 51.5784 52.8293 50.8282C53.5795 50.0781 54.0009 49.0606 54.0009 47.9998V43.3337C53.9987 42.0358 53.5779 40.7732 52.8009 39.7336ZM15.8002 34.8935L18.6942 29.1054C18.8595 28.7748 19.1131 28.4964 19.4269 28.3011C19.7408 28.1059 20.1026 28.0014 20.4723 27.9994H39.5286C39.9 27.9996 40.2639 28.1032 40.5797 28.2985C40.8955 28.4938 41.1507 28.7732 41.3167 29.1054L44.2107 34.8935C44.2655 35.0006 44.329 35.103 44.4007 35.1995L44.4667 35.2855L43.8987 35.6635C43.5737 35.8811 43.1918 35.998 42.8007 35.9995H17.2102C16.8157 36 16.43 35.883 16.1022 35.6635L15.5342 35.2855L15.6002 35.1995C15.6753 35.1033 15.7422 35.001 15.8002 34.8935Z" fill="#0453C8"/>
<path d="M46.0001 47.9999C47.6569 47.9999 49.0001 46.6567 49.0001 44.9998C49.0001 43.3429 47.6569 41.9998 46.0001 41.9998C44.3432 41.9998 43 43.3429 43 44.9998C43 46.6567 44.3432 47.9999 46.0001 47.9999Z" fill="#E8EBF1"/>
<path d="M14.0001 47.9999C15.6569 47.9999 17.0001 46.6567 17.0001 44.9998C17.0001 43.3429 15.6569 41.9998 14.0001 41.9998C12.3432 41.9998 11 43.3429 11 44.9998C11 46.6567 12.3432 47.9999 14.0001 47.9999Z" fill="#E8EBF1"/>
<path d="M25.9609 17.9993C24.7782 19.5757 23.1561 20.7676 21.2983 21.4252C19.4405 22.0828 17.4298 22.1767 15.5187 21.6953C14.1224 21.3451 12.8194 20.6942 11.7008 19.7881C10.5822 18.8819 9.67501 17.7424 9.04259 16.4492C8.96509 16.2955 8.92859 16.1243 8.93664 15.9523C8.94469 15.7803 8.99701 15.6133 9.08854 15.4675C9.18006 15.3216 9.3077 15.2019 9.45908 15.1199C9.61046 15.0378 9.78045 14.9963 9.95261 14.9992H14.5787C14.9298 14.9992 15.2747 14.9068 15.5787 14.7312C15.8827 14.5557 16.1352 14.3032 16.3107 13.9992L16.8867 12.9992C17.0623 12.6951 17.1547 12.3502 17.1547 11.9991C17.1547 11.6481 17.0623 11.3032 16.8867 10.9991L16.3107 9.9991C16.1352 9.69507 15.8827 9.44259 15.5787 9.26705C15.2747 9.09151 14.9298 8.99909 14.5787 8.99908H9.95261C9.78127 9.00149 9.6122 8.95982 9.46159 8.87809C9.31099 8.79636 9.18391 8.6773 9.09256 8.53233C9.0012 8.38736 8.94862 8.22135 8.93987 8.05022C8.93113 7.87909 8.9665 7.70858 9.04259 7.55506C9.67365 6.26025 10.5803 5.11918 11.6991 4.21189C12.8178 3.3046 14.1215 2.65306 15.5187 2.30296C17.4298 1.82154 19.4405 1.91553 21.2983 2.57311C23.1561 3.2307 24.7782 4.42257 25.9609 5.99903H45.7613C47.1777 5.97369 48.5596 6.43719 49.6744 7.31147C50.7891 8.18576 51.5685 9.41743 51.8814 10.7991C52.0575 11.6708 52.0379 12.5706 51.8242 13.4338C51.6104 14.297 51.2078 15.102 50.6453 15.7908C50.0828 16.4795 49.3745 17.0349 48.5714 17.4168C47.7684 17.7987 46.8905 17.9976 46.0013 17.9993H25.9609Z" fill="#8DAEE1"/>
</svg>
