<svg width="60" height="60" viewBox="0 0 60 60" fill="none" xmlns="http://www.w3.org/2000/svg">
<path d="M49.875 29.35C49.875 29.325 49.9 29.275 49.875 29.225L49.05 26.7L46.275 28.3C45.875 28.525 45.425 28.65 45 28.65C44.575 28.65 44.15 28.55 43.75 28.325L42.325 27.5H15.975L18.725 19.225C19.075 18.2 20.025 17.5 21.1 17.5H35V13.175C35 12.95 35.025 12.7 35.075 12.5H21.1C17.9 12.5 15.025 14.55 13.975 17.625L10.125 29.2C10.1 29.25 10.125 29.3 10.1 29.35C8.525 30.725 7.5 32.75 7.5 35V40C7.5 43.275 9.625 46.05 12.575 47.05C12.525 47.2 12.5 47.35 12.5 47.5V50C12.5 51.375 14.175 52.5 16.25 52.5C16.475 52.5 16.7 52.475 16.9 52.45C18.675 52.25 20 51.225 20 50V47.5H40V50C40 51.375 41.675 52.5 43.75 52.5C45.825 52.5 47.5 51.375 47.5 50V47.5C47.5 47.35 47.475 47.2 47.425 47.05C50.375 46.05 52.5 43.275 52.5 40V35C52.5 32.75 51.475 30.725 49.875 29.35Z" fill="#0453C8"/>
<path d="M17.5 42.5C18.8807 42.5 20 41.3807 20 40C20 38.6193 18.8807 37.5 17.5 37.5C16.1193 37.5 15 38.6193 15 40C15 41.3807 16.1193 42.5 17.5 42.5Z" fill="#D1E7FD"/>
<path d="M42.5 42.5C43.8807 42.5 45 41.3807 45 40C45 38.6193 43.8807 37.5 42.5 37.5C41.1193 37.5 40 38.6193 40 40C40 41.3807 41.1193 42.5 42.5 42.5Z" fill="#D1E7FD"/>
<path d="M55 13.175V21.825C55 22.725 54.525 23.55 53.75 24L49.05 26.7L46.275 28.2999C45.875 28.525 45.425 28.65 45 28.65C44.575 28.65 44.15 28.5499 43.75 28.3249L42.325 27.5L36.25 24C35.475 23.55 35 22.725 35 21.825V13.175C35 12.95 35.025 12.7 35.075 12.5C35.275 11.875 35.675 11.325 36.25 11L43.525 6.79995L43.75 6.67495C44.525 6.24995 45.475 6.24995 46.25 6.67495L53.75 11C54.525 11.45 55 12.275 55 13.175Z" fill="#8DAEE1"/>
<path d="M48.7655 15.6583C49.1051 15.278 49.0719 14.6948 48.6916 14.3551C48.3114 14.0155 47.7281 14.0487 47.3885 14.429L43.6821 18.5784L42.6115 17.3823C42.2719 17.002 41.6886 16.9688 41.3084 17.3084C40.9281 17.6481 40.8949 18.2314 41.2345 18.6116L42.9917 20.5792C43.1653 20.7749 43.4163 20.8856 43.6821 20.8856C43.9442 20.8856 44.1952 20.7749 44.3687 20.5792L48.7655 15.6583Z" fill="#0453C8"/>
</svg>
