<svg width="60" height="60" viewBox="0 0 60 60" fill="none" xmlns="http://www.w3.org/2000/svg">
<path d="M30 37.5C34.1423 37.5 37.5 34.1423 37.5 30C37.5 25.8577 34.1423 22.5 30 22.5C25.8577 22.5 22.5 25.8577 22.5 30C22.5 34.1423 25.8577 37.5 30 37.5Z" fill="#8DAEE1"/>
<path fill-rule="evenodd" clip-rule="evenodd" d="M55 30C55 43.807 43.807 55 30 55C16.1929 55 5 43.807 5 30C5 16.1929 16.1929 5 30 5C43.807 5 55 16.1929 55 30ZM30 45C38.2842 45 45 38.2842 45 30C45 21.7157 38.2842 15 30 15C21.7157 15 15 21.7157 15 30C15 38.2842 21.7157 45 30 45ZM37.5 30C37.5 34.1423 34.1423 37.5 30 37.5C25.8577 37.5 22.5 34.1423 22.5 30C22.5 25.8577 25.8577 22.5 30 22.5C34.1423 22.5 37.5 25.8577 37.5 30Z" fill="#8DAEE1"/>
<path d="M24.1796 43.8296L27.9909 37.2283C26.7494 36.8841 25.6374 36.2288 24.7443 35.3516L20.9336 41.9518C21.9261 42.7058 23.0154 43.3391 24.1796 43.8296Z" fill="#0453C8"/>
<path d="M15.116 31.8748H22.7361C22.582 31.2755 22.5 30.6475 22.5 30.0003C22.5 29.3525 22.5821 28.724 22.7364 28.1248H15.1161C15.0395 28.739 15 29.365 15 30.0003C15 30.635 15.0394 31.2605 15.116 31.8748Z" fill="#0453C8"/>
<path d="M20.9355 18.0483L24.7462 24.6486C25.6396 23.7714 26.7516 23.116 27.9928 22.7719L24.1816 16.1707C23.0174 16.6611 21.9281 17.2943 20.9355 18.0483Z" fill="#0453C8"/>
<path d="M32.0078 22.7719L35.8191 16.1707C36.9833 16.6611 38.0728 17.2943 39.0653 18.0483L35.2546 24.6485C34.3613 23.7713 33.2493 23.116 32.0078 22.7719Z" fill="#0453C8"/>
<path d="M37.2639 31.8748C37.4182 31.2755 37.5002 30.6475 37.5002 30.0003C37.5002 29.3525 37.4182 28.724 37.2637 28.1248H44.8842C44.9607 28.739 45.0002 29.365 45.0002 30.0003C45.0002 30.635 44.9607 31.2605 44.8842 31.8748H37.2639Z" fill="#0453C8"/>
<path d="M32.0078 37.2283C33.2493 36.8841 34.3611 36.2286 35.2543 35.3513L39.0651 41.9516C38.0726 42.7056 36.9833 43.3388 35.8191 43.8293L32.0078 37.2283Z" fill="#0453C8"/>
</svg>
