<svg width="60" height="60" viewBox="0 0 60 60" fill="none" xmlns="http://www.w3.org/2000/svg">
<path d="M5.00164 24.9976C5.00164 15.5701 5.00164 10.8526 7.93414 7.92762C10.8666 4.99512 15.5766 4.99512 25.0041 4.99512H29.9991C39.4266 4.99512 44.1441 4.99512 47.0691 7.92762C50.0016 10.8601 50.0016 15.5701 50.0016 24.9976V34.9951C50.0016 44.4226 50.0016 49.1401 47.0691 52.0651C44.1441 54.9976 39.4266 54.9976 29.9991 54.9976H24.9966C15.5691 54.9976 10.8516 54.9976 7.92664 52.0651C4.99414 49.1401 4.99414 44.4226 4.99414 34.9951V24.9976H5.00164Z" fill="#0453C8" fill-opacity="0.4"/>
<path d="M38.7957 41.2501C39.2307 40.9051 39.6282 40.5151 40.4232 39.7201L50.3157 29.8276C50.5557 29.5876 50.4432 29.1751 50.1282 29.0626C48.9582 28.6576 47.4432 27.9001 46.0182 26.4751C44.6007 25.0576 43.8357 23.5351 43.4307 22.3651C43.3182 22.0426 42.9057 21.9376 42.6657 22.1776L32.7732 32.0776C31.9782 32.8726 31.5807 33.2701 31.2432 33.7051C30.8382 34.2226 30.4932 34.7776 30.2157 35.3701C29.9757 35.8726 29.8032 36.4051 29.4432 37.4701L28.9857 38.8426L28.2582 41.0326L27.5757 43.0801C27.4032 43.6051 27.5382 44.1826 27.9282 44.5726C28.3182 44.9626 28.8957 45.0976 29.4207 44.9251L31.4682 44.2426L33.6582 43.5151L35.0307 43.0576C36.0957 42.7051 36.6282 42.5251 37.1307 42.2851C37.7232 42.0001 38.2782 41.6551 38.7957 41.2501Z" fill="#0453C8"/>
<path d="M53.4134 26.7301C55.5284 24.6151 55.5284 21.1951 53.4134 19.0801C51.2984 16.9651 47.8784 16.9651 45.7634 19.0801L45.4484 19.3951C45.1409 19.7026 45.0059 20.1301 45.0809 20.5576C45.1259 20.8276 45.2159 21.2176 45.3809 21.6901C45.7034 22.6276 46.3184 23.8576 47.4809 25.0126C48.6359 26.1676 49.8659 26.7826 50.8034 27.1126C51.2759 27.2776 51.6659 27.3676 51.9359 27.4126C52.3634 27.4876 52.7909 27.3526 53.0984 27.0451L53.4134 26.7301Z" fill="#0453C8"/>
<path fill-rule="evenodd" clip-rule="evenodd" d="M15.6211 22.5002C15.6211 21.4652 16.4611 20.6252 17.4961 20.6252H33.7486C34.7836 20.6252 35.6236 21.4652 35.6236 22.5002C35.6236 23.5352 34.7836 24.3752 33.7486 24.3752H17.4961C16.4611 24.3752 15.6211 23.5352 15.6211 22.5002ZM15.6211 32.4977C15.6211 31.4627 16.4611 30.6227 17.4961 30.6227H24.9961C26.0311 30.6227 26.8711 31.4627 26.8711 32.4977C26.8711 33.5327 26.0311 34.3727 24.9961 34.3727H17.4961C16.4611 34.3727 15.6211 33.5327 15.6211 32.4977ZM15.6211 42.5027C15.6211 41.4677 16.4611 40.6277 17.4961 40.6277H21.2461C22.2811 40.6277 23.1211 41.4677 23.1211 42.5027C23.1211 43.5377 22.2811 44.3777 21.2461 44.3777H17.4961C16.4611 44.3777 15.6211 43.5377 15.6211 42.5027Z" fill="#0453C8"/>
</svg>
