<svg width="60" height="60" viewBox="0 0 60 60" fill="none" xmlns="http://www.w3.org/2000/svg">
<circle cx="33" cy="27" r="25" fill="#8DAEE1"/>
<path fill-rule="evenodd" clip-rule="evenodd" d="M33.851 38.6764C31.5548 39.7942 29.5669 40.7647 24.3969 35.5969C19.2292 30.4291 20.1955 28.4443 21.3161 26.1467C22.9382 22.8165 23.5939 19.7876 16.2266 13.7228C14.4665 12.2854 12.5568 11.7334 10.562 12.1198C6.34456 12.9086 3.36499 17.6004 3.36959 17.6004C1.50132 20.213 -1.05721 28.0694 15.4328 44.5549C26.279 55.3988 33.3931 58 37.7095 58C39.9551 58 41.4437 57.2962 42.3042 56.6776C42.3503 56.65 47.0854 53.7176 47.8861 49.4192C48.2588 47.4206 47.7158 45.5186 46.2755 43.7592C40.2105 36.4019 37.1803 37.055 33.851 38.6764Z" fill="#0453C8"/>
<path d="M35.8766 29H31.4099C30.6766 29 29.9932 28.65 29.5599 28.05C29.1432 27.4833 29.0432 26.7835 29.2432 26.1168C29.8266 24.3334 31.2599 23.3666 32.5266 22.4999C33.8599 21.5999 34.6099 21.0334 34.6099 20.0667C34.6099 19.2 33.9099 18.5 33.0432 18.5C32.1766 18.5 31.4766 19.2 31.4766 20.0667C31.4766 20.75 30.9099 21.3167 30.2266 21.3167C29.5432 21.3167 28.9766 20.75 28.9766 20.0667C28.9766 17.8333 30.7932 16 33.0432 16C35.2933 16 37.11 17.8167 37.11 20.0667C37.11 22.4168 35.3433 23.6166 33.9266 24.5833C33.0433 25.1833 32.2099 25.7499 31.7932 26.5H35.86C36.5433 26.5 37.11 27.0666 37.11 27.75C37.11 28.4333 36.56 29 35.8766 29Z" fill="#0453C8"/>
<path d="M45.3097 28.9998C44.6264 28.9998 44.0597 28.4331 44.0597 27.7498V26.5998H40.793C40.793 26.5998 40.793 26.5998 40.7763 26.5998C39.9596 26.5998 39.2096 26.1666 38.793 25.4666C38.3763 24.7499 38.3763 23.8664 38.793 23.1664C39.9263 21.2165 41.243 18.9998 42.443 17.0664C42.9763 16.2164 43.993 15.8332 44.943 16.0998C45.893 16.3832 46.5597 17.2498 46.543 18.2498V24.1166H46.9097C47.593 24.1166 48.1597 24.6833 48.1597 25.3666C48.1597 26.0499 47.593 26.6166 46.9097 26.6166H46.5597V27.7666C46.5597 28.45 46.0097 28.9998 45.3097 28.9998ZM44.0597 19.2165C43.0763 20.8165 42.0597 22.5331 41.143 24.0998H44.0597V19.2165Z" fill="#0453C8"/>
</svg>
