<svg width="60" height="60" viewBox="0 0 60 60" fill="none" xmlns="http://www.w3.org/2000/svg">
<path d="M8.445 12.7049C7.5 14.0474 7.5 18.0449 7.5 26.0399V29.9774C7.5 44.0699 18.0975 50.9099 24.75 53.8199C26.55 54.6074 27.4575 55.0049 30 55.0049C32.5425 55.0049 33.45 54.6074 35.25 53.8199C41.9025 50.9174 52.5 44.0774 52.5 29.9774V26.0399C52.5 18.0449 52.5 14.0474 51.555 12.7049C50.61 11.3624 46.8525 10.0724 39.3375 7.49994L37.905 7.01244C33.99 5.66994 32.025 5.00244 30 5.00244C27.975 5.00244 26.01 5.66994 22.095 7.01244L20.6625 7.49994C13.1475 10.0724 9.39 11.3624 8.445 12.7049Z" fill="#0453C8" fill-opacity="0.4"/>
<path d="M37.6495 26.2499C38.3395 25.4774 38.272 24.2924 37.4995 23.6024C36.727 22.9124 35.542 22.9799 34.852 23.7524L27.322 32.1824L25.147 29.7524C24.457 28.9799 23.272 28.9124 22.4995 29.6024C21.727 30.2924 21.6595 31.4774 22.3495 32.2499L25.9195 36.2474C26.272 36.6449 26.782 36.8699 27.322 36.8699C27.8545 36.8699 28.3645 36.6449 28.717 36.2474L37.6495 26.2499Z" fill="#0453C8"/>
</svg>
