<svg width="60" height="60" viewBox="0 0 60 60" fill="none" xmlns="http://www.w3.org/2000/svg">
<path d="M52.5 39.9974V24.9974C52.5 17.9249 52.5 14.3924 50.3025 12.1949C48.3825 10.2749 45.435 10.0349 39.9975 10.0049H20.0025C14.565 10.0349 11.6175 10.2749 9.6975 12.1949C7.5 14.3924 7.5 17.9249 7.5 24.9974V39.9974C7.5 47.0699 7.5 50.6024 9.6975 52.7999C11.895 54.9974 15.4275 54.9974 22.5 54.9974H37.5C44.5725 54.9974 48.105 54.9974 50.3025 52.7999C52.5 50.6024 52.5 47.0699 52.5 39.9974Z" fill="#0453C8" fill-opacity="0.4"/>
<path d="M20.002 8.75244C20.002 6.68244 21.682 5.00244 23.752 5.00244H36.2544C38.3245 5.00244 40.0045 6.68244 40.0045 8.75244V11.2499C40.0045 13.3199 38.3245 14.9999 36.2544 14.9999H23.752C21.682 14.9999 20.002 13.3199 20.002 11.2499V8.75244Z" fill="#0453C8"/>
<path fill-rule="evenodd" clip-rule="evenodd" d="M38.8725 26.2199C39.5775 26.9774 39.54 28.1624 38.7825 28.8674L28.065 38.8724C27.345 39.5474 26.2275 39.5474 25.5075 38.8724L21.2175 34.8749C20.46 34.1699 20.4225 32.9849 21.1275 32.2274C21.8325 31.4699 23.0175 31.4324 23.775 32.1374L26.7825 34.9424L36.2175 26.1374C36.975 25.4249 38.1675 25.4624 38.8725 26.2199Z" fill="#0453C8"/>
</svg>
