<svg width="60" height="60" viewBox="0 0 60 60" fill="none" xmlns="http://www.w3.org/2000/svg">
<path d="M53.0781 58H6.92188C4.20795 58 2 55.792 2 53.0781V14.5781C2 11.8642 4.20795 9.65625 6.92188 9.65625H53.0781C55.792 9.65625 58 11.8642 58 14.5781V53.0781C58 55.792 55.792 58 53.0781 58Z" fill="#8DAEE1"/>
<path d="M34.9219 6.92188V9.65625H31.6406V6.92188C31.6406 6.01723 30.9046 5.28125 30 5.28125C29.0954 5.28125 28.3594 6.01723 28.3594 6.92188V13.4844C28.3594 14.389 29.0954 15.125 30 15.125C30.9061 15.125 31.6406 15.8596 31.6406 16.7656C31.6406 17.6717 30.9061 18.4062 30 18.4062C27.2861 18.4062 25.0781 16.1983 25.0781 13.4844V6.92188C25.0781 4.20795 27.2861 2 30 2C32.7139 2 34.9219 4.20795 34.9219 6.92188ZM46.4062 2C43.6923 2 41.4844 4.20795 41.4844 6.92188V13.4844C41.4844 16.1983 43.6923 18.4062 46.4062 18.4062C47.3123 18.4062 48.0469 17.6717 48.0469 16.7656C48.0469 15.8596 47.3123 15.125 46.4062 15.125C45.5016 15.125 44.7656 14.389 44.7656 13.4844V6.92188C44.7656 6.01723 45.5016 5.28125 46.4062 5.28125C47.3109 5.28125 48.0469 6.01723 48.0469 6.92188V9.65625H51.3281V6.92188C51.3281 4.20795 49.1202 2 46.4062 2ZM13.5938 2C10.8798 2 8.67188 4.20795 8.67188 6.92188V13.4844C8.67188 16.1983 10.8798 18.4062 13.5938 18.4062C14.4998 18.4062 15.2344 17.6717 15.2344 16.7656C15.2344 15.8596 14.4998 15.125 13.5938 15.125C12.6891 15.125 11.9531 14.389 11.9531 13.4844V6.92188C11.9531 6.01723 12.6891 5.28125 13.5938 5.28125C14.4984 5.28125 15.2344 6.01723 15.2344 6.92188V9.65625H18.5156V6.92188C18.5156 4.20795 16.3077 2 13.5938 2ZM48.0469 40.5V47.0625C48.0469 47.9686 47.3123 48.7031 46.4062 48.7031H44.7656V50.8906C44.7656 51.7967 44.0311 52.5312 43.125 52.5312C42.2189 52.5312 41.4844 51.7967 41.4844 50.8906V48.7031H18.5156V50.8906C18.5156 51.7967 17.7811 52.5312 16.875 52.5312C15.9689 52.5312 15.2344 51.7967 15.2344 50.8906V48.7031H13.5938C12.6877 48.7031 11.9531 47.9686 11.9531 47.0625V40.5C11.9531 38.7579 12.8638 37.2253 14.2333 36.3504L12.4336 34.5508C11.7929 33.91 11.7929 32.8713 12.4336 32.2306C13.0743 31.5899 14.1131 31.5899 14.7538 32.2306L16.8953 34.3722L18.7879 27.4329C19.4998 24.8228 21.8863 23 24.5916 23H35.4084C38.1137 23 40.5002 24.8228 41.212 27.4328L43.1045 34.372L45.2461 32.2305C45.8868 31.5898 46.9256 31.5898 47.5663 32.2305C48.207 32.8712 48.207 33.9099 47.5663 34.5507L45.7666 36.3503C47.1362 37.2253 48.0469 38.7578 48.0469 40.5ZM40.0323 35.5781L38.0463 28.2962C37.7229 27.1098 36.6381 26.2812 35.4084 26.2812H24.5916C23.3619 26.2812 22.2771 27.1098 21.9536 28.2962L19.9677 35.5781H40.0323Z" fill="#0453C8"/>
</svg>
