<svg width="24" height="24" viewBox="0 0 24 24" fill="none" xmlns="http://www.w3.org/2000/svg">
<path d="M19.0006 19.0001V13.8726C19.0006 11.3526 18.4581 9.42761 15.5181 9.42761C14.1006 9.42761 13.1556 10.1976 12.7706 10.9326H12.7356V9.65511H9.95312V19.0001H12.8581V14.3626C12.8581 13.1376 13.0856 11.9651 14.5906 11.9651C16.0781 11.9651 16.0956 13.3476 16.0956 14.4326V18.9826H19.0006V19.0001Z" fill="#0453C8"/>
<path d="M5.22656 9.65515H8.13154V19.0001H5.22656V9.65515Z" fill="#0453C8"/>
<path d="M6.67999 4.99988C5.7525 4.99988 5 5.75237 5 6.67987C5 7.60736 5.7525 8.37736 6.67999 8.37736C7.60748 8.37736 8.35998 7.60736 8.35998 6.67987C8.35998 5.75237 7.60748 4.99988 6.67999 4.99988Z" fill="#0453C8"/>
</svg>
