<svg width="24" height="24" viewBox="0 0 24 24" fill="none" xmlns="http://www.w3.org/2000/svg">
<path d="M19.0006 19.0002V13.8727C19.0006 11.3527 18.4581 9.42773 15.5181 9.42773C14.1006 9.42773 13.1556 10.1977 12.7706 10.9327H12.7356V9.65523H9.95312V19.0002H12.8581V14.3627C12.8581 13.1377 13.0856 11.9652 14.5906 11.9652C16.0781 11.9652 16.0956 13.3477 16.0956 14.4327V18.9827H19.0006V19.0002Z" fill="white"/>
<path d="M5.22656 9.65527H8.13154V19.0002H5.22656V9.65527Z" fill="white"/>
<path d="M6.67999 5C5.7525 5 5 5.7525 5 6.67999C5 7.60748 5.7525 8.37748 6.67999 8.37748C7.60748 8.37748 8.35998 7.60748 8.35998 6.67999C8.35998 5.7525 7.60748 5 6.67999 5Z" fill="white"/>
</svg>
