<svg width="24" height="24" viewBox="0 0 24 24" fill="none" xmlns="http://www.w3.org/2000/svg">
<path d="M15.012 3.99001H9.00449C8.09669 3.99001 7.25297 4.21963 6.47333 4.67887C5.71505 5.11675 5.11697 5.71483 4.67909 6.47311C4.21985 7.24207 3.99023 8.08045 3.99023 8.98825V14.9957C3.99023 15.9035 4.21985 16.7473 4.67909 17.5269C5.11697 18.2852 5.71505 18.8833 6.47333 19.3211C7.25297 19.7804 8.09669 20.01 9.00449 20.01H15.012C15.9198 20.01 16.7582 19.7804 17.5271 19.3211C18.2854 18.8833 18.8835 18.2852 19.3214 17.5269C19.7806 16.7473 20.0102 15.9035 20.0102 14.9957V8.98825C20.0102 8.08045 19.7806 7.24207 19.3214 6.47311C18.8835 5.71483 18.2854 5.11675 17.5271 4.67887C16.7582 4.21963 15.9198 3.99001 15.012 3.99001ZM18.5044 14.9957C18.5044 15.6259 18.3468 16.2106 18.0318 16.7499C17.7167 17.2893 17.2922 17.7165 16.7582 18.0315C16.2242 18.3466 15.6421 18.5041 15.012 18.5041H9.00449C8.36369 18.5041 7.77629 18.3466 7.24229 18.0315C6.70829 17.7165 6.28376 17.2919 5.9687 16.7579C5.65364 16.2239 5.49611 15.6365 5.49611 14.9957V8.98825C5.49611 8.35813 5.65364 7.77607 5.9687 7.24207C6.28376 6.70807 6.71096 6.28354 7.2503 5.96848C7.78964 5.65342 8.37437 5.49589 9.00449 5.49589H15.012C15.6421 5.49589 16.2242 5.65342 16.7582 5.96848C17.2922 6.28354 17.7167 6.70807 18.0318 7.24207C18.3468 7.77607 18.5044 8.35813 18.5044 8.98825V14.9957ZM12.0002 7.99501C11.274 7.99501 10.6038 8.1739 9.98972 8.53168C9.37562 8.88946 8.88968 9.3754 8.5319 9.9895C8.17412 10.6036 7.99523 11.2738 7.99523 12C7.99523 12.7262 8.17412 13.3964 8.5319 14.0105C8.88968 14.6246 9.37562 15.1106 9.98972 15.4683C10.6038 15.8261 11.274 16.005 12.0002 16.005C12.7265 16.005 13.3966 15.8261 14.0107 15.4683C14.6248 15.1106 15.1108 14.6246 15.4686 14.0105C15.8263 13.3964 16.0052 12.7262 16.0052 12C16.0052 11.2738 15.8263 10.6036 15.4686 9.9895C15.1108 9.3754 14.6248 8.88946 14.0107 8.53168C13.3966 8.1739 12.7265 7.99501 12.0002 7.99501ZM12.0002 14.4991C11.5517 14.4991 11.1352 14.387 10.7507 14.1627C10.3662 13.9384 10.0618 13.634 9.83753 13.2496C9.61325 12.8651 9.50111 12.4486 9.50111 12C9.50111 11.5514 9.61325 11.1349 9.83753 10.7505C10.0618 10.366 10.3662 10.0616 10.7507 9.83731C11.1352 9.61303 11.5517 9.50089 12.0002 9.50089C12.4488 9.50089 12.8653 9.61303 13.2498 9.83731C13.6343 10.0616 13.9387 10.366 14.1629 10.7505C14.3872 11.1349 14.4994 11.5514 14.4994 12C14.4994 12.4486 14.3872 12.8651 14.1629 13.2496C13.9387 13.634 13.6343 13.9384 13.2498 14.1627C12.8653 14.387 12.4488 14.4991 12.0002 14.4991ZM16.3096 7.16197C16.4591 7.16197 16.5846 7.2127 16.6861 7.31416C16.7875 7.41562 16.8383 7.54111 16.8383 7.69063C16.8383 7.84015 16.7849 7.96831 16.6781 8.07511C16.5713 8.18191 16.4458 8.23531 16.3016 8.23531C16.1574 8.23531 16.0319 8.18191 15.9251 8.07511C15.8183 7.96831 15.7649 7.84015 15.7649 7.69063C15.7649 7.54111 15.8183 7.41562 15.9251 7.31416C16.0319 7.2127 16.1601 7.16197 16.3096 7.16197Z" fill="#0453C8"/>
</svg>
