<svg width="19" height="13" viewBox="0 0 19 13" fill="none" xmlns="http://www.w3.org/2000/svg">
<path d="M0.622406 5.52102L5.96635 0.345843C6.06531 0.226048 6.19108 0.138198 6.34364 0.0822926C6.49621 0.0263882 6.65084 0.0164051 6.80753 0.0523443C6.96422 0.0882826 7.10029 0.16016 7.21574 0.267977C7.3312 0.375793 7.40748 0.507568 7.44459 0.663302C7.4817 0.819037 7.47346 0.970778 7.41985 1.11853C7.36625 1.26627 7.2776 1.38807 7.15389 1.4839L3.23253 5.29341H17.5078C17.7222 5.31737 17.8995 5.40721 18.0397 5.56295C18.1799 5.71868 18.25 5.89838 18.25 6.10203C18.25 6.30568 18.1799 6.48538 18.0397 6.64111C17.8995 6.79685 17.7222 6.88669 17.5078 6.91065H3.23253L7.15389 10.7082C7.30234 10.8679 7.37243 11.0556 7.36419 11.2712C7.35594 11.4868 7.27347 11.6705 7.11678 11.8223C6.96009 11.974 6.77042 12.0539 6.54775 12.0619C6.32509 12.0699 6.13129 12.002 5.96635 11.8582L0.622406 6.67106C0.45747 6.51133 0.375 6.31966 0.375 6.09604C0.375 5.87242 0.45747 5.68075 0.622406 5.52102Z" fill="#0453C8"/>
</svg>
