<svg width="160" height="42" viewBox="0 0 160 42" fill="none" xmlns="http://www.w3.org/2000/svg">
<path d="M42.0174 25.0639H40.6261V15.5335C40.6261 11.7422 37.7043 9.16826 34.4 9.16826C31.0956 9.16826 28.1739 11.6726 28.1739 15.29V25.0639H26.7478V8.33348H28.1391V11.0465C29.7043 9.13348 31.8261 7.91608 34.4695 7.91608C38.8174 7.91608 42.0174 11.0813 42.0174 15.4987V25.0639Z" fill="white"/>
<path d="M61.7392 25.0291H60.3479V21.4813C58.4001 24.403 55.5479 25.4465 53.0435 25.4465C48.174 25.4465 44.2783 21.5509 44.2783 16.6813C44.2783 11.8117 48.174 7.91608 53.0435 7.91608C57.9131 7.91608 58.4696 8.95956 60.3479 11.8813V8.33348H61.7392V25.0291ZM53.0435 9.13348C49.0088 9.13348 45.7044 12.6465 45.7044 16.6813C45.7044 20.7161 48.974 24.2291 53.0435 24.2291C57.1131 24.2291 60.3479 20.6813 60.3479 16.6813C60.3479 12.6813 57.0435 9.13348 53.0435 9.13348Z" fill="white"/>
<path d="M79.4435 8.29869L71.7913 25.0639H70.3305L63.0261 8.29869H64.6261L71.0957 23.2552L77.8435 8.29869H79.4435Z" fill="white"/>
<path d="M82.6781 25.0639H81.2868V9.58565H79.8955V8.33348H82.7129V25.0639H82.6781ZM81.3912 5.02913C80.6259 5.02913 79.9999 4.43782 79.9999 3.60304C79.9999 2.76826 80.6259 2.21173 81.3912 2.21173C82.1564 2.21173 82.8172 2.83782 82.8172 3.60304C82.8172 4.36826 82.2259 5.02913 81.3912 5.02913Z" fill="white"/>
<path d="M101.53 8.33348V23.1857C101.53 27.5335 97.9477 31.0465 93.4607 31.0465C88.9738 31.0465 89.5651 30.3161 88.1042 29.0987L89.0433 28.1944C90.2259 29.2726 91.7911 29.8987 93.4955 29.8987C97.1824 29.8987 100.104 26.8726 100.104 23.1857V20.577C97.7737 22.8378 95.7911 23.7074 93.5651 23.7074C89.1129 23.7074 85.5303 20.1596 85.5303 15.8117C85.5303 11.4639 89.1129 7.91608 93.5651 7.91608C98.0172 7.91608 97.8085 8.82043 100.104 11.0465V8.33348H101.565H101.53ZM93.5303 9.13348C89.8433 9.13348 86.9216 12.0552 86.9216 15.8117C86.9216 19.5683 89.8433 22.49 93.5303 22.49C97.2172 22.49 100.174 19.5335 100.174 15.8117C100.174 12.09 97.252 9.13348 93.5303 9.13348Z" fill="white"/>
<path d="M121.391 25.0291H120V21.4813C118.052 24.403 115.2 25.4465 112.696 25.4465C107.826 25.4465 103.93 21.5509 103.93 16.6813C103.93 11.8117 107.826 7.91608 112.696 7.91608C117.565 7.91608 118.122 8.95956 120 11.8813V8.33348H121.391V25.0291ZM112.696 9.13348C108.661 9.13348 105.357 12.6465 105.357 16.6813C105.357 20.7161 108.626 24.2291 112.696 24.2291C116.765 24.2291 120 20.6813 120 16.6813C120 12.6813 116.696 9.13348 112.696 9.13348Z" fill="white"/>
<path d="M131.269 25.4465C128.904 25.4465 126.087 24.9248 123.756 23.1509L124.8 22.1074C126.713 23.603 129.391 24.2291 131.269 24.2291C133.148 24.2291 135.826 23.7422 137.078 22.2813C137.356 21.9683 137.565 21.5161 137.565 21.0291C137.565 18.977 134.678 18.1422 133.078 17.7943L128.939 16.8552C126.504 16.2987 123.756 15.1509 123.756 12.4378C123.756 9.72478 128.313 7.95087 131.235 7.95087C134.156 7.95087 136.452 8.54217 138.678 10.2117L137.635 11.2552C135.826 9.86391 133.148 9.20304 131.269 9.20304C129.391 9.20304 126.922 9.82913 125.774 11.2204C125.495 11.5335 125.287 11.9509 125.287 12.4726C125.287 13.7248 126.4 14.5596 127.687 15.0117C128.209 15.1856 128.487 15.29 129.009 15.4291C129.495 15.5683 129.948 15.6726 130.33 15.7422L133.913 16.577C136.313 17.1335 139.13 18.2813 139.13 20.9596C139.13 23.6378 133.948 25.4813 131.304 25.4813L131.269 25.4465Z" fill="white"/>
<path d="M114.296 29.2378C114.887 29.2378 115.409 29.3422 115.861 29.5856C116.313 29.8291 116.661 30.177 116.904 30.6291C117.148 31.1161 117.287 31.6726 117.287 32.3683V36.7161H116.591V32.4378C116.591 31.603 116.383 30.977 115.965 30.5248C115.548 30.0726 114.991 29.8639 114.261 29.8639C113.53 29.8639 113.217 29.9683 112.8 30.2117C112.383 30.4552 112.07 30.7683 111.861 31.2204C111.652 31.6378 111.548 32.1596 111.548 32.7509V36.7161H110.852V32.4378C110.852 31.603 110.643 30.977 110.226 30.5248C109.809 30.0726 109.252 29.8639 108.522 29.8639C107.791 29.8639 107.478 29.9683 107.061 30.2117C106.643 30.4552 106.33 30.7683 106.122 31.2204C105.913 31.6378 105.809 32.1596 105.809 32.7509V36.7161H105.113V29.2726H105.809V31.3248L105.704 31.0813C105.913 30.49 106.296 30.0378 106.817 29.69C107.339 29.3422 107.965 29.1683 108.661 29.1683C109.357 29.1683 110.017 29.3422 110.539 29.7248C111.061 30.1074 111.374 30.6639 111.513 31.3943L111.27 31.29C111.478 30.6639 111.861 30.1422 112.383 29.7596C112.939 29.377 113.6 29.1683 114.4 29.1683L114.296 29.2378Z" fill="white"/>
<path d="M122.4 36.7857C121.704 36.7857 121.043 36.6117 120.487 36.2987C119.93 35.9857 119.478 35.5335 119.165 34.9422C118.852 34.3857 118.678 33.7248 118.678 32.9943C118.678 32.2639 118.852 31.603 119.165 31.0465C119.478 30.49 119.93 30.0378 120.487 29.7248C121.043 29.4117 121.67 29.2378 122.4 29.2378C123.13 29.2378 123.756 29.4117 124.313 29.7248C124.87 30.0378 125.322 30.49 125.635 31.0465C125.948 31.603 126.122 32.2639 126.122 32.9943C126.122 33.7248 125.948 34.3857 125.635 34.9422C125.322 35.4987 124.87 35.9509 124.313 36.2987C123.756 36.6117 123.13 36.7857 122.4 36.7857ZM122.4 36.1596C122.956 36.1596 123.478 36.0204 123.93 35.777C124.383 35.4987 124.73 35.1509 125.009 34.6639C125.252 34.177 125.391 33.6552 125.391 33.0291C125.391 32.403 125.252 31.8465 125.009 31.3943C124.765 30.9074 124.383 30.5596 123.93 30.2813C123.478 30.003 122.956 29.8987 122.4 29.8987C121.843 29.8987 121.322 30.0378 120.87 30.2813C120.417 30.5596 120.07 30.9074 119.791 31.3943C119.513 31.8813 119.409 32.403 119.409 33.0291C119.409 33.6552 119.548 34.177 119.791 34.6639C120.07 35.1509 120.417 35.4987 120.87 35.777C121.322 36.0552 121.843 36.1596 122.4 36.1596Z" fill="white"/>
<path d="M127.617 36.7509V26.177H128.313V31.7074L128.174 32.9943L128.278 34.2813V36.7161H127.583L127.617 36.7509ZM131.339 36.7856C130.678 36.7856 130.087 36.6465 129.565 36.3335C129.043 36.0204 128.626 35.603 128.313 35.0117C128 34.4552 127.861 33.7596 127.861 32.9943C127.861 32.2291 128 31.5335 128.313 30.977C128.626 30.4204 129.043 29.9683 129.565 29.69C130.087 29.377 130.678 29.2378 131.339 29.2378C132 29.2378 132.661 29.4117 133.217 29.7248C133.774 30.0378 134.226 30.49 134.539 31.0465C134.852 31.603 135.026 32.2639 135.026 33.0291C135.026 33.7943 134.852 34.4204 134.539 35.0117C134.226 35.5683 133.774 36.0204 133.217 36.3335C132.661 36.6465 132.035 36.8204 131.339 36.8204V36.7856ZM131.304 36.1596C131.861 36.1596 132.383 36.0204 132.835 35.777C133.287 35.4987 133.635 35.1509 133.913 34.6639C134.191 34.177 134.296 33.6552 134.296 33.0291C134.296 32.403 134.156 31.8465 133.913 31.3943C133.635 30.9074 133.287 30.5596 132.835 30.2813C132.383 30.003 131.861 29.8987 131.304 29.8987C130.748 29.8987 130.226 30.0378 129.774 30.2813C129.322 30.5596 128.974 30.9074 128.696 31.3943C128.417 31.8813 128.313 32.403 128.313 33.0291C128.313 33.6552 128.452 34.177 128.696 34.6639C128.974 35.1509 129.322 35.4987 129.774 35.777C130.226 36.0552 130.748 36.1596 131.304 36.1596Z" fill="white"/>
<path d="M136.87 27.4987C136.696 27.4987 136.557 27.4291 136.452 27.3248C136.348 27.2204 136.278 27.0813 136.278 26.9422C136.278 26.803 136.348 26.6291 136.452 26.5248C136.557 26.4204 136.696 26.3509 136.87 26.3509C137.044 26.3509 137.183 26.4204 137.287 26.5248C137.391 26.6291 137.461 26.7683 137.461 26.9422C137.461 27.1161 137.391 27.2552 137.287 27.3596C137.183 27.4639 137.044 27.5335 136.87 27.5335V27.4987ZM136.522 36.7509V29.3074H137.217V36.7509H136.522Z" fill="white"/>
<path d="M140.104 36.7509V26.177H140.8V36.7509H140.104Z" fill="white"/>
<path d="M143.757 27.4987C143.583 27.4987 143.444 27.4291 143.339 27.3248C143.235 27.2204 143.165 27.0813 143.165 26.9422C143.165 26.803 143.235 26.6291 143.339 26.5248C143.444 26.4204 143.583 26.3509 143.757 26.3509C143.93 26.3509 144.07 26.4204 144.174 26.5248C144.278 26.6291 144.348 26.7683 144.348 26.9422C144.348 27.1161 144.278 27.2552 144.174 27.3596C144.07 27.4639 143.93 27.5335 143.757 27.5335V27.4987ZM143.409 36.7509V29.3074H144.104V36.7509H143.409Z" fill="white"/>
<path d="M145.461 29.8987V29.2726H149.913V29.8987H145.461ZM148.87 36.7856C148.209 36.7856 147.722 36.6117 147.374 36.2291C147.026 35.8813 146.852 35.3596 146.852 34.7335V27.6378H147.583V34.6639C147.583 35.1509 147.687 35.4987 147.93 35.777C148.174 36.0204 148.522 36.1596 148.974 36.1596C149.426 36.1596 149.809 36.0204 150.122 35.7422L150.435 36.2291C150.261 36.403 150.017 36.5422 149.739 36.6117C149.461 36.6813 149.183 36.7509 148.904 36.7509L148.87 36.7856Z" fill="white"/>
<path d="M151.617 39.5683C151.269 39.5683 150.956 39.4987 150.643 39.3943C150.33 39.29 150.087 39.1161 149.878 38.9074L150.226 38.3509C150.4 38.5596 150.609 38.6987 150.852 38.803C151.061 38.9074 151.339 38.9422 151.617 38.9422C151.896 38.9422 152.278 38.8378 152.522 38.6639C152.765 38.49 153.043 38.1422 153.252 37.6204L153.774 36.4726L153.878 36.3335L157.043 29.2726H157.774L153.948 37.7248C153.739 38.177 153.53 38.5248 153.287 38.803C153.043 39.0813 152.8 39.2552 152.522 39.3596C152.243 39.4639 151.93 39.5335 151.617 39.5335V39.5683ZM153.774 36.9248L150.33 29.3074H151.096L154.226 36.2987L153.774 36.9248Z" fill="white"/>
<path d="M17.6347 14.3509C17.4608 15.0117 17.1477 15.6378 16.7999 16.1596L11.8955 22.7335C11.6869 23.0117 11.2695 23.0117 11.0608 22.7335L6.15642 16.1596C5.77381 15.603 5.49555 14.977 5.32164 14.3509H2.3999C2.64338 15.6726 3.1999 16.89 3.93034 17.9335L10.6086 26.8726C11.026 27.4291 11.8608 27.4291 12.2782 26.8726L18.9564 17.9335C19.7216 16.89 20.2434 15.6726 20.4868 14.3509H17.6347Z" fill="white"/>
<path d="M20.5565 11.1161C19.8609 6.69869 16.0348 3.35956 11.4435 3.35956C6.85216 3.35956 3.1652 6.62913 2.3652 10.9422C2.26086 11.4639 2.22607 12.0204 2.22607 12.577H5.00868C5.00868 9.02913 7.89564 6.14217 11.4435 6.14217C14.9913 6.14217 17.8783 9.02913 17.8783 12.577H20.6609C20.6609 12.09 20.6261 11.603 20.5565 11.1161Z" fill="white"/>
<path d="M13.5652 12.1596C13.8435 12.89 13.7044 13.6204 13.3565 14.177L13.1478 14.4552L12.2783 15.6378C11.8609 16.1943 11.0261 16.1943 10.6087 15.6378L9.70436 14.4204L9.56523 14.2465C9.32175 13.8987 9.18262 13.4465 9.18262 12.9943C9.18262 11.6378 10.4 10.5596 11.7913 10.7683C12.8885 10.9328 13.3565 11.7105 13.5652 12.1596Z" fill="white"/>
</svg>
