<svg width="21" height="20" viewBox="0 0 21 20" fill="none" xmlns="http://www.w3.org/2000/svg">
<g clip-path="url(#clip0_696_1285)">
<path d="M16.0555 20H4.94443C3.75736 20 2.64127 19.5377 1.80177 18.6982C0.962309 17.8588 0.5 16.7427 0.5 15.5555V14.4444C0.5 13.8307 0.997435 13.3332 1.61112 13.3332C2.2248 13.3332 2.72224 13.8307 2.72224 14.4444V15.5555C2.72224 16.1491 2.95341 16.7071 3.37306 17.1268C3.79283 17.5466 4.35085 17.7778 4.94443 17.7778H16.0555C16.6491 17.7778 17.2071 17.5466 17.6268 17.1268C18.0466 16.7071 18.2778 16.149 18.2778 15.5555V14.4444C18.2778 13.8307 18.7752 13.3332 19.3888 13.3332C20.0025 13.3332 20.5 13.8307 20.5 14.4444V15.5555C20.5 16.7426 20.0377 17.8587 19.1982 18.6982C18.3587 19.5377 17.2426 20 16.0555 20ZM10.5 15.5555C10.3463 15.5555 10.2 15.5243 10.0668 15.4679C9.94262 15.4154 9.8259 15.3392 9.72379 15.2395C9.72375 15.2394 9.72375 15.2394 9.72371 15.2394C9.72297 15.2387 9.72223 15.238 9.7215 15.2372C9.7213 15.2371 9.72107 15.2368 9.72087 15.2366C9.72025 15.2361 9.71971 15.2355 9.71913 15.2349C9.71874 15.2345 9.71839 15.2342 9.718 15.2338C9.71761 15.2334 9.71711 15.2329 9.71676 15.2326C9.71598 15.2318 9.71513 15.2309 9.71435 15.2302L5.26988 10.7856C4.83599 10.3517 4.83599 9.64821 5.26988 9.21428C5.70378 8.78038 6.40736 8.78034 6.84125 9.21428L9.3889 11.7619V1.11112C9.38886 0.497435 9.8863 0 10.5 0C11.1137 0 11.6111 0.497435 11.6111 1.11112V11.7619L14.1587 9.21428C14.5926 8.78038 15.2963 8.78038 15.7301 9.21428C16.164 9.64817 16.164 10.3517 15.7301 10.7856L11.2856 15.2301C11.2849 15.2309 11.284 15.2317 11.2832 15.2325C11.2828 15.2329 11.2823 15.2334 11.282 15.2337C11.2816 15.2341 11.2813 15.2344 11.2809 15.2348C11.2803 15.2354 11.2797 15.236 11.2792 15.2365C11.279 15.2367 11.2787 15.237 11.2785 15.2371C11.2778 15.2379 11.2771 15.2386 11.2763 15.2393C11.2763 15.2393 11.2763 15.2394 11.2763 15.2394C11.264 15.2513 11.2516 15.2629 11.239 15.2741C11.146 15.3571 11.0423 15.4218 10.9328 15.468C10.9324 15.4682 10.9321 15.4683 10.9317 15.4685C10.9312 15.4686 10.9309 15.4689 10.9305 15.469C10.798 15.5247 10.6526 15.5555 10.5 15.5555Z" fill="#0847A4"/>
</g>
<defs>
<clipPath id="clip0_696_1285">
<rect width="20" height="20" fill="white" transform="translate(0.5)"/>
</clipPath>
</defs>
</svg>
