<svg width="44" height="44" viewBox="0 0 44 44" fill="none" xmlns="http://www.w3.org/2000/svg">
<rect width="44" height="44" rx="6" fill="#0847A4"/>
<g clip-path="url(#clip0_285_1552)">
<path d="M27.8338 24.87V26.62C27.8345 26.7825 27.8012 26.9433 27.7361 27.0921C27.671 27.241 27.5756 27.3746 27.4559 27.4844C27.3362 27.5943 27.1948 27.6779 27.0409 27.7299C26.887 27.782 26.724 27.8013 26.5622 27.7867C24.7671 27.5916 23.0429 26.9783 21.528 25.9958C20.1186 25.1002 18.9236 23.9053 18.028 22.4958C17.0421 20.9741 16.4286 19.2414 16.2372 17.4383C16.2226 17.277 16.2418 17.1145 16.2934 16.961C16.3451 16.8075 16.4282 16.6664 16.5374 16.5468C16.6466 16.4272 16.7795 16.3316 16.9277 16.2662C17.0759 16.2007 17.236 16.1668 17.398 16.1667H19.148C19.4311 16.1639 19.7055 16.2641 19.9202 16.4487C20.1348 16.6333 20.275 16.8897 20.3147 17.17C20.3885 17.7301 20.5255 18.2799 20.723 18.8092C20.8015 19.018 20.8185 19.2449 20.7719 19.463C20.7254 19.6812 20.6173 19.8814 20.4605 20.04L19.7197 20.7808C20.5501 22.2413 21.7593 23.4504 23.2197 24.2808L23.9605 23.54C24.1191 23.3832 24.3193 23.2751 24.5375 23.2286C24.7556 23.182 24.9825 23.199 25.1913 23.2775C25.7206 23.475 26.2705 23.612 26.8305 23.6858C27.1139 23.7258 27.3726 23.8686 27.5576 24.0869C27.7426 24.3052 27.8409 24.5839 27.8338 24.87Z" stroke="white" stroke-width="1.5" stroke-linecap="round" stroke-linejoin="round"/>
</g>
<defs>
<clipPath id="clip0_285_1552">
<rect width="14" height="14" fill="white" transform="translate(15 15)"/>
</clipPath>
</defs>
</svg>
