<svg width="71" height="70" viewBox="0 0 71 70" fill="none" xmlns="http://www.w3.org/2000/svg">
<g clip-path="url(#clip0_17_372)">
<path d="M39.1585 51.7059C39.5645 51.3954 40.4721 51.0849 40.9736 50.87C40.9497 50.1058 40.6393 49.3893 40.8303 48.7444C41.1647 47.5981 41.9528 47.0965 42.7171 47.001C42.7648 47.0249 42.8126 47.1204 42.7648 47.1443C42.3349 47.5503 42.1677 48.1235 42.0961 48.7444C42.0722 48.9833 42.0245 49.7236 42.2394 50.2491C42.6932 50.0102 43.7918 49.6281 44.15 49.5565C44.1978 48.7922 44.3172 48.0519 44.5321 47.5025C44.962 46.4278 45.9173 45.5681 46.8726 46.0696C46.9204 46.0935 46.9682 46.189 46.9204 46.2129C46.3233 46.4278 45.9412 47.0488 45.6068 47.7653C45.5113 47.9802 45.177 49.1266 45.5591 49.3654C45.5591 49.3654 45.583 49.3654 45.583 49.3893C46.2756 49.246 46.395 49.3176 47.1353 49.246C47.2548 48.5056 47.5891 47.8608 47.8757 47.3831C48.3056 46.5472 49.4281 45.8785 50.4311 46.4756C50.4789 46.4995 50.5267 46.6189 50.455 46.6189C49.7624 46.7622 49.3087 47.216 49.0698 47.622C48.9504 47.813 48.3056 48.6967 48.6399 49.0549C48.6638 49.0549 48.7116 49.0549 48.7594 49.0549C49.3564 49.031 49.7863 49.1505 50.4073 49.2699C50.5983 48.8161 50.7655 48.7683 50.9566 48.5295C51.6492 47.6936 52.8194 47.407 53.2254 48.1951C53.2732 48.2429 53.2732 48.3384 53.2254 48.3384C52.8672 48.3862 52.2701 48.5773 51.9835 48.9355C51.9119 49.0072 51.7208 49.2221 51.5297 49.6281C52.3418 50.2491 52.7955 50.7506 53.0105 51.5865C53.0582 51.7298 53.1299 52.5896 52.8433 52.1597C51.5297 50.5118 49.7624 50.1535 47.1115 50.4162C44.2694 50.6789 42.9559 51.1088 40.1138 52.6373C41.6901 54.0464 39.3257 55.4316 38.9436 53.3538C37.5584 55.4555 36.1016 52.8045 37.9644 52.4224C36.0538 50.5595 38.657 49.6998 39.1585 51.7059Z" fill="#434852"/>
<path d="M44.0066 42.6305C45.0335 42.2962 46.156 41.9379 46.7292 41.8185C46.8247 40.1467 48.401 38.0689 50.2638 38.7854C50.3355 38.8093 50.3832 38.9048 50.3116 38.9287C49.8339 39.072 48.3054 40.5289 48.8309 41.4603C49.213 41.4842 50.2638 41.4603 50.5743 41.4842C50.9803 39.6452 52.5804 38.3555 54.3955 39.1914C54.4672 39.2153 54.5149 39.3347 54.4433 39.3347C53.7268 39.4541 52.1028 40.6005 52.2938 41.5797C52.6282 41.6036 53.5357 41.914 54.1089 42.2245C54.3239 41.7707 54.5627 41.6036 54.7776 41.3647C55.5658 40.5289 57.1898 40.4572 57.6674 41.2692C57.7152 41.317 57.7152 41.4125 57.6674 41.4125C56.9748 41.3886 56.3539 41.4842 55.7568 42.0096C55.6613 42.0812 55.4702 42.3678 55.2553 42.7738C55.8285 43.0843 56.4733 43.6814 56.5927 44.2545C56.6883 44.5411 56.736 44.78 56.6883 45.0666C56.6644 45.1382 56.5211 45.0666 56.4733 45.0188C54.9687 43.3709 51.649 42.3439 48.4249 42.7499C46.2754 43.0126 44.1738 43.6097 42.4303 44.374C43.0274 43.8485 43.5528 43.2754 44.0066 42.6305ZM39.2778 46.3562C39.1345 46.4995 38.9912 46.6189 38.8718 46.7622C39.6361 47.8131 38.418 48.6489 38.0598 47.5981C37.1523 48.5773 36.4358 47.4309 37.0328 46.9533C37.7971 46.8339 38.5613 46.6428 39.2778 46.3562Z" fill="#434852"/>
<path d="M38.7525 60.4469C38.9674 60.2081 39.4928 59.7543 39.7555 59.5394C38.9435 58.2736 39.3973 56.6496 40.1854 56.5302C40.2332 56.5541 40.2571 56.6257 40.2332 56.6735C40.0182 56.984 39.9227 58.6557 40.5436 59.014C40.8541 58.799 41.4512 58.3692 41.7139 58.2975C41.2601 56.769 42.0483 54.7151 43.5767 55.0495C43.6245 55.0734 43.6484 55.1689 43.6245 55.1928C42.3826 55.8376 42.3587 57.7482 42.6931 57.9631C43.1946 57.8199 43.7439 57.6049 44.2932 57.5571C44.532 55.5271 46.3232 54.6196 47.2308 55.145C47.2786 55.1689 47.3024 55.2883 47.2786 55.2883C46.777 55.0017 44.8903 56.9362 45.5112 57.5094C45.9411 57.4855 46.4427 57.6766 46.9442 57.796C47.1591 56.6735 48.7354 55.7421 49.4041 56.4585C49.4519 56.5063 49.4519 56.6018 49.428 56.6018C48.8309 56.7213 48.0428 57.2706 47.9234 58.3214C49.1892 58.9185 49.0459 60.1604 48.8309 59.826C47.6368 58.2497 45.1052 58.5124 43.1707 58.9185C42.0483 59.1573 40.472 60.232 39.8033 60.9962C41.8333 61.9515 39.9943 63.7427 39.1346 61.7127C37.7255 64.1965 36.3403 61.9277 37.9882 61.259C35.9821 59.7066 38.0599 58.6557 38.7525 60.4469Z" fill="#434852"/>
<path d="M18.309 58.5602C16.3028 56.2436 14.6072 53.7359 13.2458 51.2043H35.2179V58.5602H18.309Z" fill="#434852"/>
<path d="M45.7979 22.6169H61.9425V28.9458H45.7979V22.6169Z" fill="#434852"/>
<path d="M61.9425 13.016L57.166 11.3204L51.6013 10.1979L45.3441 8.83658L39.5406 8.38281H35.1223V15.0461H61.9186L61.9425 13.016Z" fill="#434852"/>
<path d="M12.2188 5.54077C12.8637 5.32583 13.5085 5.13476 14.1772 4.9437C14.416 4.87206 14.6549 4.80041 14.9176 4.75264C15.1803 4.70488 15.443 4.68099 15.7057 4.75264L15.8012 4.80041C15.8968 4.84817 15.9445 4.91982 15.9923 5.01535C16.0639 5.18253 16.0878 5.34971 16.1117 5.54077C16.1595 5.92289 16.1595 6.30501 16.1117 6.68714C16.0878 6.99761 16.0401 7.30808 15.9206 7.57079C15.8729 7.69021 15.8012 7.78574 15.7057 7.88127C15.634 7.95291 15.5624 8.02456 15.4908 8.07233C15.3236 8.19174 15.1803 8.28727 14.9892 8.35892C14.5593 8.54998 14.1294 8.69328 13.6757 8.83657C12.9114 9.09928 12.1472 9.36199 11.3829 9.6247V11.0338C11.0008 11.1771 10.6187 11.3442 10.2366 11.4875V6.1856C10.9053 5.97066 11.5501 5.75571 12.2188 5.54077ZM11.3829 8.66939C12.1472 8.40668 12.9114 8.14398 13.6996 7.88127C13.9384 7.80962 14.1772 7.73797 14.3922 7.64244L14.5593 7.54691L14.631 7.49915L14.7026 7.4275L14.7743 7.35585L14.822 7.2842L14.8937 7.14091C14.9176 7.04538 14.9415 6.97373 14.9415 6.8782C14.9653 6.63937 14.9653 6.42443 14.8937 6.1856L14.8459 6.06619L14.7982 5.97066L14.7265 5.89901L14.631 5.85124L14.5354 5.82736H14.4399H14.3444C14.1056 5.85124 13.8906 5.92289 13.6518 5.99454C12.8875 6.23337 12.1233 6.49607 11.3591 6.7349L11.3829 8.66939ZM21.1032 3.12862C21.6286 3.03309 22.1301 2.93756 22.6555 2.8898C22.8227 2.86591 22.9899 2.86591 23.1571 2.86591C23.2287 2.86591 23.3243 2.8898 23.3959 2.91368C23.4676 2.93756 23.5153 2.96144 23.587 3.00921C23.6347 3.05698 23.6825 3.08086 23.7303 3.12862C23.778 3.17639 23.8019 3.24804 23.8258 3.2958C23.8736 3.39133 23.8974 3.46298 23.8974 3.55851C23.9452 3.86898 23.9691 4.20334 23.993 4.5377C24.0169 4.91982 24.0169 5.27806 23.993 5.6363C23.993 5.7796 23.993 5.94677 23.9691 6.09007C23.9452 6.37666 23.9452 6.66325 23.8736 6.94984C23.8497 7.02149 23.8258 7.09314 23.8019 7.14091C23.7541 7.23644 23.7064 7.33197 23.6347 7.4275L23.4914 7.64244L23.2765 7.78574C23.181 7.8335 23.1093 7.85738 23.0138 7.90515C22.6317 8.02456 22.2495 8.09621 21.8674 8.19174C21.0793 8.35892 20.2912 8.50222 19.503 8.66939C19.1209 8.74104 18.7388 8.81269 18.3567 8.86045C18.2611 8.88434 18.1417 8.88434 18.0462 8.88434L17.8074 8.86045C17.7357 8.83657 17.688 8.81269 17.6402 8.78881L17.5208 8.69328L17.4252 8.54998L17.2819 7.76185V5.6363C17.3058 5.39747 17.3297 5.13476 17.3775 4.89594L17.4491 4.68099C17.4969 4.56158 17.5447 4.46605 17.6163 4.37052L17.7835 4.17946L17.9268 4.06005C18.0701 3.96452 18.2373 3.86898 18.4283 3.79734L19.2881 3.53463C19.8374 3.36745 20.4583 3.24804 21.1032 3.12862ZM20.5061 4.20334L19.2642 4.48993C19.1687 4.51382 19.0731 4.56158 18.9776 4.58546L18.8821 4.65711L18.7866 4.72876L18.7149 4.80041L18.6433 4.87206L18.5716 4.9437L18.5238 5.03923C18.4761 5.11088 18.4522 5.20641 18.4283 5.27806C18.3567 5.58853 18.3567 5.89901 18.3567 6.20948C18.3567 6.54384 18.3567 6.8782 18.4044 7.18867L18.4522 7.30808L18.5238 7.4275L18.6194 7.52303L18.7149 7.59468L18.8343 7.64244L18.9537 7.66632H19.097C19.1926 7.66632 19.2642 7.66632 19.3359 7.64244C19.8135 7.57079 20.2912 7.47526 20.7688 7.37973C21.1509 7.30808 21.5569 7.21255 21.9391 7.11702C22.0107 7.09314 22.1062 7.06926 22.1779 7.04537L22.2973 6.97373L22.4167 6.90208L22.5122 6.80655L22.6078 6.71102L22.6794 6.59161L22.7272 6.47219L22.775 6.35278C22.8466 5.99454 22.8227 5.66018 22.8227 5.30194C22.8227 5.11088 22.8227 4.91982 22.7988 4.75264L22.775 4.60935C22.7511 4.51382 22.7272 4.41829 22.6794 4.32275L22.6317 4.22722L22.5839 4.15558L22.5122 4.08393L22.4645 4.06005L22.3689 4.01228L22.2734 3.9884L22.0824 3.96452C21.8674 3.96452 21.6764 3.9884 21.4853 4.01228C21.1509 4.08393 20.8166 4.15558 20.5061 4.20334ZM28.3874 2.24497C28.9844 2.1972 29.5815 2.14944 30.1786 2.14944C30.298 2.14944 30.4413 2.14944 30.5607 2.14944C30.704 2.14944 30.8234 2.17332 30.9428 2.24497C30.9906 2.26885 31.0383 2.29273 31.0622 2.31661C31.1578 2.38826 31.2294 2.45991 31.2772 2.57932C31.3249 2.65097 31.3488 2.7465 31.3727 2.81815C31.4205 3.00921 31.4205 3.22415 31.4205 3.41521C31.4205 3.67792 31.4205 3.91675 31.3966 4.17946C31.3966 4.27499 31.3727 4.37052 31.3488 4.46605L31.3011 4.56158C31.2533 4.63323 31.2294 4.68099 31.1816 4.75264L31.0622 4.84817C31.0145 4.87206 30.9667 4.91982 30.895 4.9437C30.8234 4.96759 30.7279 4.99147 30.6562 5.01535L30.0114 5.15865L30.6562 5.51689C30.7518 5.58853 30.8234 5.6363 30.895 5.70795L30.9667 5.80348C31.0622 5.94677 31.1339 6.09007 31.2055 6.25725C31.3011 6.54384 31.3488 6.83043 31.3488 7.11702C30.9667 7.1409 30.5846 7.14091 30.2025 7.16479C30.1786 6.94984 30.1547 6.75878 30.083 6.54384L29.9875 6.30501L29.9397 6.1856L29.8681 6.09007L29.7964 5.99454L29.7009 5.92289L29.5815 5.85124C29.5099 5.82736 29.4382 5.80348 29.3666 5.80348C29.2233 5.77959 29.0561 5.80348 28.9128 5.80348C28.1724 5.85124 27.4559 5.92289 26.7156 5.99454L26.429 6.01842V7.4275C26.0469 7.47526 25.6648 7.52303 25.2826 7.54691V2.53156C26.3335 2.41214 27.3604 2.31661 28.3874 2.24497ZM26.4529 5.15865C27.2171 5.087 27.9814 5.01535 28.7456 4.96759C29.0083 4.9437 29.271 4.91982 29.5337 4.89594C29.6054 4.89594 29.677 4.87206 29.7487 4.84817L29.8442 4.82429L29.9397 4.77652L30.0114 4.72876L30.083 4.65711L30.1308 4.58546L30.1786 4.51382C30.2025 4.44217 30.2263 4.3944 30.2263 4.32275C30.2502 4.10781 30.2502 3.89287 30.2502 3.67792C30.2502 3.60628 30.2263 3.53463 30.2025 3.4391L30.1547 3.36745L30.1069 3.2958L30.0353 3.22415L29.9636 3.17639L29.892 3.12862L29.7964 3.10474C29.7248 3.08086 29.6532 3.08086 29.5815 3.08086C29.1994 3.08086 28.8173 3.12862 28.459 3.15251C27.7903 3.20027 27.1455 3.27192 26.4768 3.31968L26.4529 5.15865ZM34.573 6.3289C35.0029 6.3289 35.4327 6.3289 35.8865 6.3289C36.1731 6.3289 36.4836 6.3289 36.7941 6.30501C36.8657 6.30501 36.9135 6.28113 36.9851 6.28113C37.0568 6.25725 37.1045 6.23337 37.1523 6.20948L37.2239 6.16172L37.2717 6.09007L37.3195 6.01842L37.3434 5.94677L37.3672 5.7796V5.54077L37.3195 5.27806L37.2956 5.20641L37.2717 5.13476L37.2239 5.06312L37.1523 5.01535L37.0806 4.96759L36.9135 4.91982L36.6269 4.87206H36.2686H33.8565C33.6177 4.87206 33.3788 4.87206 33.1639 4.82429C33.0923 4.80041 33.0445 4.80041 32.9967 4.77652L32.9251 4.72876L32.8534 4.68099L32.8057 4.63323L32.7579 4.56158L32.7101 4.48993C32.6624 4.3944 32.6146 4.29887 32.5907 4.20334C32.5429 3.94063 32.5429 3.65404 32.5429 3.39133C32.5429 3.05698 32.5668 2.72262 32.7101 2.41214C32.734 2.36438 32.7818 2.31661 32.8057 2.26885C32.9728 2.12555 33.1878 2.0539 33.4027 2.00614C33.6177 1.95837 33.8565 1.95837 34.0714 1.95837C34.5969 1.95837 35.1223 1.95837 35.6477 1.95837C36.5075 1.95837 37.3911 1.98226 38.2509 2.00614V2.77038C37.1045 2.7465 35.9582 2.72262 34.8118 2.72262C34.5491 2.72262 34.2864 2.72262 34.0237 2.7465C33.9759 2.7465 33.9043 2.77038 33.8565 2.77038L33.761 2.81815L33.6893 2.8898L33.6416 2.98533L33.6177 3.08086L33.5938 3.24804C33.5938 3.39133 33.5938 3.51075 33.5938 3.65404L33.6177 3.74957L33.6416 3.8451L33.7132 3.94063L33.8326 4.01228L33.952 4.03616C35.1462 4.06005 36.3642 4.08393 37.5583 4.13169L37.7016 4.15558C37.8927 4.20334 38.0837 4.27499 38.227 4.41829C38.2987 4.48993 38.3464 4.56158 38.3703 4.63323C38.4897 4.89594 38.5136 5.20641 38.5136 5.493C38.5136 5.82736 38.5136 6.16172 38.4181 6.47219C38.3942 6.51996 38.3942 6.56772 38.3703 6.61549L38.2987 6.71102C38.2509 6.78267 38.2031 6.83043 38.1315 6.8782C38.0121 6.94984 37.8927 7.02149 37.7732 7.04537C37.5822 7.09314 37.3672 7.09314 37.1762 7.11702C36.5791 7.1409 36.0059 7.14091 35.4089 7.14091C34.4774 7.14091 33.546 7.16479 32.6385 7.16479C32.6385 6.90208 32.6385 6.61549 32.6385 6.35278C33.2594 6.3289 33.8804 6.3289 34.5013 6.3289H34.573ZM42.4781 7.37973C42.0005 7.33197 41.4989 7.30808 41.0213 7.23644C40.8063 7.21255 40.5914 7.16479 40.4003 7.09314C40.3048 7.04537 40.2093 7.02149 40.1137 6.94984C40.0421 6.90208 39.9943 6.85431 39.9227 6.80655C39.8749 6.75878 39.8272 6.68714 39.7794 6.63937C39.7316 6.56772 39.7077 6.49607 39.6839 6.42443C39.6122 6.16172 39.5883 5.87513 39.5883 5.58853C39.5644 4.89594 39.5644 4.22722 39.5883 3.53463V3.36745C39.6122 3.05698 39.6361 2.7465 39.8272 2.48379C39.8988 2.41214 39.9466 2.3405 40.0421 2.29273C40.2809 2.17332 40.5675 2.12555 40.8302 2.10167C41.1168 2.07779 41.3795 2.07779 41.6661 2.10167C42.2154 2.12555 42.7886 2.14944 43.3379 2.1972C44.1499 2.26885 44.938 2.3405 45.75 2.43603V3.34357C44.6753 3.24804 43.6245 3.15251 42.5498 3.08086C42.2154 3.05698 41.8572 3.03309 41.4989 3.05698L41.3318 3.08086L41.2123 3.10474L41.1168 3.15251L41.0213 3.22415L40.9258 3.31968L40.8541 3.41521L40.8063 3.53463C40.7825 3.60628 40.7586 3.67792 40.7586 3.74957C40.7108 4.08393 40.6869 4.44217 40.7108 4.80041C40.7108 5.087 40.7108 5.37359 40.7586 5.66018C40.7825 5.73183 40.7825 5.80348 40.8063 5.87513L40.8541 5.99454L40.9258 6.09007L41.0213 6.1856L41.1168 6.25725L41.2123 6.30501L41.3318 6.35278C41.4273 6.37666 41.5228 6.40054 41.6183 6.40054C41.9288 6.44831 42.2632 6.47219 42.5737 6.49607C43.6484 6.5916 44.747 6.68714 45.8217 6.80655C45.8217 7.09314 45.8217 7.35585 45.8217 7.64244V7.73797C45.153 7.66632 44.4604 7.59468 43.7917 7.54691C43.3857 7.45138 42.9319 7.4275 42.4781 7.37973ZM49.7862 5.11088C50.6699 5.27806 51.5535 5.44524 52.4372 5.61242V3.58239C52.8432 3.67792 53.2492 3.77345 53.6791 3.8451V9.0754C53.2731 8.97987 52.8671 8.88434 52.4372 8.78881V6.7349C51.7207 6.5916 51.0281 6.44831 50.3116 6.30501C49.6668 6.1856 48.9981 6.06619 48.3533 5.94677V7.9768C47.9472 7.90515 47.5412 7.85738 47.1114 7.78574V2.69874C47.5174 2.7465 47.9472 2.79427 48.3533 2.86591V4.87206C48.8309 4.9437 49.3086 5.01535 49.7862 5.11088ZM59.1721 5.44524C59.602 5.58853 60.0319 5.73183 60.4856 5.87513V6.7349C59.2198 6.30501 57.9302 5.89901 56.6405 5.493L56.2106 5.37359V6.68714C57.1421 6.97373 58.0974 7.26032 59.0288 7.57079C59.4348 7.71409 59.8647 7.8335 60.2707 7.9768V8.74104C59.0766 8.33504 57.8585 7.95291 56.6405 7.59468L56.2106 7.47526V8.86045C57.1182 9.12316 58.0257 9.40976 58.9094 9.69635C59.4348 9.86352 59.9602 10.0546 60.5095 10.2218V11.1054C58.79 10.5322 57.0465 10.0068 55.2792 9.50529L55.0882 9.45752V4.20334C56.4495 4.58546 57.8108 5.01535 59.1721 5.44524Z" fill="#434852"/>
<path d="M10.1651 43.8724C9.40083 41.3169 8.99483 38.9287 8.97095 36.8748H24.9723C25.0201 39.5735 26.1426 42.0573 27.9099 43.8724H10.1651Z" fill="#434852"/>
<path d="M8.25439 5.30197L8.56487 5.18256C17.497 1.88676 26.4052 0.167207 35.3373 2.80943e-05C44.2694 -0.143268 53.1776 1.26581 62.1097 4.27502L62.4441 4.39443V4.72879C62.3724 15.4521 62.3008 26.1754 62.2291 36.8987C62.2053 42.4395 59.2916 50.2252 53.7986 57.0318C49.3803 62.5248 43.2663 67.3968 35.6239 69.9761H35.3612C27.6471 67.9939 21.557 63.3129 17.1149 57.8438C11.4308 50.7984 8.5171 42.3917 8.49322 36.6838C8.44546 31.5012 8.42157 26.3187 8.37381 21.16L8.25439 5.30197ZM18.6672 58.2737H34.9074V51.7537H14.0818C14.0101 51.6343 13.9385 51.5149 13.8907 51.3955C15.0132 53.4016 16.3267 55.3839 17.8313 57.2706C18.1179 57.6049 18.3806 57.9393 18.6672 58.2737ZM34.9313 59.0857H19.4076C23.4199 63.4801 28.6024 67.1341 34.9313 68.9014V59.0857ZM19.0732 58.7274C19.0493 58.7035 19.0493 58.7035 19.0493 58.6797C19.0493 58.7035 19.0732 58.7274 19.0732 58.7274ZM13.628 50.9178H34.9313V47.0727C35.0985 47.0727 35.2657 47.0727 35.4328 47.0727C35.5522 47.0727 35.6478 47.0727 35.7672 47.0727V68.9253C35.7433 68.9253 35.7194 68.9492 35.7194 68.9492C42.9797 66.4176 48.8071 61.7366 53.0582 56.4586C58.3363 49.9147 61.1544 42.4634 61.2738 37.1136C61.2738 37.1375 61.2738 37.1375 61.2738 37.1614H45.9173C45.9173 36.9942 45.9412 36.8271 45.9412 36.6599V36.3255H61.2977C61.3216 34.0328 61.3216 31.7401 61.3455 29.4712H45.9412V28.6592H61.3455C61.3694 26.7963 61.3694 24.9574 61.3933 23.1184H45.9412V22.3064H45.8218V22.2825H61.3933C61.4171 20.0376 61.4171 17.8165 61.441 15.5715H35.5284V22.3064H34.6925V8.76496C26.1903 8.90825 17.6642 10.6039 9.11417 13.9236L9.09029 13.0638C17.8791 9.6725 26.6679 8.00071 35.4328 7.92906C44.1261 7.85742 52.7955 9.36202 61.441 12.3474C61.441 12.6339 61.441 12.9205 61.441 13.2071C61.4649 10.4845 61.4888 7.76188 61.4888 5.06315C52.7716 2.17335 44.0545 0.812038 35.3612 0.955333C26.5246 1.09863 17.7119 2.7943 8.89923 6.06622L9.32911 21.16C9.37688 26.2232 9.40076 31.2863 9.44853 36.3733C9.44853 36.3733 9.44853 36.3733 9.44853 36.3494H24.9961V36.6838C24.9961 36.8509 24.9961 37.0181 25.02 37.1853H9.42464C9.47241 39.0959 9.87841 41.317 10.571 43.6575C10.571 43.6336 10.5471 43.6097 10.5471 43.5858H27.5993C27.7426 43.753 27.8859 43.9202 28.0531 44.0635L28.5785 44.4217H10.8098C11.5024 46.5234 12.4339 48.7206 13.628 50.9178ZM10.7621 44.2546C10.7382 44.2068 10.7382 44.159 10.7143 44.1351C10.7382 44.1829 10.7621 44.2068 10.7621 44.2546ZM10.6665 43.9441C10.6427 43.8963 10.6427 43.8485 10.6188 43.8008C10.6427 43.8485 10.6665 43.8963 10.6665 43.9441ZM61.25 36.6838V36.7076C61.25 36.7076 61.25 36.7076 61.25 36.6838ZM61.25 36.827V36.8509C61.25 36.8509 61.25 36.8509 61.25 36.827ZM61.25 36.827C61.25 36.8032 61.25 36.8032 61.25 36.8032V36.827ZM61.25 36.7554C61.25 36.7315 61.25 36.7315 61.25 36.7315V36.7554ZM61.25 36.3972C61.25 36.3733 61.25 36.3733 61.25 36.3733V36.3972ZM35.5284 14.7595H61.4171C61.4171 14.9028 61.4171 15.0222 61.4171 15.1655C61.4171 14.5207 61.4171 13.8758 61.4171 13.231C52.7955 10.2218 44.1739 8.71719 35.5284 8.76496V14.7595ZM35.4806 69.0208C35.4567 69.0208 35.4567 69.0208 35.4328 69.0447C35.4567 69.0447 35.4567 69.0447 35.4806 69.0208ZM35.1462 68.9731C35.0746 68.9492 35.0268 68.9492 34.9552 68.9253C35.0268 68.9253 35.0985 68.9492 35.1462 68.9731Z" fill="#434852"/>
<path d="M12.816 18.5091C13.2698 18.2225 13.7474 17.9359 14.2251 17.6971C14.1534 16.9567 14.0818 15.8104 14.2728 15.1894C14.6311 14.0431 15.6819 13.1116 16.9238 13.3266C16.9955 13.3505 17.0432 13.4221 16.9955 13.446C16.3029 13.8042 15.7536 14.3535 15.4431 15.1178C15.3476 15.3327 15.0132 16.8612 15.5147 16.9806C15.5625 17.0045 15.6103 17.0045 15.6819 17.0045C16.5895 16.6224 17.5209 16.288 18.4762 16.0014C18.4762 15.2611 18.5001 14.2341 18.7628 13.6848C19.2404 12.6101 20.4346 11.822 21.7242 12.2041C21.7959 12.228 21.8436 12.3235 21.7959 12.3474C21.0316 12.6101 20.4107 13.0639 20.0047 13.7803C19.8853 13.9953 19.3837 15.4521 19.9091 15.6432H19.933C20.8167 15.4521 21.7242 15.285 22.7034 15.1655C22.8228 14.4252 23.0139 13.4699 23.3482 12.9683C24.0647 11.9175 25.4977 11.201 26.8351 11.7026C26.9068 11.7264 26.9545 11.822 26.8829 11.8459C25.9992 12.0608 25.235 12.4668 24.6857 13.1594C24.5424 13.3505 23.802 14.6879 24.2319 14.9984C24.2797 14.9984 24.3274 14.9984 24.3752 14.9745C25.1394 14.9028 26.0231 14.8789 26.859 14.9267C27.0739 14.4729 27.2889 14.0669 27.5277 13.8042C28.3636 12.9445 30.2026 12.634 30.7519 13.3743C30.7996 13.4221 30.8235 13.5176 30.7519 13.5176C29.9637 13.5415 29.1517 13.6609 28.5547 14.2102C28.4591 14.3058 28.1248 14.6401 27.9337 15.0222C29.1995 15.2372 30.2742 15.6671 30.6086 16.4791C30.728 16.7418 30.7996 16.9806 30.7519 17.2672C30.7519 17.3389 30.5847 17.2911 30.5369 17.2194C28.9368 15.7387 26.3813 15.5715 22.9661 16.1686C19.5031 16.7657 16.6133 17.7926 13.5086 19.2734C14.7505 20.6824 12.7921 21.7571 12.1473 20.2764C10.6427 22.0676 9.25749 19.4644 11.3114 19.1539C10.1411 17.3389 12.5055 17.2672 12.816 18.5091Z" fill="#434852"/>
<path d="M13.2457 32.7909C13.6518 32.4804 14.1772 32.2177 14.6071 31.955C14.1772 31.2624 13.9145 30.2594 14.0816 29.6145C14.3682 28.4682 15.0847 27.9189 15.9684 27.9666C16.04 27.9666 16.0878 28.0622 16.04 28.086C15.4191 28.492 15.3235 29.0175 15.1325 29.8056C15.0369 30.2355 15.2758 30.952 15.5862 31.2147C16.3744 30.7848 16.3505 30.8564 17.1864 30.546C16.9476 29.8056 16.9953 28.8025 17.3058 28.1816C17.7834 27.1785 18.5716 26.7964 19.3597 26.9636C19.4313 26.9874 19.4791 27.0591 19.4075 27.083C18.7865 27.3457 17.5207 28.3487 18.3566 30.2355C19.1209 29.9728 19.1686 29.925 20.1478 29.7101C20.2195 28.9697 20.2434 28.086 20.53 27.5606C21.127 26.4859 22.5361 25.9844 23.1809 26.2471C23.2526 26.271 23.3003 26.3665 23.2287 26.3904C22.8704 26.6292 22.3928 26.8203 21.9151 27.5367C21.6524 27.9189 21.1987 28.8025 21.3181 29.3996C22.0107 29.3041 22.9182 29.2563 23.7063 29.2802C23.8735 28.8264 24.2079 28.2771 24.4228 28.0144C24.5661 27.8472 24.7572 27.7039 24.9482 27.6323V30.3071C23.6347 30.2355 22.1779 30.3788 20.7927 30.7131C17.664 31.4535 16.852 32.0267 14.0578 33.5313C15.7295 34.5821 14.1055 36.1823 13.0786 34.606C11.2635 36.6838 10.0932 34.0089 11.98 33.6029C10.547 31.8595 12.8875 30.9281 13.2457 32.7909Z" fill="#434852"/>
<path d="M12.4338 25.6738C12.9114 25.3872 13.5563 25.1723 14.0339 24.9335C13.9862 24.1931 13.8906 23.5244 14.1056 22.9034C14.4877 21.781 15.0848 21.2078 16.0401 21.3033C16.1117 21.3272 16.1595 21.3988 16.1117 21.4466C15.4191 21.8048 15.5863 22.2825 15.2758 23.0229C15.1803 23.2378 14.9415 24.1453 15.443 24.2886C15.4908 24.3125 15.5385 24.3125 15.6102 24.3125C16.5177 23.9543 16.1834 23.9782 17.1148 23.7393C17.1387 23.0229 17.1864 22.0437 17.4253 21.5183C17.9268 20.4913 18.8582 19.9898 19.718 20.2047C19.7896 20.2286 19.9329 20.3958 19.8613 20.4196C19.1687 20.6346 17.9746 22.0437 18.4761 23.1423C19.0732 23.0467 19.4792 22.8557 20.5539 22.7124C20.6972 21.972 20.936 21.2317 21.2942 20.7301C22.0346 19.7032 23.181 19.4882 23.8497 19.7987C23.9213 19.8226 24.0169 20.0136 23.9452 20.0375C23.0616 20.2286 23.0377 20.1331 22.4645 20.8257C22.154 21.1839 21.5331 22.1631 21.9868 22.6169C22.7511 22.5691 23.2765 22.4736 24.1124 22.5452C24.3273 22.1153 24.4945 21.5183 24.7333 21.2794C25.5692 20.4196 27.0261 20.348 27.5037 20.9212C27.5515 20.9689 27.5754 21.0645 27.5037 21.0645C26.7156 21.0884 26.429 21.3033 25.8081 21.8526C25.7364 21.9004 25.5931 22.0914 25.4259 22.3303H24.9722V23.811C23.6825 23.6916 22.2734 23.7393 20.9599 23.9304C17.4969 24.4558 16.2311 25.2439 13.3652 26.6291C14.5832 28.0621 12.601 29.0652 12.0039 27.5606C10.4754 29.3279 9.11409 26.6769 11.2158 26.4142C10.0455 24.5275 12.0994 24.0259 12.4338 25.6738Z" fill="#434852"/>
<path d="M45.4157 22.8079V36.6837C45.4157 42.1529 40.9496 46.595 35.4327 46.595C29.9397 46.595 25.4498 42.1529 25.4498 36.6837V22.8079H45.4157ZM45.8933 22.3064H24.9482V36.6599C24.9482 42.3678 29.6531 47.0727 35.4088 47.0727C41.1884 47.0727 45.8694 42.3678 45.8694 36.6599L45.8933 22.3064Z" fill="#434852"/>
<path d="M34.9792 32.4804C35.0747 32.5759 35.2897 32.4565 35.3613 32.361C35.5285 32.0983 35.5046 31.7639 35.5285 31.4296C35.5524 31.0713 35.5524 30.7609 35.4329 30.4265C35.2419 29.8533 34.9792 29.3995 34.3343 29.304C34.2627 29.2801 34.1194 29.4234 34.1672 29.4712C34.5971 29.925 34.7642 29.9011 34.8836 30.5937C35.0031 31.2624 34.9314 32.4326 34.9792 32.4804ZM30.4654 40.8154C30.5609 40.8393 30.7758 40.5527 30.8475 40.3856C30.9191 40.2423 30.8952 39.9557 30.8952 39.9318C30.8714 39.884 30.6325 39.9795 30.5131 39.9795C30.3937 39.9795 30.2982 39.9557 30.131 39.9318C29.9638 39.9079 29.9877 39.5258 29.9638 39.3108C29.9161 38.7615 29.8922 38.2122 29.9161 37.6629C29.9161 37.5196 29.9638 37.3286 30.0832 37.233C30.2504 37.1375 30.4892 37.1614 30.6803 37.1853C31.0624 37.2569 31.4207 37.448 31.8267 37.5196C32.0416 37.5674 32.2804 37.5435 32.4954 37.4719C32.6864 37.4241 32.8297 37.2808 32.9969 37.2092C33.0925 37.1853 33.2119 37.1614 33.2835 37.2092C33.594 37.3763 33.8089 37.6868 34.1194 37.8062C34.5254 37.9256 34.9553 37.8779 35.3852 37.9018C35.7195 37.9018 36.0539 37.854 36.3883 37.9018C36.5316 37.9256 36.7704 37.9495 36.8181 38.1167C36.8659 38.3316 36.5077 38.5227 36.5554 38.7376C36.651 39.072 37.0331 39.2392 37.2003 39.5258C37.2719 39.6452 37.248 39.7885 37.2003 39.9079C37.1525 40.0034 36.9853 40.0273 36.9137 40.1228C36.8181 40.2661 36.7943 40.4333 36.6987 40.5766C36.6032 40.7199 36.4599 40.8393 36.3166 40.9587C36.0061 41.1976 35.6957 41.4364 35.3374 41.6274C35.218 41.6991 35.0031 41.5558 34.9553 41.6752C34.8598 41.8902 34.7642 42.1529 34.6687 42.2962C34.5732 42.4395 34.4538 42.4633 34.3821 42.535C34.3105 42.6305 34.2149 42.7977 34.2627 42.8216C34.3105 42.8455 34.7642 42.8455 34.9314 42.8216C35.0986 42.7977 35.1941 42.7738 35.2419 42.7499C35.2897 42.7022 35.218 42.5589 35.1702 42.2723C35.1464 41.9857 35.9345 41.8663 36.3166 41.6513C36.7226 41.3886 37.1286 41.102 37.5346 40.8632C37.7018 40.7677 37.9406 40.7438 38.0839 40.6005C38.1556 40.5288 38.1317 40.4094 38.1317 40.3139C38.1317 40.0751 38.0839 39.8363 38.0839 39.5974C38.0839 39.478 38.0839 39.3347 38.1795 39.2631C38.2511 39.1914 38.3944 39.1675 38.466 39.2153C38.6093 39.287 38.6332 39.5019 38.7526 39.5974C38.9437 39.7407 39.1825 39.7885 39.3975 39.884C39.5885 39.9795 39.9229 39.9795 39.9468 40.1706C39.9945 40.5288 39.7557 40.8632 39.6124 41.1737C39.5408 41.3409 39.3736 41.4364 39.2781 41.6036C39.2303 41.6991 39.2303 41.8185 39.1586 41.8902C38.9676 42.0812 38.7049 42.2006 38.5138 42.3917C38.3705 42.535 38.2511 42.6783 38.1795 42.8455C38.1317 42.941 38.1078 43.0365 38.06 43.1321C37.9884 43.2276 37.869 43.2515 37.7973 43.3948C37.7257 43.5381 37.5585 43.9202 37.7018 43.8963C37.8451 43.8724 38.681 43.7291 38.7049 43.6336C38.7288 43.5619 38.6571 43.347 38.6093 43.0843C38.5616 42.8216 39.1586 42.6305 39.4452 42.4633C39.6124 42.3678 39.8512 42.4156 39.9945 42.2962C40.0901 42.2245 40.0423 42.0573 40.0662 41.9618C40.1378 41.7946 40.1856 41.6036 40.3289 41.4603C40.4961 41.2692 40.7827 41.1976 40.926 41.0065C41.0693 40.7677 41.2364 40.4811 41.1887 40.2184C41.1409 40.0034 40.8782 39.9318 40.7349 39.7646C40.6155 39.6452 40.4961 39.5019 40.4483 39.3347C40.3767 39.0959 40.3289 38.8571 40.4005 38.6182C40.4961 38.3316 40.7827 38.1406 40.9498 37.9018C41.0931 37.6868 41.3081 37.5196 41.3797 37.2808C41.4514 36.9942 41.3081 36.6837 41.2842 36.3972C41.2842 36.3494 41.2364 36.2777 41.2842 36.23C41.4753 36.0628 41.6902 35.8478 41.9529 35.8001C42.1917 35.7762 42.3828 36.015 42.6216 36.0628C42.8604 36.0867 43.147 36.1106 43.3859 36.015C43.4575 35.9911 43.4814 35.824 43.4336 35.7523C43.2665 35.609 42.9082 35.6568 42.8366 35.4657C42.7888 35.2986 43.1232 35.2508 43.2187 35.0836C43.3381 34.8687 43.4336 34.6298 43.4336 34.3671C43.4336 34.2716 43.2426 34.2716 43.1709 34.3194C43.0515 34.391 43.0515 34.5582 42.956 34.6537C42.8843 34.7254 42.7649 34.7493 42.6694 34.7493C42.5739 34.7493 42.4306 34.7015 42.3828 34.6298C42.3111 34.5582 42.2634 34.391 42.335 34.3432C42.5261 34.2238 42.7888 34.2716 43.0037 34.2238C43.0993 34.2 43.2187 34.1761 43.2665 34.1044C43.3381 33.9611 43.3381 33.7939 43.2665 33.6506C43.2426 33.579 43.1232 33.579 43.0515 33.6029C42.956 33.6268 42.9082 33.7701 42.7888 33.7701C42.6455 33.7701 42.5022 33.6984 42.4067 33.6029C42.335 33.5074 42.3111 33.3641 42.3589 33.2685C42.4306 33.1013 42.6694 33.0536 42.741 32.8864C42.8366 32.6715 42.9082 32.4088 42.8604 32.1699C42.8366 32.0744 42.6455 32.0266 42.5739 32.0983C42.4544 32.1699 42.4783 32.3371 42.4067 32.4326C42.3111 32.5759 42.2634 32.7909 42.1201 32.8625C42.0246 32.9103 41.8574 32.8148 41.8335 32.6953C41.7857 32.5043 41.9051 32.3132 41.9529 32.146C42.0246 31.955 42.1201 31.7639 42.2395 31.5967C42.3589 31.4296 42.5977 31.3579 42.6933 31.1669C42.7649 31.0236 42.8366 30.8325 42.741 30.7131C42.6694 30.6176 42.5022 30.6892 42.4067 30.7609C42.335 30.8086 42.3589 30.9758 42.2873 31.0236C42.0723 31.1191 41.8096 31.0474 41.6186 31.143C41.4514 31.2385 41.3797 31.4057 41.2842 31.5729C41.117 31.8595 41.0931 32.361 41.0215 32.4088C40.9498 32.4804 40.7827 32.4565 40.7349 32.361C40.6632 32.2416 40.7827 32.0505 40.6871 31.9311C40.6155 31.8595 40.4244 31.8595 40.3528 31.9311C40.2572 32.0266 40.2334 32.1699 40.2334 32.3132C40.2334 32.5282 40.2572 32.7431 40.3528 32.9342C40.5199 33.2446 40.7827 33.4835 40.9976 33.7701C41.2125 34.0567 41.4753 34.3194 41.5947 34.6537C41.6663 34.8687 41.6902 35.1314 41.5947 35.3224C41.523 35.5135 41.332 35.7046 41.1409 35.7046C40.8782 35.6807 40.6871 35.3941 40.4722 35.2508C40.2572 35.1075 40.0423 34.9164 39.8035 34.8687C39.2542 34.7731 38.681 34.8687 38.1078 34.8687C37.6063 34.8687 37.0809 34.9403 36.5793 34.8687C36.3405 34.8448 36.0778 34.7493 35.9106 34.5821C35.7434 34.4149 35.624 34.1761 35.624 33.9611C35.6001 33.6506 35.7195 33.3641 35.839 33.0775C35.9345 32.8864 36.0778 32.6953 36.2688 32.5759C36.4121 32.4804 36.651 32.4326 36.7943 32.4804C36.9614 32.552 37.4152 33.173 37.5107 33.1491C37.6063 33.1252 37.5346 32.5759 37.4869 32.4088C37.3913 32.146 37.1047 32.0027 37.0331 31.74C37.0092 31.6684 37.1286 31.5729 37.2003 31.5729C37.3436 31.5729 37.5107 31.6684 37.6302 31.7878C37.7018 31.8356 38.0123 32.2893 38.0839 32.2655C38.1556 32.2416 38.0362 31.6206 37.9645 31.4296C37.8451 31.1669 37.463 30.9758 37.4391 30.9041C37.4152 30.8564 37.4391 30.8086 37.5107 30.7847C37.654 30.7847 37.7973 30.8564 37.9406 30.9041C38.06 30.9519 38.2511 31.0952 38.3227 31.0713C38.3944 31.0474 38.3227 30.8325 38.2511 30.737C37.9884 30.4265 37.6301 30.2354 37.3674 29.9488C37.2241 29.8055 37.0808 29.6145 37.0808 29.3995C37.0808 29.2801 37.2241 29.1607 37.3436 29.1129C37.5585 29.0174 37.8451 28.9697 38.0362 28.8502C38.1078 28.8025 38.06 28.7547 37.9884 28.7308C37.6779 28.6114 37.3436 28.5636 37.0092 28.5636C36.8181 28.5636 36.651 28.6831 36.4599 28.7308C36.3405 28.7786 36.2211 28.8502 36.0778 28.8502C35.839 28.8502 35.5762 28.8741 35.4091 28.7308C35.3135 28.6353 35.433 28.4442 35.5046 28.3009C35.5762 28.1815 35.6957 28.1099 35.7912 28.0143C35.8628 27.9427 36.0778 27.8711 36.0061 27.8472C35.9345 27.8233 35.5524 27.8233 35.3374 27.8949C35.1464 27.9427 34.9792 28.0143 34.8359 28.1576C34.7165 28.2771 34.7404 28.5398 34.5732 28.6114C34.2866 28.7786 34.1433 28.7308 33.8328 28.8741C33.7612 28.9219 33.594 29.1129 33.5223 29.1368C33.1402 29.1846 32.376 28.9935 32.3521 29.0652C32.3043 29.1368 32.9492 29.4951 33.0686 29.8294C33.1163 29.9727 32.7581 29.7578 32.6148 29.7817C32.376 29.8055 32.1371 29.8533 31.9461 29.9488C31.755 30.0444 31.5878 30.2115 31.4445 30.3787C31.3013 30.522 31.2296 30.7131 31.0624 30.8325C30.9908 30.8803 30.8236 30.8086 30.7758 30.8803C30.7042 30.9758 30.6803 31.1907 30.7997 31.1907L31.4684 31.2385C31.5878 31.2385 31.349 31.5012 31.4207 31.6206C31.4684 31.6923 31.6356 31.6684 31.7073 31.6206C31.8028 31.5729 31.8506 31.4296 31.97 31.3579C32.0894 31.2863 32.2088 31.1907 32.3521 31.1907C32.5193 31.1907 32.7342 31.2624 32.8059 31.4057C32.8775 31.549 32.7103 31.7162 32.6864 31.8595C32.6626 32.0266 32.7581 32.2416 32.6387 32.361C32.2804 32.6953 32.161 32.4088 31.6356 33.0775C31.2057 33.6029 31.3968 33.3163 31.2535 34.0089C31.2296 34.1522 31.2057 34.2955 31.0863 34.391C30.9669 34.4627 30.7758 34.5104 30.6564 34.4388C30.4176 34.3194 30.2743 34.0805 30.1071 33.8417C30.0116 33.7223 30.0594 33.5074 29.9399 33.4118C29.7728 33.3163 29.5339 33.3163 29.3429 33.3641C29.1996 33.4118 29.1279 33.579 29.0563 33.6984C28.8652 33.9611 28.7219 34.2716 28.5547 34.5343C28.4115 34.7493 28.2204 34.9403 28.101 35.1553C28.0293 35.2747 28.0771 35.418 28.0054 35.5374C27.8622 35.8717 27.7427 36.1822 27.5756 36.4927C27.5039 36.6121 27.3606 36.6837 27.3129 36.827C27.289 36.9703 27.3367 37.2808 27.4084 37.2808C27.48 37.2808 27.7189 37.1136 27.8622 37.0181C28.0293 36.9465 28.3398 36.8509 28.3637 36.8032C28.3876 36.7554 28.1965 36.5882 28.101 36.4688C27.9338 36.2539 28.292 35.9434 28.4353 35.7046C28.4831 35.609 28.6025 35.5851 28.6503 35.4896C28.7458 35.2986 28.7697 35.0597 28.8652 34.8687C28.9846 34.606 29.1279 34.3432 29.319 34.1522C29.4145 34.0567 29.5817 33.985 29.7011 34.0805C29.8922 34.1999 29.9161 34.4627 30.0355 34.6776C30.131 34.8209 30.2504 34.9642 30.2982 35.1314C30.3459 35.2747 30.2027 35.4657 30.2982 35.5851C30.4176 35.7284 30.6564 35.7762 30.8475 35.8001L31.2774 35.8479L31.3251 36.4449C31.349 36.6599 30.8714 36.4927 30.6564 36.5404C30.4654 36.5882 30.2743 36.6599 30.0594 36.7076C29.8683 36.7554 29.5101 36.5882 29.4623 36.8032C29.2951 37.6391 29.5101 38.4749 29.5578 39.3108C29.5578 39.5258 29.4384 39.884 29.6534 39.9795L30.0594 40.1467C30.131 40.3139 30.1788 40.5288 30.2743 40.6483C30.2504 40.7677 30.3698 40.7916 30.4654 40.8154Z" fill="#434852"/>
<path d="M43.6246 24.8857C43.6246 24.7186 43.5052 24.6469 43.2903 24.6469H42.4783C42.2633 24.6469 42.1439 24.7186 42.1439 24.8857C42.1439 25.0529 42.2633 25.1246 42.4783 25.1246H42.6455V26.6292C42.6455 26.8919 42.7171 27.0113 42.8843 27.0113C43.0515 27.0113 43.1231 26.8919 43.1231 26.6292V25.1246H43.2903C43.5291 25.1246 43.6246 25.0529 43.6246 24.8857ZM41.308 25.4112C41.308 25.6022 41.2125 25.6978 41.0214 25.6978H40.8065V25.1246H41.0214C41.2125 25.1246 41.308 25.2201 41.308 25.4112ZM41.8334 26.7725C41.8334 26.6769 41.7857 26.5814 41.6901 26.462L41.308 25.9843C41.6185 25.9127 41.8096 25.6739 41.8096 25.3395C41.8096 24.9096 41.523 24.5992 41.0214 24.5992H40.6632C40.4005 24.5992 40.3288 24.7186 40.3288 24.9813V26.6053C40.3288 26.868 40.4005 26.9874 40.5677 26.9874C40.7348 26.9874 40.8065 26.868 40.8065 26.6053V26.0321L41.3558 26.8202C41.4513 26.9397 41.523 27.0113 41.6185 27.0113C41.7379 27.0113 41.8334 26.9158 41.8334 26.7725ZM39.3019 26.0321H38.8003L39.0631 25.1723L39.3019 26.0321ZM39.9706 26.7486C39.9706 26.7008 39.9706 26.6531 39.9467 26.5814L39.4213 24.9096C39.3496 24.7186 39.2302 24.5992 39.0631 24.5992C38.8959 24.5992 38.7765 24.7186 38.7048 24.9335L38.1555 26.5814C38.1316 26.6292 38.1316 26.6769 38.1316 26.7247C38.1316 26.868 38.2272 26.9874 38.3466 26.9874C38.4421 26.9874 38.5376 26.9158 38.5854 26.7486L38.6571 26.5098H39.4213L39.4691 26.7247C39.5168 26.8919 39.5885 26.9874 39.7079 26.9874C39.8751 27.0113 39.9706 26.9158 39.9706 26.7486ZM37.7973 25.9127C37.7973 25.65 37.7017 25.5545 37.5107 25.5545H37.2002C37.0091 25.5545 36.9136 25.6261 36.9136 25.7933C36.9136 25.9605 37.0091 26.0321 37.2002 26.0321H37.3435C37.3435 26.3187 37.2002 26.5098 36.9614 26.5098C36.6987 26.5098 36.5076 26.2232 36.5076 25.7694C36.5076 25.3156 36.6987 25.0529 36.9614 25.0529C37.2241 25.0529 37.3435 25.2679 37.4629 25.2679C37.5585 25.2679 37.654 25.1485 37.654 25.029C37.654 24.7902 37.3913 24.5514 36.9853 24.5514C36.4121 24.5514 36.0538 25.029 36.0538 25.7933C36.0538 26.5336 36.4121 27.0352 36.9375 27.0352C37.4629 27.0352 37.7973 26.5575 37.7973 25.9127ZM35.9344 24.8857C35.9344 24.7186 35.815 24.6469 35.6001 24.6469H34.7881C34.5731 24.6469 34.4537 24.7186 34.4537 24.8857C34.4537 25.0529 34.5731 25.1246 34.7881 25.1246H34.9552V26.6292C34.9552 26.8919 35.0269 27.0113 35.1941 27.0113C35.3612 27.0113 35.4329 26.8919 35.4329 26.6292V25.1246H35.6001C35.815 25.1246 35.9344 25.0529 35.9344 24.8857ZM34.3582 24.8857C34.3582 24.7186 34.2388 24.6469 34.0238 24.6469H33.2118C32.9969 24.6469 32.8775 24.7186 32.8775 24.8857C32.8775 25.0529 32.9969 25.1246 33.2118 25.1246H33.379V26.6292C33.379 26.8919 33.4506 27.0113 33.6178 27.0113C33.785 27.0113 33.8566 26.8919 33.8566 26.6292V25.1246H34.0238C34.2388 25.1246 34.3582 25.0529 34.3582 24.8857ZM32.5909 25.9605V24.9813C32.5909 24.7186 32.5192 24.5992 32.352 24.5992C32.1849 24.5992 32.1132 24.7186 32.1132 24.9813V25.9127C32.1132 26.3187 31.9699 26.5336 31.7072 26.5336C31.4445 26.5336 31.3012 26.3187 31.3012 25.9127V24.9813C31.3012 24.7186 31.2296 24.5992 31.0624 24.5992C30.8952 24.5992 30.8235 24.7186 30.8235 24.9813V25.9605C30.8235 26.6531 31.1579 27.0352 31.7072 27.0352C32.2326 27.0352 32.5909 26.6531 32.5909 25.9605ZM30.6325 24.8857C30.6325 24.7186 30.5131 24.6469 30.2981 24.6469H29.4861C29.2712 24.6469 29.1518 24.7186 29.1518 24.8857C29.1518 25.0529 29.2712 25.1246 29.4861 25.1246H29.6533V26.6292C29.6533 26.8919 29.7249 27.0113 29.8921 27.0113C30.0593 27.0113 30.131 26.8919 30.131 26.6292V25.1246H30.2981C30.5131 25.1246 30.6325 25.0529 30.6325 24.8857ZM28.9846 26.2471C28.9846 25.8888 28.7935 25.6739 28.4114 25.5306C28.1726 25.435 28.0293 25.4112 28.0293 25.244C28.0293 25.1246 28.1248 25.0529 28.2681 25.0529C28.3875 25.0529 28.5308 25.1246 28.6263 25.1246C28.7696 25.1246 28.8413 25.029 28.8413 24.9096C28.8413 24.7186 28.6263 24.5753 28.2681 24.5753C27.8143 24.5753 27.5277 24.8857 27.5277 25.3156C27.5277 25.6739 27.7188 25.8411 28.1009 25.9843C28.3159 26.056 28.4592 26.1276 28.4592 26.3187C28.4592 26.462 28.3636 26.5575 28.2203 26.5575C28.0054 26.5575 27.8382 26.4381 27.7188 26.4381C27.5755 26.4381 27.48 26.5336 27.48 26.6769C27.48 26.868 27.7666 27.0591 28.1487 27.0591C28.6741 27.0352 28.9846 26.7008 28.9846 26.2471Z" fill="#434852"/>
</g>
<defs>
<clipPath id="clip0_17_372">
<rect width="70" height="70" fill="white" transform="translate(0.970215)"/>
</clipPath>
</defs>
</svg>
