<svg width="31" height="30" viewBox="0 0 31 30" fill="none" xmlns="http://www.w3.org/2000/svg">
<path d="M27.8325 15C27.8325 21.9037 22.2375 27.4987 15.3337 27.4987C8.42996 27.4987 2.83496 21.9037 2.83496 15C2.83496 8.09622 8.42996 2.50122 15.3337 2.50122C22.2375 2.50122 27.8325 8.09622 27.8325 15Z" fill="#8E93A6"/>
<path d="M11.6099 16.2675C11.6099 18.3412 13.2936 20.0213 15.3711 20.0213C17.4486 20.0213 19.1324 18.3412 19.1324 16.2675C19.1324 15.48 18.5886 14.385 17.9136 13.3312C16.9049 11.7562 16.4024 10.9688 15.3711 10.9688C14.3399 10.9688 13.8374 11.7562 12.8286 13.3312C12.1536 14.385 11.6099 15.48 11.6099 16.2675Z" fill="#3A475C"/>
<path d="M5.86133 6.84368C6.26633 6.37118 6.70883 5.93243 7.18133 5.52368C7.20383 5.54243 7.22633 5.56493 7.24883 5.58368L9.12383 7.45868C9.49133 7.82618 9.49133 8.41868 9.12383 8.78618C8.75633 9.15368 8.16383 9.15368 7.79633 8.78618L5.92133 6.91118C5.89883 6.89243 5.88008 6.86993 5.86133 6.84368Z" fill="#3A475C"/>
<path d="M2.86871 15.9375C2.84621 15.63 2.83496 15.315 2.83496 15C2.83496 14.685 2.84621 14.37 2.86871 14.0625H5.33246C5.84996 14.0625 6.26996 14.4825 6.26996 15C6.26996 15.5175 5.84996 15.9375 5.33246 15.9375H2.86871Z" fill="#3A475C"/>
<path d="M7.17742 24.4725C6.70492 24.0675 6.26617 23.625 5.85742 23.1525C5.87617 23.13 5.89867 23.1075 5.91742 23.085L7.79242 21.21C8.15992 20.8425 8.75242 20.8425 9.11992 21.21C9.48742 21.5775 9.48742 22.17 9.11992 22.5375L7.24492 24.4125C7.22617 24.435 7.20367 24.4537 7.17742 24.4725Z" fill="#3A475C"/>
<path d="M24.8062 23.1562C24.4012 23.6287 23.9587 24.0675 23.4862 24.4762C23.4637 24.4575 23.4412 24.435 23.4187 24.4162L21.5437 22.5412C21.1762 22.1737 21.1762 21.5812 21.5437 21.2137C21.9112 20.8462 22.5037 20.8462 22.8712 21.2137L24.7462 23.0887C24.7687 23.1075 24.7874 23.13 24.8062 23.1562Z" fill="#3A475C"/>
<path d="M27.7986 14.0625C27.8211 14.3738 27.8323 14.685 27.8323 15C27.8323 15.315 27.8211 15.6263 27.7986 15.9375H25.3311C24.8136 15.9375 24.3936 15.5175 24.3936 15C24.3936 14.4825 24.8136 14.0625 25.3311 14.0625H27.7986Z" fill="#3A475C"/>
<path d="M23.4901 5.52747C23.9626 5.93247 24.4013 6.37497 24.8101 6.84747C24.7913 6.86997 24.7726 6.89247 24.7501 6.91497L22.8751 8.78997C22.5076 9.15747 21.9151 9.15747 21.5476 8.78997C21.1801 8.42247 21.1801 7.82997 21.5476 7.46247L23.4226 5.58747C23.4413 5.56497 23.4638 5.54622 23.4901 5.52747Z" fill="#3A475C"/>
<path d="M16.271 2.53497V4.99872C16.271 5.51622 15.851 5.93622 15.3335 5.93622C14.816 5.93622 14.396 5.51622 14.396 4.99872V2.53497C14.7072 2.51247 15.0185 2.50122 15.3335 2.50122C15.6485 2.50122 15.9597 2.51247 16.271 2.53497Z" fill="#3A475C"/>
</svg>
