<svg width="16" height="16" viewBox="0 0 16 16" fill="none" xmlns="http://www.w3.org/2000/svg">
<path fill-rule="evenodd" clip-rule="evenodd" d="M10.7271 6.91948C10.4796 6.91948 10.2787 6.7179 10.2787 6.46952V5.18142C10.2787 3.92391 9.25928 2.90099 8.00606 2.90099H7.9965C7.39082 2.90099 6.8234 3.13497 6.3947 3.56154C5.96301 3.98991 5.72445 4.56166 5.72206 5.17122V6.46952C5.72206 6.7179 5.52116 6.91948 5.27363 6.91948C5.02609 6.91948 4.8252 6.7179 4.8252 6.46952V5.18142C4.82878 4.31748 5.16182 3.52014 5.76271 2.92259C6.36421 2.32444 7.15823 1.97826 8.00786 2.00106C9.75375 2.00106 11.1756 3.42775 11.1756 5.18142V6.46952C11.1756 6.7179 10.9747 6.91948 10.7271 6.91948Z" fill="#90949E"/>
<path fill-rule="evenodd" clip-rule="evenodd" d="M5.71569 6.87674C4.71241 6.87674 3.89686 7.69507 3.89686 8.7018V11.275C3.89686 12.2817 4.71241 13.1001 5.71569 13.1001H10.2843C11.287 13.1001 12.1031 12.2817 12.1031 11.275V8.7018C12.1031 7.69507 11.287 6.87674 10.2843 6.87674H5.71569ZM10.2843 14H5.71569C4.21794 14 3 12.7779 3 11.275V8.7018C3 7.19891 4.21794 5.97681 5.71569 5.97681H10.2843C11.7821 5.97681 13 7.19891 13 8.7018V11.275C13 12.7779 11.7821 14 10.2843 14Z" fill="#90949E"/>
<path fill-rule="evenodd" clip-rule="evenodd" d="M7.99921 11.1046C7.75168 11.1046 7.55078 10.903 7.55078 10.6547V9.32216C7.55078 9.07378 7.75168 8.87219 7.99921 8.87219C8.24675 8.87219 8.44764 9.07378 8.44764 9.32216V10.6547C8.44764 10.903 8.24675 11.1046 7.99921 11.1046Z" fill="#90949E"/>
</svg>
