<svg width="16" height="16" viewBox="0 0 16 16" fill="none" xmlns="http://www.w3.org/2000/svg">
<path d="M11.793 7.50063H2.5C2.36739 7.50063 2.24021 7.55331 2.14645 7.64708C2.05268 7.74085 2 7.86802 2 8.00063C2 8.13324 2.05268 8.26042 2.14645 8.35419C2.24021 8.44795 2.36739 8.50063 2.5 8.50063H11.793L8.146 12.1466C8.05211 12.2405 7.99937 12.3679 7.99937 12.5006C7.99937 12.6334 8.05211 12.7607 8.146 12.8546C8.23989 12.9485 8.36722 13.0013 8.5 13.0013C8.63278 13.0013 8.76011 12.9485 8.854 12.8546L13.354 8.35463C13.4006 8.30819 13.4375 8.25301 13.4627 8.19226C13.4879 8.13152 13.5009 8.0664 13.5009 8.00063C13.5009 7.93486 13.4879 7.86974 13.4627 7.809C13.4375 7.74825 13.4006 7.69308 13.354 7.64663L8.854 3.14663C8.76011 3.05274 8.63278 3 8.5 3C8.36722 3 8.23989 3.05274 8.146 3.14663C8.05211 3.24052 7.99937 3.36786 7.99937 3.50063C7.99937 3.63341 8.05211 3.76075 8.146 3.85463L11.793 7.50063Z" fill="black"/>
</svg>
