<svg width="19" height="13" viewBox="0 0 19 13" fill="none" xmlns="http://www.w3.org/2000/svg">
<path d="M18.3776 5.52102L13.0337 0.345843C12.9347 0.226048 12.8089 0.138198 12.6564 0.0822926C12.5038 0.0263882 12.3492 0.0164051 12.1925 0.0523443C12.0358 0.0882826 11.8997 0.16016 11.7843 0.267977C11.6688 0.375793 11.5925 0.507568 11.5554 0.663302C11.5183 0.819037 11.5265 0.970778 11.5801 1.11853C11.6338 1.26627 11.7224 1.38807 11.8461 1.4839L15.7675 5.29341H1.49221C1.2778 5.31737 1.10049 5.40721 0.960294 5.56295C0.820098 5.71868 0.75 5.89838 0.75 6.10203C0.75 6.30568 0.820098 6.48538 0.960294 6.64111C1.10049 6.79685 1.2778 6.88669 1.49221 6.91065H15.7675L11.8461 10.7082C11.6977 10.8679 11.6276 11.0556 11.6358 11.2712C11.6441 11.4868 11.7265 11.6705 11.8832 11.8223C12.0399 11.974 12.2296 12.0539 12.4522 12.0619C12.6749 12.0699 12.8687 12.002 13.0337 11.8582L18.3776 6.67106C18.5425 6.51133 18.625 6.31966 18.625 6.09604C18.625 5.87242 18.5425 5.68075 18.3776 5.52102Z" fill="#0453C8"/>
</svg>
