<svg width="18" height="18" viewBox="0 0 18 18" fill="none" xmlns="http://www.w3.org/2000/svg">
<path d="M8.08874 14.9167C6.78526 14.9167 5.57244 14.588 4.45031 13.9306C3.36218 13.2959 2.50074 12.4344 1.866 11.3463C1.20859 10.2242 0.879883 9.01136 0.879883 7.70787C0.879883 6.40438 1.20859 5.19157 1.866 4.06944C2.50074 2.98131 3.36218 2.11987 4.45031 1.48513C5.57244 0.827717 6.78526 0.49901 8.08874 0.49901C9.39223 0.49901 10.605 0.827717 11.7272 1.48513C12.8153 2.11987 13.6767 2.98131 14.3115 4.06944C14.9689 5.19157 15.2976 6.40438 15.2976 7.70787C15.2976 8.65999 15.1163 9.5781 14.7535 10.4622C14.3908 11.3463 13.8694 12.1284 13.1894 12.8085C12.5093 13.4886 11.7272 14.01 10.8431 14.3727C9.95897 14.7354 9.04086 14.9167 8.08874 14.9167ZM8.08874 1.60414C6.97795 1.60414 5.95216 1.88184 5.01138 2.43724C4.09327 2.98131 3.36218 3.7124 2.81811 4.6305C2.26271 5.57128 1.98501 6.59707 1.98501 7.70787C1.98501 8.81867 2.26271 9.84446 2.81811 10.7852C3.36218 11.7034 4.09327 12.4344 5.01138 12.9785C5.95216 13.5339 6.97795 13.8116 8.08874 13.8116C9.19954 13.8116 10.2253 13.5339 11.1661 12.9785C12.0842 12.4344 12.8153 11.7034 13.3594 10.7852C13.9148 9.84446 14.1925 8.81867 14.1925 7.70787C14.1925 6.59707 13.9148 5.57128 13.3594 4.6305C12.8153 3.7124 12.0842 2.98131 11.1661 2.43724C10.2253 1.88184 9.19954 1.60414 8.08874 1.60414ZM17.0658 17.501C16.9071 17.5124 16.7711 17.467 16.6578 17.365L12.2712 12.9615C12.2032 12.8935 12.1551 12.8113 12.1267 12.715C12.0984 12.6186 12.0956 12.5251 12.1182 12.4344C12.1409 12.3438 12.1891 12.2616 12.2627 12.1879C12.3364 12.1142 12.4186 12.0661 12.5093 12.0434C12.6 12.0207 12.6935 12.0207 12.7898 12.0434C12.8862 12.0661 12.9683 12.1114 13.0363 12.1794L17.4399 16.5829C17.5532 16.6849 17.6099 16.8153 17.6099 16.974C17.6099 17.1327 17.556 17.2658 17.4484 17.3735C17.3407 17.4812 17.2132 17.5237 17.0658 17.501Z" fill="#213D66"/>
</svg>
