<svg width="18" height="60" viewBox="0 0 18 60" fill="none" xmlns="http://www.w3.org/2000/svg">
<path d="M8.08972 35.9167C6.78623 35.9167 5.57342 35.588 4.45129 34.9306C3.36316 34.2959 2.50172 33.4344 1.86698 32.3463C1.20957 31.2242 0.880859 30.0114 0.880859 28.7079C0.880859 27.4044 1.20957 26.1916 1.86698 25.0694C2.50172 23.9813 3.36316 23.1199 4.45129 22.4851C5.57342 21.8277 6.78623 21.499 8.08972 21.499C9.39321 21.499 10.606 21.8277 11.7282 22.4851C12.8163 23.1199 13.6777 23.9813 14.3125 25.0694C14.9699 26.1916 15.2986 27.4044 15.2986 28.7079C15.2986 29.66 15.1172 30.5781 14.7545 31.4622C14.3918 32.3463 13.8704 33.1284 13.1903 33.8085C12.5103 34.4886 11.7282 35.01 10.8441 35.3727C9.95994 35.7354 9.04183 35.9167 8.08972 35.9167ZM8.08972 22.6041C6.97892 22.6041 5.95313 22.8818 5.01235 23.4372C4.09424 23.9813 3.36316 24.7124 2.81909 25.6305C2.26369 26.5713 1.98599 27.5971 1.98599 28.7079C1.98599 29.8187 2.26369 30.8445 2.81909 31.7852C3.36316 32.7034 4.09424 33.4344 5.01235 33.9785C5.95313 34.5339 6.97892 34.8116 8.08972 34.8116C9.20052 34.8116 10.2263 34.5339 11.1671 33.9785C12.0852 33.4344 12.8163 32.7034 13.3604 31.7852C13.9158 30.8445 14.1935 29.8187 14.1935 28.7079C14.1935 27.5971 13.9158 26.5713 13.3604 25.6305C12.8163 24.7124 12.0852 23.9813 11.1671 23.4372C10.2263 22.8818 9.20052 22.6041 8.08972 22.6041ZM17.0668 38.501C16.9081 38.5124 16.7721 38.467 16.6587 38.365L12.2722 33.9615C12.2042 33.8935 12.156 33.8113 12.1277 33.715C12.0994 33.6186 12.0965 33.5251 12.1192 33.4344C12.1419 33.3438 12.19 33.2616 12.2637 33.1879C12.3374 33.1142 12.4196 33.0661 12.5103 33.0434C12.6009 33.0207 12.6944 33.0207 12.7908 33.0434C12.8871 33.0661 12.9693 33.1114 13.0373 33.1794L17.4408 37.5829C17.5542 37.6849 17.6109 37.8153 17.6109 37.974C17.6109 38.1327 17.557 38.2658 17.4493 38.3735C17.3417 38.4812 17.2141 38.5237 17.0668 38.501Z" fill="#213D66"/>
</svg>
