<svg width="45" height="50" viewBox="0 0 45 50" fill="none" xmlns="http://www.w3.org/2000/svg">
<path d="M0.945 7.70494C-1.43051e-07 9.04744 0 13.0449 0 21.0399V24.9774C0 39.0699 10.5975 45.9099 17.25 48.8199C19.05 49.6074 19.9575 50.0049 22.5 50.0049C25.0425 50.0049 25.95 49.6074 27.75 48.8199C34.4025 45.9174 45 39.0774 45 24.9774V21.0399C45 13.0449 45 9.04744 44.055 7.70494C43.11 6.36244 39.3525 5.07244 31.8375 2.49994L30.405 2.01244C26.49 0.669942 24.525 0.00244141 22.5 0.00244141C20.475 0.00244141 18.51 0.669942 14.595 2.01244L13.1625 2.49994C5.6475 5.07244 1.89 6.36244 0.945 7.70494Z" fill="#0453C8" fill-opacity="0.4"/>
<path d="M30.15 21.2499C30.84 20.4774 30.7725 19.2924 30 18.6024C29.2275 17.9124 28.0425 17.9799 27.3525 18.7524L19.8225 27.1824L17.6475 24.7524C16.9575 23.9799 15.7725 23.9124 15 24.6024C14.2275 25.2924 14.16 26.4774 14.85 27.2499L18.42 31.2474C18.7725 31.6449 19.2825 31.8699 19.8225 31.8699C20.355 31.8699 20.865 31.6449 21.2175 31.2474L30.15 21.2499Z" fill="#0453C8"/>
</svg>
