<svg width="61" height="60" viewBox="0 0 61 60" fill="none" xmlns="http://www.w3.org/2000/svg">
<path d="M50.5004 48H42.5003C41.9698 48 41.4611 48.2107 41.086 48.5858C40.711 48.9609 40.5002 49.4696 40.5002 50V54.0001C40.5002 55.061 40.9217 56.0784 41.6718 56.8286C42.422 57.5788 43.4394 58.0002 44.5003 58.0002H48.5004C49.5613 58.0002 50.5787 57.5788 51.3289 56.8286C52.079 56.0784 52.5005 55.061 52.5005 54.0001V50C52.5005 49.4696 52.2898 48.9609 51.9147 48.5858C51.5396 48.2107 51.0309 48 50.5004 48Z" fill="#8DAEE1"/>
<path d="M18.4997 48H10.4995C9.96911 48 9.46039 48.2107 9.08531 48.5858C8.71023 48.9609 8.49951 49.4696 8.49951 50V54.0001C8.49951 55.061 8.92095 56.0784 9.67111 56.8286C10.4213 57.5788 11.4387 58.0002 12.4996 58.0002H16.4997C17.5605 58.0002 18.578 57.5788 19.3281 56.8286C20.0783 56.0784 20.4997 55.061 20.4997 54.0001V50C20.4997 49.4696 20.289 48.9609 19.9139 48.5858C19.5389 48.2107 19.0301 48 18.4997 48Z" fill="#8DAEE1"/>
<path d="M52.5004 35.9996H46.5003C45.9698 35.9996 45.4611 35.7889 45.086 35.4138C44.711 35.0387 44.5002 34.53 44.5002 33.9995C44.5002 33.4691 44.711 32.9604 45.086 32.5853C45.4611 32.2102 45.9698 31.9995 46.5003 31.9995H52.5004C53.0308 31.9995 53.5396 32.2102 53.9146 32.5853C54.2897 32.9604 54.5004 33.4691 54.5004 33.9995C54.5004 34.53 54.2897 35.0387 53.9146 35.4138C53.5396 35.7889 53.0308 35.9996 52.5004 35.9996Z" fill="#0453C8"/>
<path d="M14.4997 35.9996H8.49955C7.96911 35.9996 7.46039 35.7889 7.08531 35.4138C6.71023 35.0387 6.49951 34.53 6.49951 33.9995C6.49951 33.4691 6.71023 32.9604 7.08531 32.5853C7.46039 32.2102 7.96911 31.9995 8.49955 31.9995H14.4997C15.0301 31.9995 15.5388 32.2102 15.9139 32.5853C16.289 32.9604 16.4997 33.4691 16.4997 33.9995C16.4997 34.53 16.289 35.0387 15.9139 35.4138C15.5388 35.7889 15.0301 35.9996 14.4997 35.9996Z" fill="#0453C8"/>
<path d="M53.3004 39.7339L48.2103 32.9457L45.3962 27.3156C44.9009 26.3164 44.1353 25.476 43.1864 24.8899C42.2376 24.3037 41.1434 23.9953 40.0281 23.9996H20.9718C19.8568 23.9957 18.7631 24.3043 17.8146 24.8904C16.8662 25.4765 16.1009 26.3167 15.6057 27.3156L12.7916 32.9457L7.69953 39.7319C6.92316 40.7718 6.50238 42.0341 6.49951 43.3319V48C6.49951 49.0609 6.92095 50.0783 7.67111 50.8285C8.42127 51.5786 9.4387 52.0001 10.4996 52.0001H50.5003C51.5612 52.0001 52.5787 51.5786 53.3288 50.8285C54.079 50.0783 54.5004 49.0609 54.5004 48V43.3339C54.4983 42.036 54.0774 40.7735 53.3004 39.7339ZM16.2997 34.8938L19.1937 29.1057C19.359 28.775 19.6126 28.4966 19.9265 28.3014C20.2403 28.1061 20.6022 28.0017 20.9718 27.9996H40.0281C40.3995 27.9998 40.7634 28.1034 41.0792 28.2987C41.395 28.4941 41.6502 28.7735 41.8162 29.1057L44.7102 34.8938C44.765 35.0008 44.8285 35.1032 44.9002 35.1998L44.9662 35.2858L44.3982 35.6638C44.0732 35.8813 43.6913 35.9982 43.3002 35.9998H17.7097C17.3152 36.0002 16.9295 35.8832 16.6017 35.6638L16.0337 35.2858L16.0997 35.1998C16.1748 35.1036 16.2417 35.0012 16.2997 34.8938Z" fill="#0453C8"/>
<path d="M46.5003 47.9996C48.1572 47.9996 49.5004 46.6565 49.5004 44.9996C49.5004 43.3427 48.1572 41.9995 46.5003 41.9995C44.8434 41.9995 43.5002 43.3427 43.5002 44.9996C43.5002 46.6565 44.8434 47.9996 46.5003 47.9996Z" fill="#E8EBF1"/>
<path d="M14.4996 47.9996C16.1565 47.9996 17.4996 46.6565 17.4996 44.9996C17.4996 43.3427 16.1565 41.9995 14.4996 41.9995C12.8427 41.9995 11.4995 43.3427 11.4995 44.9996C11.4995 46.6565 12.8427 47.9996 14.4996 47.9996Z" fill="#E8EBF1"/>
<path d="M26.4599 17.9993C25.2773 19.5757 23.6552 20.7676 21.7973 21.4252C19.9395 22.0828 17.9288 22.1767 16.0177 21.6953C14.6214 21.3451 13.3184 20.6942 12.1998 19.7881C11.0812 18.8819 10.174 17.7424 9.54162 16.4492C9.46411 16.2955 9.42761 16.1243 9.43566 15.9523C9.44371 15.7803 9.49603 15.6133 9.58756 15.4675C9.67909 15.3216 9.80672 15.2019 9.9581 15.1199C10.1095 15.0378 10.2795 14.9963 10.4516 14.9992H15.0777C15.4288 14.9992 15.7737 14.9068 16.0777 14.7312C16.3817 14.5557 16.6342 14.3032 16.8098 13.9992L17.3858 12.9992C17.5613 12.6951 17.6537 12.3502 17.6537 11.9991C17.6537 11.6481 17.5613 11.3032 17.3858 10.9991L16.8098 9.9991C16.6342 9.69507 16.3817 9.44259 16.0777 9.26705C15.7737 9.09151 15.4288 8.99909 15.0777 8.99908H10.4516C10.2803 9.00149 10.1112 8.95982 9.96062 8.87809C9.81001 8.79636 9.68294 8.6773 9.59158 8.53233C9.50022 8.38736 9.44765 8.22135 9.4389 8.05022C9.43015 7.87909 9.46552 7.70858 9.54162 7.55506C10.1727 6.26025 11.0794 5.11918 12.1981 4.21189C13.3168 3.3046 14.6205 2.65306 16.0177 2.30296C17.9288 1.82154 19.9395 1.91553 21.7973 2.57311C23.6552 3.2307 25.2773 4.42257 26.4599 5.99903H46.2603C47.6768 5.97369 49.0587 6.43719 50.1734 7.31147C51.2881 8.18576 52.0675 9.41743 52.3804 10.7991C52.5565 11.6708 52.537 12.5706 52.3232 13.4338C52.1095 14.297 51.7068 15.102 51.1443 15.7908C50.5818 16.4795 49.8735 17.0349 49.0705 17.4168C48.2674 17.7987 47.3896 17.9976 46.5003 17.9993H26.4599Z" fill="#8DAEE1"/>
</svg>
