<svg width="51" height="52" viewBox="0 0 51 52" fill="none" xmlns="http://www.w3.org/2000/svg">
<path d="M0.502441 36.9351C0.502441 29.8626 0.502442 26.3301 2.69994 24.1326C4.89744 21.9351 8.42994 21.9351 15.5024 21.9351H35.5049C42.5774 21.9351 46.1099 21.9351 48.3074 24.1326C50.5049 26.3301 50.5049 29.8626 50.5049 36.9351C50.5049 44.0076 50.5049 47.5401 48.3074 49.7376C46.1099 51.9351 42.5774 51.9351 35.5049 51.9351H15.5024C8.42994 51.9351 4.89744 51.9351 2.69994 49.7376C0.502442 47.5476 0.502441 44.0076 0.502441 36.9351Z" fill="#0453C8" fill-opacity="0.4"/>
<path d="M25.5001 41.9376C28.2601 41.9376 30.5026 39.7026 30.5026 36.9351C30.5026 34.1751 28.2676 31.9326 25.5001 31.9326C22.7326 31.9326 20.4976 34.1676 20.4976 36.9351C20.4976 39.7026 22.7401 41.9376 25.5001 41.9376Z" fill="#0453C8"/>
<path d="M12.375 16.9399C12.375 9.69494 18.255 3.81494 25.5 3.81494C31.6125 3.81494 36.7575 7.99244 38.2125 13.6549C38.4675 14.6599 39.495 15.2599 40.4925 15.0049C41.4975 14.7499 42.0975 13.7224 41.8425 12.7249C39.9675 5.44994 33.3675 0.0649414 25.5 0.0649414C16.1775 0.0649414 8.625 7.61744 8.625 16.9399V22.0774C9.72 21.9949 10.9575 21.9649 12.375 21.9499V16.9399Z" fill="#0453C8"/>
</svg>
