<svg width="30" height="71" viewBox="0 0 30 71" fill="none" xmlns="http://www.w3.org/2000/svg">
<path d="M29.5869 34.5089L20.6674 25.5894C20.5023 25.3829 20.2924 25.2315 20.0377 25.1352C19.7831 25.0388 19.525 25.0216 19.2635 25.0836C19.0019 25.1455 18.7748 25.2694 18.5821 25.4552C18.3894 25.641 18.2621 25.8681 18.2001 26.1366C18.1382 26.405 18.152 26.6665 18.2414 26.9211C18.3309 27.1758 18.4789 27.3857 18.6853 27.5509L25.2304 34.1166H1.40386C1.04598 34.1579 0.750036 34.3127 0.516037 34.5812C0.282038 34.8496 0.165039 35.1593 0.165039 35.5103C0.165039 35.8613 0.282038 36.171 0.516037 36.4394C0.750036 36.7078 1.04598 36.8626 1.40386 36.9039H25.2304L18.6853 43.449C18.4376 43.7243 18.3206 44.0478 18.3343 44.4194C18.3481 44.7911 18.4858 45.1076 18.7473 45.3692C19.0088 45.6307 19.3254 45.7684 19.697 45.7821C20.0687 45.7959 20.3922 45.6789 20.6674 45.4311L29.5869 36.491C29.8622 36.2157 29.9999 35.8854 29.9999 35.4999C29.9999 35.1145 29.8622 34.7842 29.5869 34.5089Z" fill="#E8EBF1"/>
</svg>
