<svg width="31" height="30" viewBox="0 0 31 30" fill="none" xmlns="http://www.w3.org/2000/svg">
<path d="M10.7416 30C9.43202 30 8.28979 29.1602 7.89938 27.9102L4.58708 17.3074C3.72979 14.5632 5.05366 11.612 7.66653 10.4426C10.2489 9.28692 12.8995 8.70093 15.5446 8.70093C18.1982 8.70093 20.9013 9.29108 23.5789 10.455C26.2514 11.6167 27.6132 14.5848 26.7465 17.359L23.4503 27.9102C23.0599 29.1602 21.9177 30 20.6082 30H10.7416Z" fill="#3A475C"/>
<path d="M15.6747 24.7912C14.0746 24.7912 12.7773 23.494 12.7773 21.8938V16.6332C12.7773 15.033 14.0746 13.7358 15.6747 13.7358C17.2749 13.7358 18.5721 15.033 18.5721 16.6332V21.8938C18.5721 23.494 17.2749 24.7912 15.6747 24.7912Z" fill="#0A1424"/>
<path d="M14.3643 11.0712V18.0929C14.3643 18.8167 14.951 19.4035 15.6749 19.4035C16.3987 19.4035 16.9855 18.8167 16.9855 18.0929V11.0712H14.3643Z" fill="#8E93A6"/>
<path d="M21.2538 15.1307H20.6514C20.4014 15.1307 20.1987 14.9281 20.1987 14.678C20.1987 14.428 20.4014 14.2253 20.6514 14.2253H21.2538C21.5038 14.2253 21.7065 14.428 21.7065 14.678C21.7065 14.9281 21.5038 15.1307 21.2538 15.1307Z" fill="#8E93A6"/>
<path d="M21.2538 19.0126H20.6514C20.4014 19.0126 20.1987 18.8099 20.1987 18.5599C20.1987 18.3099 20.4014 18.1072 20.6514 18.1072H21.2538C21.5038 18.1072 21.7065 18.3099 21.7065 18.5599C21.7065 18.8099 21.5038 19.0126 21.2538 19.0126Z" fill="#8E93A6"/>
<path d="M21.2538 22.8944H20.6514C20.4014 22.8944 20.1987 22.6917 20.1987 22.4417C20.1987 22.1917 20.4014 21.989 20.6514 21.989H21.2538C21.5038 21.989 21.7065 22.1917 21.7065 22.4417C21.7065 22.6917 21.5038 22.8944 21.2538 22.8944Z" fill="#8E93A6"/>
<path d="M23.9267 2.67639H19.4277V6.32186H23.9267C24.2879 6.32186 24.5806 6.02907 24.5806 5.66795V3.3303C24.5806 2.96918 24.2879 2.67639 23.9267 2.67639Z" fill="#3A475C"/>
<path d="M21.1081 2.20951L20.0469 0.703359C19.7362 0.262383 19.2304 0 18.691 0H12.659C12.1195 0 11.6137 0.262383 11.303 0.703359L10.2419 2.20951C9.4642 3.31336 9.32293 4.74434 9.86979 5.97891L11.7666 10.2609C11.9848 10.7535 12.4729 11.0712 13.0116 11.0712H18.3383C18.8771 11.0712 19.3651 10.7535 19.5833 10.2609L21.4801 5.97891C22.027 4.74434 21.8857 3.31336 21.1081 2.20951Z" fill="#8E93A6"/>
</svg>
