<svg width="32" height="28" viewBox="0 0 32 28" fill="none" xmlns="http://www.w3.org/2000/svg">
<path d="M17.6384 24.2858C17.6384 24.0758 17.7084 23.9008 17.8484 23.7608L27.1062 14.4998L17.8484 5.23876C17.7084 5.09876 17.6384 4.92726 17.6384 4.72426C17.6384 4.52126 17.7084 4.34976 17.8484 4.20976C17.9883 4.06976 18.1563 3.99976 18.3522 3.99976C18.5481 3.99976 18.7161 4.06976 18.856 4.20976L29.1426 14.4998L18.877 24.7898C18.7371 24.9298 18.5656 24.9998 18.3627 24.9998C18.1598 24.9998 17.9883 24.9298 17.8484 24.7898C17.7084 24.6498 17.6384 24.4818 17.6384 24.2858ZM3.2373 14.4998C3.2373 14.3038 3.30728 14.1358 3.44723 13.9958C3.58719 13.8558 3.75513 13.7858 3.95106 13.7858H28.1349C28.3308 13.7858 28.4988 13.8558 28.6387 13.9958C28.7787 14.1358 28.8487 14.3038 28.8487 14.4998C28.8487 14.6958 28.7787 14.8638 28.6387 15.0038C28.4988 15.1438 28.3308 15.2138 28.1349 15.2138H3.95106C3.75513 15.2138 3.58719 15.1438 3.44723 15.0038C3.30728 14.8638 3.2373 14.6958 3.2373 14.4998Z" fill="white"/>
</svg>
